<?xml version="1.0" standalone="no"?>
<!DOCTYPE svg PUBLIC "-//W3C//DTD SVG 20010904//EN"
 "http://www.w3.org/TR/2001/REC-SVG-20010904/DTD/svg10.dtd">
<svg version="1.0" xmlns="http://www.w3.org/2000/svg"
 width="700.000000pt" height="700.000000pt" viewBox="0 0 700.000000 700.000000"
 preserveAspectRatio="xMidYMid meet">
<metadata>
Created by potrace 1.14, written by Peter Selinger 2001-2017
</metadata>
<g transform="translate(0.000000,700.000000) scale(0.100000,-0.100000)"
fill="#000000" stroke="none">
<path d="M4495 6913 c83 -44 161 -86 175 -95 216 -136 340 -226 482 -350 178
-155 385 -381 504 -548 21 -30 42 -59 47 -65 18 -22 114 -173 146 -229 106
-188 208 -411 260 -566 12 -36 25 -72 28 -80 10 -24 10 -26 57 -205 24 -93 47
-186 50 -205 3 -19 10 -57 15 -85 5 -27 12 -77 16 -110 3 -33 8 -67 10 -75 17
-68 25 -472 12 -636 -10 -126 -31 -293 -42 -334 -2 -8 -6 -33 -10 -55 -3 -22
-7 -47 -10 -55 -2 -8 -6 -26 -9 -40 -2 -14 -9 -45 -16 -70 -7 -25 -14 -52 -15
-60 -11 -52 -83 -272 -122 -369 -248 -633 -678 -1175 -1228 -1550 -106 -73
-251 -161 -264 -161 -5 0 -19 -8 -32 -18 -61 -46 -369 -176 -554 -235 -158
-50 -403 -105 -550 -123 -27 -3 -61 -8 -75 -10 -160 -21 -576 -21 -711 1 -13
2 -46 6 -73 10 -207 26 -550 113 -711 180 -16 6 -66 27 -110 45 -413 172 -802
443 -1123 783 -28 31 -57 59 -63 63 -24 14 207 -316 271 -388 8 -9 35 -41 60
-71 56 -69 281 -293 375 -373 398 -343 899 -603 1405 -729 74 -18 149 -36 165
-39 17 -3 57 -10 90 -16 33 -6 78 -13 100 -16 22 -3 54 -7 70 -9 194 -29 632
-27 851 4 116 17 146 22 219 38 39 8 81 17 95 19 103 19 334 91 490 151 336
132 715 356 964 573 323 280 549 547 758 895 74 124 181 335 223 439 15 38 31
77 36 85 35 65 155 468 175 591 2 14 9 45 14 70 5 25 12 65 15 90 3 25 8 52
10 60 2 8 7 47 10 85 4 39 11 106 15 150 8 83 4 557 -5 610 -3 17 -7 55 -10
85 -3 30 -8 66 -10 80 -3 14 -7 41 -10 60 -81 512 -273 1003 -558 1430 -62 93
-151 216 -167 230 -3 3 -32 39 -65 80 -65 81 -316 337 -405 412 -30 25 -91 74
-135 107 -44 33 -85 64 -90 69 -56 46 -441 282 -459 282 -2 0 -51 22 -108 49
-189 90 -413 171 -603 217 -11 3 48 -30 130 -73z"/>
<path d="M2939 6886 c-2 -2 -49 -6 -104 -10 -295 -17 -604 -87 -896 -202 -103
-40 -305 -137 -384 -184 -27 -16 -63 -37 -80 -46 -16 -9 -73 -46 -125 -82
-315 -217 -614 -520 -824 -837 -258 -389 -432 -840 -492 -1274 -3 -25 -8 -57
-10 -71 -26 -168 -26 -615 1 -795 3 -16 7 -48 10 -70 3 -22 7 -47 10 -55 2 -8
6 -32 9 -52 3 -20 15 -77 26 -125 11 -48 23 -99 26 -112 13 -62 107 -328 153
-436 369 -855 1098 -1494 1991 -1744 78 -21 199 -48 260 -57 19 -3 42 -7 50
-9 8 -2 37 -7 65 -11 27 -3 61 -8 75 -10 198 -26 578 -20 760 12 19 3 49 8 67
10 29 4 59 10 240 50 112 25 423 132 501 173 9 5 68 35 130 65 117 59 183 96
169 96 -4 0 -24 -8 -45 -18 -37 -19 -229 -86 -332 -116 -65 -19 -265 -62 -330
-71 -25 -3 -56 -8 -70 -10 -104 -15 -184 -20 -385 -20 -242 0 -299 4 -485 36
-262 44 -506 120 -738 230 -46 21 -86 39 -89 39 -10 0 -224 127 -308 183 -79
53 -210 151 -291 219 -87 73 -250 239 -340 347 -250 298 -440 639 -556 996
-28 87 -66 225 -73 264 -3 19 -8 37 -10 41 -4 6 -30 154 -40 225 -3 22 -7 49
-10 60 -18 88 -25 468 -12 630 31 363 133 738 291 1067 152 318 333 574 581
823 144 145 163 162 285 256 327 254 686 429 1088 530 70 18 134 33 142 34 65
8 110 19 110 26 0 10 -4 11 -11 5z"/>
<path d="M2566 4993 c-52 -104 -89 -205 -121 -328 -20 -80 -27 -116 -41 -230
-12 -91 -1 -272 20 -366 59 -252 204 -463 414 -602 111 -74 106 -75 98 29 -4
49 -14 132 -21 184 -8 52 -17 115 -20 140 -6 44 -11 81 -20 130 -2 14 -7 45
-10 70 -3 25 -11 81 -19 125 -8 44 -13 81 -11 83 4 4 31 -73 85 -248 110 -353
172 -540 182 -546 19 -12 118 103 173 201 167 300 97 713 -178 1051 -81 98
-180 195 -275 267 -81 62 -184 127 -201 127 -6 0 -31 -39 -55 -87z"/>
<path d="M5925 4864 c-38 -8 -81 -16 -95 -19 -187 -34 -565 -152 -755 -234
-22 -10 -60 -26 -85 -36 -74 -32 -276 -134 -369 -187 -533 -308 -944 -717
-1187 -1183 -97 -186 -172 -392 -201 -550 -2 -16 -6 -31 -7 -32 -1 -2 -28 29
-61 67 -188 226 -497 444 -815 575 -165 67 -419 140 -595 169 -84 14 -122 19
-235 32 -92 11 -425 12 -437 2 -15 -12 -10 -146 13 -353 35 -319 157 -714 304
-991 64 -119 182 -304 225 -350 5 -6 35 -40 65 -75 284 -328 634 -521 1080
-595 90 -14 415 -28 431 -18 7 4 -21 61 -44 89 -4 6 -48 64 -98 130 -50 66
-98 129 -107 140 -9 11 -53 65 -96 120 -85 106 -387 477 -396 485 -8 7 -202
242 -220 265 -14 19 -14 19 5 5 11 -8 22 -17 25 -20 3 -3 34 -30 70 -60 36
-30 76 -65 90 -76 46 -39 225 -197 230 -203 3 -3 59 -53 125 -111 66 -58 122
-107 125 -110 3 -3 43 -39 90 -80 47 -41 87 -78 90 -81 13 -15 233 -200 287
-242 34 -26 68 -47 76 -47 13 0 44 31 118 117 56 64 494 650 643 858 41 58
191 261 196 265 3 3 21 28 40 55 19 28 45 61 57 75 13 14 23 28 23 32 0 3 6
13 13 20 7 7 35 43 62 79 163 215 229 292 178 208 -23 -38 -166 -308 -268
-504 -37 -71 -87 -166 -110 -210 -128 -239 -430 -851 -505 -1020 -17 -39 -35
-77 -40 -86 -5 -9 -12 -33 -15 -53 l-7 -36 38 5 c22 4 46 8 54 10 8 2 31 7 50
10 51 9 250 63 338 92 630 210 1124 643 1424 1248 80 161 192 458 223 595 2 8
15 62 28 120 14 58 28 123 31 145 3 22 8 54 11 70 23 131 28 175 42 345 10
110 9 562 0 665 -6 68 -34 291 -41 328 -1 7 -8 45 -16 85 -7 39 -16 72 -19 71
-3 0 -37 -7 -76 -15z m-2415 -2709 c17 -9 48 -33 67 -53 99 -101 105 -256 15
-369 -84 -107 -264 -123 -373 -34 -131 108 -124 332 15 428 26 18 62 37 80 43
43 13 158 5 196 -15z"/>
</g>
</svg>
