<svg width="36" height="38" viewBox="0 0 36 38" fill="none" xmlns="http://www.w3.org/2000/svg">
<path fill-rule="evenodd" clip-rule="evenodd" d="M19.8902 6.67786V5.42856C23.2216 5.55404 25.9158 8.15849 26.1667 11.4431H24.9266V11.9447H26.1857C26.1857 15.4622 23.3895 18.3292 19.8902 18.461V17.2117H19.3865V18.461C15.8872 18.3292 13.0909 15.4622 13.0909 11.9448L14.35 11.9447V11.4431H13.11C13.3609 8.15848 16.0551 5.55403 19.3865 5.42856V6.67786H19.8902ZM19.3865 6.92851V11.5102C19.236 11.597 19.1347 11.7591 19.1347 11.9447C19.1347 12.2218 19.3602 12.4464 19.6383 12.4464C19.6892 12.4464 19.7382 12.4389 19.7845 12.4249L22.8892 16.7729L23.1342 16.5993L20.0331 12.2562C20.1013 12.1707 20.142 12.0624 20.142 11.9447C20.142 11.7591 20.0407 11.597 19.8902 11.5102V6.92851H19.3865Z" fill="#90B515"/>
<path d="M19.6069 18.4657C19.6174 18.4657 19.6279 18.4658 19.6383 18.4658C19.6488 18.4658 19.6593 18.4657 19.6698 18.4657H19.6069Z" fill="#90B515"/>
<path d="M35.9156 19.9598C35.6586 19.584 35.2731 19.3334 34.7591 19.3334C31.9321 19.3334 29.2336 20.5862 27.5631 22.8412L26.4066 24.3446C24.9931 25.9732 22.8087 26.8502 20.6242 26.8502H16.7692C15.9982 26.8502 15.4842 26.349 15.4842 25.5974C15.4842 24.8457 15.9982 24.3446 16.7692 24.3446H19.2107C21.2667 24.3446 23.1942 22.716 23.1942 20.7115V20.5862C23.1942 19.9598 22.5517 19.3334 21.9092 19.3334H14.0707C9.44471 19.3334 5.71823 21.3379 3.66223 24.5951L0.192749 29.8569C-0.0642497 30.2327 -0.0642497 30.7338 0.192749 31.1097L4.04773 37.3736C4.17623 37.6242 4.56173 37.8747 4.81873 38C4.94723 38 4.94723 38 5.07573 38C5.33273 38 5.58973 37.8747 5.84673 37.7494C10.7297 34.6175 16.3837 32.9888 22.1662 32.9888C26.4066 32.9888 30.2616 30.7338 32.3176 27.1007L35.7871 21.0873C36.0441 20.8368 36.0441 20.3356 35.9156 19.9598Z" fill="#9DC41A"/>
<path d="M6 7.59998L6.61231 9.4755H8.59379L6.99074 10.6346L7.60305 12.5102L6 11.351L4.39695 12.5102L5.00926 10.6346L3.40621 9.4755H5.38769L6 7.59998Z" fill="#90B515"/>
<path d="M32.1818 7.59998L32.7941 9.4755H34.7756L33.1726 10.6346L33.7849 12.5102L32.1818 11.351L30.5788 12.5102L31.1911 10.6346L29.588 9.4755H31.5695L32.1818 7.59998Z" fill="#90B515"/>
<path d="M19.0909 0L19.7032 1.87552H21.6847L20.0816 3.03466L20.694 4.91018L19.0909 3.75104L17.4879 4.91018L18.1002 3.03466L16.4971 1.87552H18.4786L19.0909 0Z" fill="#90B515"/>
</svg>
