<svg width="57" height="52" viewBox="0 0 57 52" fill="none" xmlns="http://www.w3.org/2000/svg">
<path d="M0.930182 10.1739C6.51058 -4.01284 24.1818 -2.54058 28.5 9.50476C33.1503 -2.54059 50.4894 -4.01284 56.0698 10.1739C57.4621 13.7136 57.2002 17.3066 55.889 20.881H55.7136C54.8193 20.881 54.0183 20.3236 53.7018 19.4811L50.2519 10.2967C49.6992 8.82549 47.8234 8.41913 46.7192 9.53142L30.021 26.3517C29.181 27.1978 27.819 27.1978 26.9791 26.3517L15.0734 14.359C14.2334 13.5129 12.8715 13.5129 12.0316 14.359L6.18689 20.2464C5.78351 20.6528 5.23641 20.881 4.66594 20.881H1.111C-0.200235 17.3066 -0.462144 13.7136 0.930182 10.1739Z" fill="#9DC41A"/>
<path d="M2.6306 24.227C5.8344 30.1965 11.4624 36.0505 16.6525 41.449C17.2626 42.0836 17.8667 42.7119 18.46 43.3333H18.4637C18.8907 43.7932 19.3826 44.3468 19.9177 44.9489C22.534 47.8933 26.1833 52 28.3261 52C30.6385 52 34.9898 47.2179 37.6678 44.2747C37.9791 43.9326 38.2678 43.6153 38.528 43.3333C38.9263 42.9151 39.2307 42.6015 39.5541 42.2688C39.793 42.0229 40.0428 41.7659 40.3475 41.449C45.5376 36.0504 51.1656 30.1965 54.3694 24.227H53.4189C52.5246 24.227 51.7236 23.6696 51.4072 22.8271L48.9648 16.3251C48.4122 14.8538 46.5363 14.4475 45.4321 15.5598L30.0209 31.0835C29.181 31.9297 27.819 31.9297 26.9791 31.0835L15.0734 19.0909C14.2335 18.2448 12.8715 18.2448 12.0316 19.0909L7.56277 23.5924C7.15939 23.9987 6.61229 24.227 6.04182 24.227H2.6306Z" fill="#9DC41A"/>
</svg>
