<svg width="48" height="52" viewBox="0 0 48 52" fill="none" xmlns="http://www.w3.org/2000/svg">
<path d="M9.80516 16.7255C9.89588 16.1945 10.4598 15.9072 10.9655 16.1072C11.4261 16.2894 11.6516 16.8071 11.5384 17.2846C11.3683 18.002 11.2648 18.984 11.7984 19.4412C12.6922 20.207 13.586 20.3249 14.1819 22.5635C14.7778 24.8022 20.4982 32.0485 22.7029 32.0485C24.9077 32.0485 29.0192 29.5152 30.9856 26.275C31.9873 24.6244 32.6643 23.1266 33.0875 22.0544C33.3966 21.271 34.6098 20.2683 34.8381 19.4582C34.8451 19.4335 34.852 19.4082 34.8588 19.3823C35.2759 17.7916 34.68 16.849 35.4547 16.4366C35.5659 16.3774 35.6845 16.3194 35.806 16.2635C36.5473 15.9226 37.3364 16.5104 37.2849 17.3171C37.1905 18.7952 36.9902 20.787 36.5868 21.1496C35.8718 21.7388 35.5738 25.627 33.3095 27.8068C31.0452 29.9865 25.146 34.5817 23.6563 34.5817C22.1666 34.5817 14.4798 29.8687 12.8114 25.9805C11.1429 22.0922 10.9046 21.3853 10.0704 20.3249C9.4448 19.5904 9.61449 17.8415 9.80516 16.7255Z" fill="#9DC41A"/>
<path d="M23.4776 3.82932C19.4256 3.82932 16.1483 7.06952 16.1483 11.0756C16.1483 15.0816 19.4256 18.3218 23.4776 18.3218C27.5295 18.3218 30.8068 15.0816 30.8068 11.0756C30.8068 7.06952 27.4699 3.82932 23.4776 3.82932ZM23.4776 13.3732C22.1666 13.3732 21.1536 12.3717 21.1536 11.0756C21.1536 9.7795 22.1666 8.77799 23.4776 8.77799C24.7885 8.77799 25.8015 9.7795 25.8015 11.0756C25.8015 12.3717 24.7289 13.3732 23.4776 13.3732Z" fill="#9DC41A"/>
<path d="M30.991 0.136054C30.8326 0.0415957 30.654 0 30.469 0C28.8156 0 20.2365 0 16.7442 0C13.4032 0 12.0573 2.58629 11.7506 3.29701C11.6995 3.41534 11.6792 3.53614 11.6792 3.66479C11.6792 5.01397 11.6792 13.157 11.6792 14.0212C11.6792 14.7998 12.4517 15.0559 12.7205 15.1214C12.7809 15.1361 12.8426 15.1406 12.9049 15.1406H12.9499C13.8258 15.1406 14.4088 14.2295 14.1867 13.3918C13.9914 12.6551 13.884 11.8831 13.884 11.0756C13.884 5.89127 18.1147 1.70847 23.3584 1.70847C28.6021 1.70847 32.8328 5.89127 32.8328 11.0756C32.8328 11.9557 32.7174 12.7901 32.5009 13.5789C32.3178 14.2458 32.7893 14.9638 33.4883 14.9638C33.9799 14.9638 34.1065 14.5226 34.1357 14.3683C34.1423 14.3333 34.1437 14.2998 34.1437 14.2642C34.1437 13.7097 34.1437 8.79968 34.1437 5.30214C34.1936 2.29234 31.7775 0.60492 30.991 0.136054Z" fill="#9DC41A"/>
<path d="M34.1223 34.1041C33.2007 33.6598 31.1581 34.0883 30.6607 34.9748L24.5375 45.8889C24.0799 46.7045 22.8907 46.6961 22.445 45.8741L17.0387 35.9043C16.473 34.861 12.9961 34.2636 11.8653 34.6527C11.3383 34.8341 10.7248 35.0092 10.0107 35.1709C5.00535 36.2902 0 38.3521 0 42.5939C0 46.8356 1.01299 48.8975 7.74638 50.1936C14.4798 51.4897 31.0451 53.1981 38.6723 50.7827C46.3591 48.3673 49.2789 46.8356 47.4913 42.5349C45.7632 38.2343 44.8098 37.9987 41.4729 36.9382C39.3267 36.3054 36.205 35.108 34.1223 34.1041Z" fill="#9DC41A"/>
</svg>
