<svg width="34" height="52" viewBox="0 0 34 52" fill="none" xmlns="http://www.w3.org/2000/svg">
<path d="M16 7.12609C16 7.68829 15.5522 8.14411 15 8.14411C14.4478 8.14411 14 7.68829 14 7.12609C14 6.5639 14.4478 6.10808 15 6.10808C15.5522 6.10808 16 6.5639 16 7.12609Z" fill="#9DC41A"/>
<path d="M16 18.3242C17.1045 18.3242 18 17.4127 18 16.2882C18 15.1637 17.1045 14.2522 16 14.2522C14.8955 14.2522 14 15.1637 14 16.2882C14 17.4127 14.8955 18.3242 16 18.3242Z" fill="#9DC41A"/>
<path d="M28 13.2342C28 14.9209 26.6567 16.2882 25 16.2882C23.3433 16.2882 22 14.9209 22 13.2342C22 11.5475 23.3433 10.1801 25 10.1801C26.6567 10.1801 28 11.5475 28 13.2342Z" fill="#9DC41A"/>
<path d="M7 18.3242C7.55225 18.3242 8 17.8684 8 17.3062C8 16.744 7.55225 16.2882 7 16.2882C6.44775 16.2882 6 16.744 6 17.3062C6 17.8684 6.44775 18.3242 7 18.3242Z" fill="#9DC41A"/>
<path d="M16 23.4143C16 23.9765 15.5522 24.4323 15 24.4323C14.4478 24.4323 14 23.9765 14 23.4143C14 22.8521 14.4478 22.3963 15 22.3963C15.5522 22.3963 16 22.8521 16 23.4143Z" fill="#9DC41A"/>
<path d="M23 26.4683C24.6567 26.4683 26 25.101 26 23.4143C26 21.7276 24.6567 20.3603 23 20.3603C21.3433 20.3603 20 21.7276 20 23.4143C20 25.101 21.3433 26.4683 23 26.4683Z" fill="#9DC41A"/>
<path fill-rule="evenodd" clip-rule="evenodd" d="M34 17.3062C34 26.8641 26.3887 34.6125 17 34.6125C16.0103 34.6125 15.0396 34.5263 14.0962 34.3611L7.17969 50.0662C6.45361 51.7148 4.55225 52.452 2.93262 51.7129C1.31299 50.9737 0.588867 49.038 1.31494 47.3893L8.07568 32.0387C3.22949 28.9898 0 23.5319 0 17.3062C0 7.74831 7.61133 0 17 0C26.3887 0 34 7.74831 34 17.3062ZM30 17.3062C30 24.6152 24.1797 30.5404 17 30.5404C9.82031 30.5404 4 24.6152 4 17.3062C4 9.99721 9.82031 4.07205 17 4.07205C24.1797 4.07205 30 9.99721 30 17.3062Z" fill="#9DC41A"/>
</svg>
