<svg width="51" height="53" viewBox="0 0 51 53" fill="none" xmlns="http://www.w3.org/2000/svg">
<path fill-rule="evenodd" clip-rule="evenodd" d="M33.1604 28.5723C37.4402 25.954 40.2962 21.2365 40.2962 15.8519C40.2962 7.62219 33.6247 0.950684 25.395 0.950684C17.1653 0.950684 10.4937 7.62219 10.4937 15.8519C10.4937 21.324 13.4434 26.1073 17.8394 28.6984V40.6173H8.08025C3.61765 40.6173 0 44.235 0 48.6976C0 50.1911 0.405181 51.5899 1.11162 52.7902H49.8884C50.5948 51.5899 51 50.1911 51 48.6976C51 44.235 47.3824 40.6173 42.9198 40.6173H33.1604V28.5723ZM33.3452 15.895C31.8742 15.77 30.0287 15.8908 28.3948 16.6105C27.352 17.0699 26.3734 17.784 25.6598 18.8512C24.9443 19.9212 24.5416 21.277 24.5416 22.9411V34.3523C24.2275 33.7451 23.5936 33.33 22.8628 33.33C21.8196 33.33 20.9739 34.1757 20.9739 35.2189V38.3671C20.9739 39.4103 21.8196 40.2559 22.8628 40.2559C23.5936 40.2559 24.2275 39.8409 24.5416 39.2337V40.8669C24.5416 42.2083 24.0026 43.4935 23.0457 44.4336L19.6226 47.7966C19.2092 48.2028 19.2033 48.8672 19.6095 49.2806C20.0156 49.694 20.68 49.6999 21.0935 49.2937L23.0449 47.3765C24.443 46.003 26.6774 45.9821 28.1009 47.3293L29.984 49.1116C30.4049 49.5099 31.0691 49.4917 31.4675 49.0707C31.8659 48.6498 31.8476 47.9856 31.4267 47.5872L28.2034 44.5367C27.2056 43.5923 26.6403 42.279 26.6403 40.9052V39.233C26.9543 39.8406 27.5884 40.2559 28.3195 40.2559C29.3627 40.2559 30.2084 39.4103 30.2084 38.3671V35.2189C30.2084 34.1757 29.3627 33.33 28.3195 33.33C27.5884 33.33 26.9543 33.7454 26.6403 34.353V22.9411C26.6403 21.6249 26.9547 20.6905 27.4045 20.0178C27.8561 19.3424 28.4909 18.8616 29.2408 18.5312C30.4062 18.0179 31.7927 17.8955 32.966 17.971C33.5444 18.0081 34.0916 17.6346 34.1959 17.0646C34.3002 16.4945 33.9226 15.9441 33.3452 15.895Z" fill="#9DC41A"/>
</svg>
