<svg width="18" height="19" viewBox="0 0 18 19" fill="none" xmlns="http://www.w3.org/2000/svg">
<path fill-rule="evenodd" clip-rule="evenodd" d="M10.7045 17.9828C14.5666 17.0866 17.4444 13.629 17.4444 9.50033C17.4444 4.69085 13.5393 0.791992 8.72219 0.791992C3.90506 0.791992 0 4.69085 0 9.50033C0 13.907 3.27832 17.5492 7.53278 18.1284V11.9749H5.55047V9.20408H7.53278V7.22492C7.53278 6.5652 7.84995 5.08744 9.11864 4.4541C10.3873 3.82077 12.2903 3.92633 13.0833 4.05827V6.03742H11.8939C10.9424 6.03742 10.7045 6.82908 10.7045 7.22492V9.20408H13.0833C12.7661 9.52075 12.6868 11.1832 12.6868 11.9749H10.7045V17.9828Z" fill="#555555"/>
</svg>
