<svg width="58" height="54" viewBox="0 0 58 54" fill="none" xmlns="http://www.w3.org/2000/svg">
<path fill-rule="evenodd" clip-rule="evenodd" d="M13.1898 17.6357L15.4127 12.1524C15.8079 8.10157 19.1177 0 29.1953 0C39.2729 0 41.6934 8.10157 41.644 12.1524C43.8176 12.6464 48.1648 14.6125 48.1648 18.5249V33.3449C45.6454 32.9991 40.3992 30.9737 39.5693 25.6385C39.0259 26.4783 37.4055 28.395 35.2715 29.3435V33.3449L36.7045 33.8061C37.2563 34.355 37.7908 35.2333 37.7908 36.457V40.3102C36.8028 40.5078 34.8268 41.6144 34.8268 44.4598C34.8268 47.3052 37.692 48.4118 39.1246 48.6094C40.5572 48.6094 43.4224 47.7795 43.4224 44.4598C43.5212 43.2742 43.0667 40.7845 40.4584 40.3102V35.8643C40.4883 35.6255 40.482 35.2425 40.3417 34.9767L48.1648 37.4945C48.7082 37.5439 50.0321 38.1465 50.9806 40.162C51.9291 42.1776 55.5254 49.8938 57.205 53.5H0L5.92798 40.162C6.17498 39.5693 7.05429 38.2058 8.59557 37.4945C9.53829 37.0594 12.8577 36.0107 16.1529 35.0131C16.0754 35.2913 16.0055 35.7518 16.0055 36.457V39.7174C14.6223 40.2608 11.8559 41.9108 11.8559 44.1634V49.9432H16.0055V47.2756H14.2271V44.1634C14.3753 43.5212 15.1756 42.2368 17.1911 42.2368C19.2066 42.2368 19.9081 43.5212 20.0069 44.1634V47.2756H18.5249V49.9432H22.8227V44.1634C22.5757 42.9778 21.3703 40.4288 18.5249 39.7174V36.457C18.4787 35.9022 18.6748 34.6723 19.7694 33.9338C20.5154 33.7141 21.2006 33.5141 21.7853 33.3449V29.3435C20.8961 28.9977 18.851 27.7726 17.7839 25.6385C16.7169 23.5044 16.1537 19.4141 16.0055 17.6357H13.1898Z" fill="#9DC41A"/>
</svg>
