<svg width="32" height="38" viewBox="0 0 32 38" fill="none" xmlns="http://www.w3.org/2000/svg">
<path d="M31.925 22.5369C31.6965 22.2148 31.3539 22 30.897 22C28.3841 22 25.9854 23.0738 24.5006 25.0067L23.4726 26.2953C22.2161 27.6913 20.2744 28.443 18.3326 28.443H14.9059C14.2206 28.443 13.7637 28.0134 13.7637 27.3691C13.7637 26.7248 14.2206 26.2953 14.9059 26.2953H17.0761C18.9037 26.2953 20.617 24.8993 20.617 23.1812V23.0738C20.617 22.5369 20.0459 22 19.4748 22H12.5073C8.3953 22 5.08287 23.7181 3.25532 26.5101L0.171333 31.0201C-0.0571109 31.3423 -0.0571109 31.7718 0.171333 32.094L3.59798 37.4631C3.71221 37.6779 4.05487 37.8926 4.28331 38C4.39754 38 4.39754 38 4.51176 38C4.7402 38 4.96865 37.8926 5.19709 37.7852C9.53752 35.1007 14.5633 33.7047 19.7033 33.7047C23.4726 33.7047 26.8992 31.7718 28.7268 28.6577L31.8107 23.5034C32.0392 23.2886 32.0392 22.8591 31.925 22.5369Z" fill="#9DC41A"/>
<path d="M23.4185 15.0232C27.5671 15.0232 30.9302 11.6601 30.9302 7.51162C30.9302 3.36314 27.5671 0 23.4185 0C21.7586 0 20.2244 0.538517 18.9812 1.44985L20.5416 2.53897C21.3876 2.04878 22.3703 1.76744 23.4185 1.76744C26.591 1.76744 29.1627 4.3392 29.1627 7.51162C29.1627 10.684 26.591 13.2558 23.4185 13.2558C20.2461 13.2558 17.6744 10.684 17.6744 7.51162C17.6744 7.01021 17.7387 6.52348 17.8596 6.05918L16.338 4.99768C16.0589 5.78388 15.9069 6.62962 15.9069 7.51162C15.9069 11.6601 19.27 15.0232 23.4185 15.0232Z" fill="#9DC41A"/>
<path d="M10.4713 12.0909V11.4884H10.0527V12.0824C9.87723 12.0998 9.71891 12.1433 9.57777 12.2132C9.39172 12.3042 9.24592 12.4343 9.14038 12.6035C9.03483 12.7726 8.98206 12.9724 8.98206 13.2028C8.98206 13.4444 9.03125 13.6442 9.12964 13.8022C9.22803 13.9583 9.36489 14.0893 9.5402 14.1953C9.7173 14.2993 9.92213 14.3978 10.1547 14.4908C10.2924 14.5447 10.4016 14.6004 10.4821 14.658C10.5643 14.7157 10.6234 14.7816 10.6592 14.856C10.6967 14.9303 10.7155 15.0204 10.7155 15.1264C10.7155 15.2212 10.6958 15.3067 10.6565 15.3829C10.6189 15.4572 10.5626 15.5157 10.4874 15.5585C10.4141 15.6012 10.3202 15.6226 10.2057 15.6226C10.1323 15.6226 10.0599 15.6115 9.98832 15.5892C9.91676 15.5668 9.85236 15.5297 9.79512 15.4776C9.73966 15.4237 9.69494 15.3522 9.66095 15.263C9.62696 15.1719 9.60997 15.0585 9.60997 14.9229H8.83716C8.83716 15.1719 8.87651 15.3819 8.95523 15.5529C9.03394 15.722 9.13948 15.8577 9.27186 15.9599C9.40424 16.0621 9.55183 16.1365 9.71462 16.1829C9.81002 16.2091 9.90572 16.2276 10.0017 16.2384V16.7907H10.4203V16.2387C10.5876 16.2206 10.7397 16.1807 10.8765 16.1188C11.0697 16.0296 11.22 15.9014 11.3273 15.7341C11.4347 15.565 11.4883 15.3606 11.4883 15.1208C11.4883 14.8792 11.4391 14.6803 11.3407 14.5242C11.2423 14.3681 11.1055 14.2362 10.9302 14.1284C10.7549 14.0206 10.5509 13.9202 10.3184 13.8273C10.1753 13.766 10.0626 13.7065 9.98027 13.6489C9.89798 13.5894 9.83984 13.5244 9.80585 13.4537C9.77365 13.3831 9.75755 13.3004 9.75755 13.2056C9.75755 13.109 9.77276 13.0235 9.80317 12.9491C9.83537 12.8729 9.88635 12.8125 9.95612 12.7679C10.0259 12.7233 10.1153 12.701 10.2245 12.701C10.2978 12.701 10.3649 12.7159 10.4257 12.7456C10.4865 12.7735 10.5384 12.8163 10.5813 12.8739C10.6261 12.9315 10.6601 13.003 10.6833 13.0885C10.7066 13.174 10.7182 13.2725 10.7182 13.384H11.4883C11.4883 13.1759 11.4588 12.991 11.3998 12.8293C11.3407 12.6676 11.2558 12.531 11.1448 12.4195C11.0339 12.3061 10.9016 12.2206 10.7477 12.163C10.6612 12.1296 10.5691 12.1055 10.4713 12.0909Z" fill="#9DC41A"/>
<path fill-rule="evenodd" clip-rule="evenodd" d="M15.9069 14.5817C15.9069 17.7541 13.3352 20.3258 10.1628 20.3258C6.99034 20.3258 4.41858 17.7541 4.41858 14.5817C4.41858 11.4092 6.99034 8.83748 10.1628 8.83748C13.3352 8.83748 15.9069 11.4092 15.9069 14.5817ZM14.1395 14.5817C14.1395 16.778 12.3591 18.5584 10.1628 18.5584C7.96646 18.5584 6.18602 16.778 6.18602 14.5817C6.18602 12.3854 7.96646 10.6049 10.1628 10.6049C12.3591 10.6049 14.1395 12.3854 14.1395 14.5817Z" fill="#9DC41A"/>
<path d="M23.9328 2.65116V3.65539C24.0958 3.67978 24.2494 3.71984 24.3935 3.77556C24.6499 3.87158 24.8705 4.01406 25.0554 4.20301C25.2402 4.38886 25.3819 4.61653 25.4803 4.88601C25.5786 5.1555 25.6278 5.4637 25.6278 5.81062H24.3443C24.3443 5.62477 24.3249 5.4606 24.2862 5.31812C24.2474 5.17563 24.1907 5.05638 24.1162 4.96035C24.0447 4.86433 23.9582 4.79309 23.8568 4.74663C23.7554 4.69707 23.6436 4.67229 23.5214 4.67229C23.3395 4.67229 23.1905 4.70946 23.0742 4.7838C22.9579 4.85814 22.8729 4.95881 22.8193 5.0858C22.7686 5.2097 22.7432 5.35219 22.7432 5.51326C22.7432 5.67123 22.7701 5.80907 22.8237 5.92678C22.8804 6.04448 22.9773 6.1529 23.1144 6.25202C23.2516 6.34804 23.4394 6.44716 23.6779 6.54938C24.0655 6.70425 24.4054 6.87152 24.6976 7.05117C24.9898 7.23083 25.2179 7.45075 25.3819 7.71094C25.5458 7.97113 25.6278 8.30257 25.6278 8.70525C25.6278 9.10482 25.5384 9.44555 25.3595 9.72742C25.1806 10.0062 24.9302 10.2199 24.6082 10.3686C24.3801 10.4717 24.1267 10.5383 23.8479 10.5684V11.4884H23.1502V10.5679C22.9902 10.5498 22.8307 10.519 22.6717 10.4755C22.4004 10.398 22.1544 10.2741 21.9337 10.1038C21.7131 9.93341 21.5372 9.70729 21.406 9.42542C21.2748 9.14044 21.2092 8.79043 21.2092 8.37536H22.4972C22.4972 8.60148 22.5256 8.79043 22.5822 8.9422C22.6389 9.09088 22.7134 9.21014 22.8058 9.29997C22.9012 9.3867 23.0086 9.44865 23.1278 9.48582C23.2471 9.52299 23.3678 9.54157 23.4901 9.54157C23.6809 9.54157 23.8374 9.50595 23.9597 9.43471C24.0849 9.36347 24.1788 9.26589 24.2414 9.14199C24.307 9.015 24.3398 8.87251 24.3398 8.71454C24.3398 8.53798 24.3085 8.38775 24.2459 8.26385C24.1863 8.13995 24.0879 8.02999 23.9507 7.93396C23.8166 7.83794 23.6347 7.74502 23.4051 7.65519C23.0175 7.50031 22.6761 7.33614 22.381 7.16268C22.0888 6.98613 21.8607 6.76775 21.6967 6.50756C21.5327 6.24427 21.4507 5.91129 21.4507 5.50861C21.4507 5.12452 21.5387 4.79154 21.7146 4.50967C21.8905 4.22779 22.1335 4.01097 22.4436 3.85919C22.6788 3.74281 22.9427 3.67016 23.2352 3.64123V2.65116H23.9328Z" fill="#9DC41A"/>
</svg>
