<svg width="32" height="45" viewBox="0 0 32 45" fill="none" xmlns="http://www.w3.org/2000/svg">
<path fill-rule="evenodd" clip-rule="evenodd" d="M14.0709 43.578C14.6156 44.3042 15.5839 44.4858 15.8865 44.4858C16.1891 44.4858 17.3844 44.3042 17.9291 43.578C18.4738 42.8517 26.9314 27.3888 31.0922 19.7482C31.3948 19.143 32 17.3425 32 14.9822C32 12.6219 31.3948 10.8215 31.0922 10.2163C29.6548 6.73637 24.2383 -0.178054 15.8865 0.00350647C7.53475 -0.178054 2.34515 6.73637 0.907801 10.2163C0.605201 10.8215 0 12.6219 0 14.9822C0 17.3425 0.605201 19.143 0.907801 19.7482C5.06856 27.3888 13.5262 42.8517 14.0709 43.578ZM16.1134 21.7874C19.4976 21.7874 22.2411 19.0439 22.2411 15.6597C22.2411 12.2755 19.4976 9.53206 16.1134 9.53206C12.7292 9.53206 9.98576 12.2755 9.98576 15.6597C9.98576 19.0439 12.7292 21.7874 16.1134 21.7874Z" fill="#9DC41A"/>
</svg>
