<svg width="42" height="52" viewBox="0 0 42 52" fill="none" xmlns="http://www.w3.org/2000/svg">
<path d="M41.9015 30.926C41.6017 30.487 41.152 30.1943 40.5523 30.1943C37.2541 30.1943 34.1059 31.6578 32.157 34.292L30.8077 36.0482C29.1587 37.9507 26.6101 38.9751 24.0615 38.9751H19.564C18.6645 38.9751 18.0649 38.3897 18.0649 37.5117C18.0649 36.6336 18.6645 36.0482 19.564 36.0482H22.4124C24.8111 36.0482 27.0598 34.1457 27.0598 31.8041V31.6578C27.0598 30.926 26.3103 30.1943 25.5607 30.1943H16.4158C11.0188 30.1943 6.67126 32.5359 4.27261 36.3409L0.224874 42.4874C-0.074958 42.9265 -0.074958 43.5119 0.224874 43.9509L4.72235 51.2683C4.87227 51.561 5.32202 51.8537 5.62185 52C5.77177 52 5.77177 52 5.92168 52C6.22152 52 6.52135 51.8537 6.82118 51.7073C12.518 48.0486 19.1143 46.1461 25.8605 46.1461C30.8077 46.1461 35.3052 43.5119 37.7039 39.2678L41.7516 32.2432C42.0514 31.9505 42.0514 31.3651 41.9015 30.926Z" fill="#9DC41A"/>
<path d="M25.2 1.92593C25.2 2.98958 24.3321 3.85185 23.2615 3.85185C22.1909 3.85185 21.323 2.98958 21.323 1.92593C21.323 0.862266 22.1909 0 23.2615 0C24.3321 0 25.2 0.862266 25.2 1.92593Z" fill="#9DC41A"/>
<path fill-rule="evenodd" clip-rule="evenodd" d="M24.0001 24.8476L23.9077 28.2469H23.2615L23.0689 24.7075C22.9371 24.7335 22.8082 24.7788 22.6867 24.8434C22.2879 25.0553 21.8493 25.2748 21.368 25.5022C21.2246 25.57 21.0534 25.5081 20.9863 25.3651C20.9191 25.2221 20.9814 25.0522 21.1248 24.9844C21.3427 24.8815 21.5511 24.7804 21.7506 24.6811C22.2162 24.4494 22.2347 23.8081 21.8232 23.4911C21.0257 22.8767 20.5857 22.3203 20.4538 21.8077C20.3127 21.2592 20.5369 20.8226 20.8968 20.5192C21.2423 20.228 21.7227 20.0452 22.1759 19.9447C22.2394 19.9289 22.2445 19.8411 22.1837 19.8169C21.6348 19.5981 21.1806 19.3688 20.8094 19.1321C20.0274 18.6334 19.5916 18.0865 19.4427 17.5162C19.2931 16.9429 19.448 16.4028 19.7278 15.9511C20.006 15.502 20.417 15.1226 20.8234 14.845L20.8267 14.8427C21.2592 14.5563 21.8711 14.0485 22.4524 13.3754L22.3447 11.3954C22.1038 10.7672 21.9545 10.0861 21.9545 9.36673C21.9545 8.85764 22.0293 8.4012 22.1596 7.99371L22.0525 6.02427C22.0377 6.01605 22.0225 6.00816 22.0069 6.00061C21.7289 5.86602 21.4582 5.77063 21.2199 5.70901C21.0662 5.66929 20.9602 5.52277 20.9863 5.36714C21.0124 5.2115 21.1606 5.10565 21.3148 5.14351C21.531 5.19662 21.7696 5.27363 22.0173 5.3778L21.9692 4.49383H24.5538L24.5282 5.43617C24.8233 5.30187 25.1092 5.2061 25.364 5.14351C25.5182 5.10565 25.6664 5.2115 25.6925 5.36714C25.6997 5.40986 25.6969 5.4519 25.6859 5.49123C26.1374 4.88607 26.8616 4.49383 27.6781 4.49383H35.6127C36.1983 4.49383 36.6467 4.82095 36.2154 5.2144C35.4286 5.93206 33.3006 7.19474 28.5851 9.2029C26.9737 9.88914 25.1999 8.69782 25.1999 6.95595C25.1999 6.47724 25.3374 6.03044 25.5753 5.65241C25.5415 5.67826 25.5021 5.69785 25.4589 5.70901C25.2206 5.77063 24.9499 5.86602 24.6719 6.00061C24.6119 6.02963 24.5581 6.0638 24.5101 6.10236L24.463 7.83022C24.6277 8.27808 24.7243 8.78843 24.7243 9.36673C24.7243 10.0511 24.5891 10.7009 24.3686 11.3035L24.3096 13.4704C24.8656 14.0963 25.4402 14.5699 25.852 14.8427L25.8554 14.845C26.2618 15.1226 26.6728 15.502 26.951 15.9511C27.2308 16.4028 27.3857 16.9429 27.2361 17.5162C27.0872 18.0865 26.6514 18.6334 25.8694 19.1321C25.4982 19.3688 25.044 19.5981 24.4951 19.8169C24.4343 19.8411 24.4394 19.9289 24.5029 19.9447C24.9561 20.0452 25.4366 20.228 25.782 20.5192C26.1419 20.8226 26.3661 21.2592 26.225 21.8077C26.0931 22.3203 25.6531 22.8767 24.8556 23.4911C24.4441 23.8081 24.4626 24.4494 24.9282 24.6811C25.1277 24.7804 25.3361 24.8815 25.554 24.9844C25.6974 25.0522 25.7597 25.2221 25.6925 25.3651C25.6254 25.5081 25.4542 25.57 25.3108 25.5022C24.8327 25.2763 24.3968 25.0582 24.0001 24.8476ZM24.0402 23.3741C24.209 23.259 24.3631 23.1475 24.5032 23.0396C25.2693 22.4493 25.5841 21.9916 25.6678 21.6661C25.7423 21.3766 25.6431 21.1514 25.4099 20.9548C25.1633 20.7469 24.7828 20.5918 24.3744 20.5017L24.3671 20.5C24.2835 20.4793 24.2012 20.4582 24.1201 20.4372L24.0402 23.3741ZM24.15 19.3378C24.7309 19.1145 25.1944 18.8836 25.5588 18.6512C26.2672 18.1994 26.5791 17.7571 26.6794 17.3728C26.7789 16.9914 26.6847 16.6114 26.4612 16.2506C26.2366 15.8878 25.8911 15.563 25.5313 15.317C25.2407 15.1244 24.8836 14.8462 24.5087 14.4954C24.4394 14.4305 24.3649 14.3726 24.2865 14.3219L24.15 19.3378ZM22.5004 14.2578L22.7819 19.4319C22.0807 19.1797 21.5359 18.9164 21.12 18.6512C20.4116 18.1994 20.0997 17.7571 19.9994 17.3728C19.8999 16.9914 19.9941 16.6114 20.2176 16.2506C20.4422 15.8878 20.7877 15.563 21.1475 15.317C21.4381 15.1244 21.7952 14.8462 22.1701 14.4954C22.2706 14.4013 22.3818 14.3221 22.5004 14.2578ZM22.8326 20.3641L23.0063 23.5566C22.8933 23.5232 22.7842 23.4724 22.6831 23.4042C22.4967 23.2785 22.328 23.1569 22.1756 23.0396C21.4095 22.4493 21.0947 21.9916 21.011 21.6661C20.9365 21.3766 21.0357 21.1514 21.2689 20.9548C21.5155 20.7469 21.896 20.5918 22.3044 20.5017L22.3117 20.5C22.4911 20.4555 22.6647 20.4101 22.8326 20.3641Z" fill="#9DC41A"/>
<path d="M18.8449 4.49383H10.9103C10.3247 4.49383 9.87628 4.82095 10.3076 5.2144C11.0944 5.93206 13.2224 7.19474 17.9379 9.2029C19.5493 9.88914 21.3231 8.69782 21.3231 6.95595C21.3231 5.59616 20.2136 4.49383 18.8449 4.49383Z" fill="#9DC41A"/>
</svg>
