<svg width="47" height="53" viewBox="0 0 47 53" fill="none" xmlns="http://www.w3.org/2000/svg">
<path d="M20.0174 7.75367C18.8483 5.52984 16.6794 2.80722 13.2487 1.53069C9.76992 0.236267 7.00546 0.419029 5.31252 0.902218C4.39645 1.16368 4.01125 2.16206 4.43995 3.01281C6.04805 6.20404 10.2674 10.4221 18.4448 10.2664C18.5305 10.2648 18.6142 10.2579 18.6958 10.246C18.8182 11.1487 19.3363 12.1316 20.5791 13.0264C22.3736 14.3184 22.9631 16.4444 23.0449 18.2741C23.0688 18.8078 23.1516 19.3754 23.3072 19.8865C22.4869 19.6916 21.6943 19.2619 21.0513 18.4983C18.3854 16.3937 11.2578 13.4473 4.07412 18.4983C-4.90553 24.8121 3.37258 45.5775 6.03841 49.3658C8.70425 53.1541 17.6839 53.8557 21.0513 50.348C23.7451 47.5418 26.3829 49.1788 27.3651 50.348C30.405 52.2187 37.6636 54.6414 42.3779 49.3658C48.2708 42.7714 48.3827 25.1041 41.2555 18.4983C35.5029 13.1666 28.7681 17.2355 28.0666 18.4983C27.9062 18.7871 27.5696 19.0832 27.119 19.3363C27.1223 19.2594 27.1224 19.1815 27.1193 19.1027C27.0628 17.6543 26.4906 15.7108 24.648 13.8682C23.6637 12.884 23.111 12.009 22.8384 11.2615C22.4144 10.0985 21.6126 8.11338 20.4143 7.8027C20.2832 7.7687 20.1491 7.75232 20.0174 7.75367Z" fill="#9DC41A"/>
</svg>
