<svg width="45" height="52" viewBox="0 0 45 52" fill="none" xmlns="http://www.w3.org/2000/svg">
<path d="M29.2601 0C16.991 0 13.1838 11.4857 12.8139 17.2285L16.7489 18.1406C16.7489 11.9586 21.0091 4.68694 29.2601 5.37124C38.139 6.10761 41.2668 15.2016 40.2578 19.154L35.213 40.3349C34.2713 40.5039 31.7623 40.7403 29.2601 40.3349C26.7579 39.9296 24.4507 37.8689 23.6099 36.8892C22.9641 38.835 21.5919 40.3349 20.9865 40.8417C20.2601 47.8952 25.1906 50.9423 27.7466 51.5841C30.2691 52.5976 36.0605 52.3949 39.0471 43.4766C42.0336 34.5583 44.2601 22.2619 45 17.2285C44.8655 11.4857 41.5292 0 29.2601 0Z" fill="#9DC41A"/>
<path d="M19.9776 20.3702C21.9955 22.1538 23.2399 24.2212 23.6099 25.032C24.9013 22.2754 28.6547 21.1134 30.37 20.8769H36.6256L37.13 19.154C37.3655 15.6745 35.9596 8.71559 28.4529 8.71559C20.9462 8.71559 19.6749 16.4853 19.9776 20.3702Z" fill="#9DC41A"/>
<path d="M35.9193 24.0185H30.7735C28.9237 24.1875 25.1637 25.6401 24.9215 30.0992C24.6188 35.6731 28.7556 37.1933 32.6906 37.2946L35.9193 24.0185Z" fill="#9DC41A"/>
<path fill-rule="evenodd" clip-rule="evenodd" d="M21.7937 31.1126C21.7937 37.1575 16.9151 42.0578 10.8969 42.0578C4.87867 42.0578 0 37.1575 0 31.1126C0 25.0678 4.87867 20.1675 10.8969 20.1675C16.9151 20.1675 21.7937 25.0678 21.7937 31.1126ZM12.3094 25.8427C12.3094 25.283 11.8577 24.8293 11.3004 24.8293H10.0897C9.53244 24.8293 9.08072 25.283 9.08072 25.8427V28.6804C9.08072 29.2401 8.629 29.6938 8.07175 29.6938H5.44843C4.89118 29.6938 4.43946 30.1476 4.43946 30.7073V31.9234C4.43946 32.4831 4.89118 32.9368 5.44843 32.9368H8.07175C8.629 32.9368 9.08072 33.3906 9.08072 33.9503V36.5852C9.08072 37.1449 9.53244 37.5987 10.0897 37.5987H11.3004C11.8577 37.5987 12.3094 37.1449 12.3094 36.5852V33.9503C12.3094 33.3906 12.7611 32.9368 13.3184 32.9368H16.1435C16.7007 32.9368 17.1525 32.4831 17.1525 31.9234V30.7073C17.1525 30.1476 16.7007 29.6938 16.1435 29.6938H13.3184C12.7611 29.6938 12.3094 29.2401 12.3094 28.6804V25.8427Z" fill="#9DC41A"/>
</svg>
