<svg width="51" height="52" viewBox="0 0 51 52" fill="none" xmlns="http://www.w3.org/2000/svg">
<path d="M8.87659 14.1719C8.87659 12.0437 9.22009 10.2164 9.81623 8.65186C8.26738 7.12638 6.25757 3.9174 8.93608 1.46266C11.6995 -1.06989 14.9514 0.570858 16.3372 1.78751C19.502 0.274922 23.0145 -0.112494 25.4518 0.0261774C27.8554 -0.112315 31.3138 0.273932 34.424 1.7817C35.8136 0.565651 39.0595 -1.06586 41.8185 1.46266C44.5456 3.96189 42.4128 7.24295 40.8547 8.73313C41.4137 10.2796 41.7287 12.0804 41.7143 14.1719C41.6671 21.0016 38.1915 25.1568 34.2067 27.5408C40.043 27.9253 44.771 33.1786 46.4054 35.7573C51.9305 37.0147 51.2007 41.6251 50.5752 44.9782C49.9498 48.3313 47.1351 51.9987 42.444 51.9987C38.6911 51.9987 36.9189 49.6934 36.5019 48.5408C36.3977 49.6934 34.0417 51.9987 25.4518 51.9987C16.8619 51.9987 14.1584 49.6934 13.8804 48.5408C13.0465 51.3909 10.1971 52.0336 8.87659 51.9987C6.44417 51.9987 1.32914 50.5946 0.32837 44.9782C-0.922589 37.9577 1.57933 36.2812 4.81098 35.7573C5.99244 33.3882 9.98161 28.4282 16.4866 27.5408C12.414 25.1568 8.87659 21.0016 8.87659 14.1719Z" fill="#9DC41A"/>
</svg>
