<svg width="147" height="147" viewBox="0 0 147 147" fill="none" xmlns="http://www.w3.org/2000/svg">
<g clip-path="url(#clip0_283_725)">
<rect width="122.88" height="122.7" transform="translate(12 13)" fill="#90B515"/>
<path fill-rule="evenodd" clip-rule="evenodd" d="M12.18 13H56.81V57.45H12.18V13ZM123.5 124.5H134.88V135.7H123.5V124.5ZM101.63 124.48H113.01V135.15H101.63H101.62H90.25V113.33H101.27V102.27H112.48V80.22H123.86V91.06H134.7V102.26H123.86V113.46H112.65H112.48H101.63V124.48ZM67.84 102.09H78.86V90.89H68.2V79.69H78.86V68.49H68.02V79.69H56.63V68.49H67.83V35.23H79.21V68.48H90.23V79.68H101.07V68.48H112.45V79.68H101.63V90.88H90.25V112.93H79.22V135.16H67.84V102.09ZM123.31 68.48H134.69V79.68H123.31V68.48ZM34.41 68.48H45.79V79.68H34.41V68.48ZM12.18 68.48H23.56V79.68H12.18V68.48ZM67.84 13H79.22V24.2H67.84V13ZM12 91.06H56.63V135.51H12V91.06ZM22.84 101.86H45.79V124.72H22.84V101.86ZM90.06 13H134.69V57.45H90.06V13ZM100.91 23.8H123.86V46.66H100.91V23.8ZM23.02 23.8H45.97V46.66H23.02V23.8Z" fill="white"/>
</g>
<rect x="2.5" y="2.5" width="142" height="142" rx="2.5" stroke="#555555" stroke-width="5"/>
<defs>
<clipPath id="clip0_283_725">
<rect width="122.88" height="122.7" fill="white" transform="translate(12 13)"/>
</clipPath>
</defs>
</svg>
