<svg width="36" height="42" viewBox="0 0 36 42" fill="none" xmlns="http://www.w3.org/2000/svg">
<path fill-rule="evenodd" clip-rule="evenodd" d="M5 0.719971C2.23858 0.719971 0 2.95854 0 5.71997V37C0 39.7614 2.23858 42 5 42H31C33.7614 42 36 39.7614 36 37V5.71997C36 2.95855 33.7614 0.719971 31 0.719971H5ZM16.5177 5.04H19.0024V7.0613C19.4942 7.32013 20.7106 7.83774 21.6424 7.83774C22.5741 7.83774 23.8941 7.3201 24.4376 7.06127C24.8518 7.03539 25.68 7.20104 25.68 8.07068C25.68 9.15774 24.2824 10.0895 21.6424 10.0895C19.5419 10.0895 19.0082 9.78231 19.0024 9.62619V11.8003C19.6886 12.0655 21.386 12.596 22.6861 12.596C23.9862 12.596 25.8281 12.0655 26.5865 11.8003C27.1643 11.7738 28.32 11.9435 28.32 12.8347C28.32 13.9487 26.3698 14.9036 22.6861 14.9036C19.7529 14.9036 19.0093 14.5883 19.0024 14.4284V16.6144C19.6085 16.8797 21.1079 17.4101 22.2563 17.4101C23.4048 17.4101 25.0318 16.8796 25.7017 16.6144C26.2121 16.5879 27.233 16.7576 27.233 17.6488C27.233 18.7629 25.5103 19.7177 22.2563 19.7177C19.6615 19.7177 19.0066 19.4015 19.0024 19.2418V21.7392C19.5171 22.0044 20.7901 22.5349 21.7651 22.5349C22.7402 22.5349 24.1216 22.0044 24.6904 21.7391C25.1238 21.7126 25.9905 21.8824 25.9905 22.7736C25.9905 23.8876 24.5279 24.8425 21.7651 24.8425C19.5711 24.8425 19.0105 24.5288 19.0024 24.3686V28.367C20.991 28.2031 22.4961 27.6268 23.4011 27.2803L23.4011 27.2803L23.4011 27.2803L23.4012 27.2802L23.4014 27.2802L23.4014 27.2802C23.7733 27.1378 24.0438 27.0342 24.2048 27.0141C24.8259 26.9364 27.1554 27.0141 27.4659 29.8094C27.7387 32.2642 26.5143 32.8027 24.2661 33.7916L24.2659 33.7917L24.265 33.7921C23.9535 33.9291 23.6225 34.0747 23.273 34.2353C21.0169 35.2718 20.7719 35.7817 20.5451 36.2537C20.4831 36.3827 20.4225 36.5089 20.3224 36.6423C20.1075 36.9288 19.5555 37.0914 19.0024 37.1778V37.3412H16.5177V37.1205C16.079 37.0257 15.6826 36.8748 15.5083 36.6423C15.4082 36.5089 15.3476 36.3827 15.2856 36.2537C15.0588 35.7817 14.8137 35.2718 12.5577 34.2353C12.2084 34.0748 11.8774 33.9292 11.5661 33.7923L11.5659 33.7922L11.5647 33.7916L11.5645 33.7916C9.31636 32.8027 8.09198 32.2642 8.36475 29.8094C8.67533 27.0141 11.0048 26.9364 11.6259 27.0141C11.787 27.0342 12.0576 27.1378 12.4296 27.2803C13.2868 27.6085 14.6826 28.143 16.5177 28.3377V5.04ZM16.5176 7.13645C16.0259 7.39527 14.8094 7.91292 13.8776 7.91292C12.9459 7.91292 11.6259 7.39527 11.0824 7.13645C10.6682 7.11057 9.84 7.27621 9.84 8.14586C9.84 9.23292 11.2376 10.1647 13.8776 10.1647C15.9896 10.1647 16.5176 9.8541 16.5176 9.6988V7.13645ZM16.5176 11.8755C15.8315 12.1407 14.1341 12.6712 12.8339 12.6712C11.5338 12.6712 9.69193 12.1407 8.93352 11.8755C8.35568 11.8489 7.2 12.0187 7.2 12.9099C7.2 14.0239 9.1502 14.9788 12.8339 14.9788C15.7809 14.9788 16.5176 14.6605 16.5176 14.5014V11.8755ZM16.5176 16.6896C15.9115 16.9548 14.4121 17.4853 13.2637 17.4853C12.1152 17.4853 10.4882 16.9548 9.8183 16.6896C9.30788 16.6631 8.28703 16.8328 8.28703 17.724C8.28703 18.838 10.0097 19.7929 13.2637 19.7929C15.8668 19.7929 16.5176 19.4746 16.5176 19.3155V16.6896ZM16.5177 21.8143C16.0031 22.0795 14.73 22.61 13.7549 22.61C12.7798 22.61 11.3984 22.0795 10.8296 21.8143C10.3962 21.7878 9.52945 21.9575 9.52945 22.8487C9.52945 23.9628 10.9921 24.9176 13.7549 24.9176C15.9651 24.9176 16.5177 24.5993 16.5177 24.4402V21.8143ZM13.7224 31.5953C14.4943 31.5953 15.1201 30.9695 15.1201 30.1976C15.1201 29.4257 14.4943 28.8 13.7224 28.8C12.9505 28.8 12.3248 29.4257 12.3248 30.1976C12.3248 30.9695 12.9505 31.5953 13.7224 31.5953ZM24.2824 30.1976C24.2824 30.9695 23.6566 31.5953 22.8847 31.5953C22.1128 31.5953 21.4871 30.9695 21.4871 30.1976C21.4871 29.4257 22.1128 28.8 22.8847 28.8C23.6566 28.8 24.2824 29.4257 24.2824 30.1976ZM5.67045 3.86432H7.06783C7.40592 3.86432 7.68 3.59024 7.68 3.25214C7.68 2.91405 7.40592 2.63997 7.06783 2.63997H5.04C3.58197 2.63997 2.4 3.82194 2.4 5.27997V7.28952C2.4 7.63771 2.68226 7.91997 3.03045 7.91997C3.37863 7.91997 3.6609 7.63771 3.6609 7.28952V5.87387C3.6609 4.76403 4.5606 3.86432 5.67045 3.86432ZM7.06783 38.3756H5.67045C4.5606 38.3756 3.6609 37.4759 3.6609 36.3661V34.9504C3.6609 34.6022 3.37863 34.32 3.03045 34.32C2.68226 34.32 2.4 34.6022 2.4 34.9504V36.96C2.4 38.418 3.58197 39.6 5.04 39.6H7.06783C7.40592 39.6 7.68 39.3259 7.68 38.9878C7.68 38.6497 7.40592 38.3756 7.06783 38.3756ZM30.3295 3.86432H28.9322C28.5941 3.86432 28.32 3.59024 28.32 3.25214C28.32 2.91405 28.5941 2.63997 28.9322 2.63997H30.96C32.418 2.63997 33.6 3.82194 33.6 5.27997V7.28952C33.6 7.63771 33.3177 7.91997 32.9696 7.91997C32.6214 7.91997 32.3391 7.63771 32.3391 7.28952V5.87387C32.3391 4.76403 31.4394 3.86432 30.3295 3.86432ZM28.9322 38.3756H30.3295C31.4394 38.3756 32.3391 37.4759 32.3391 36.3661V34.9504C32.3391 34.6022 32.6214 34.32 32.9696 34.32C33.3177 34.32 33.6 34.6022 33.6 34.9504V36.96C33.6 38.418 32.418 39.6 30.96 39.6H28.9322C28.5941 39.6 28.32 39.3259 28.32 38.9878C28.32 38.6497 28.5941 38.3756 28.9322 38.3756Z" fill="#9DC41A"/>
</svg>
