<svg width="45" height="45" viewBox="0 0 45 45" fill="none" xmlns="http://www.w3.org/2000/svg">
<path fill-rule="evenodd" clip-rule="evenodd" d="M22.5 45C34.9264 45 45 34.9264 45 22.5C45 10.0736 34.9264 0 22.5 0C10.0736 0 0 10.0736 0 22.5C0 34.9264 10.0736 45 22.5 45ZM33 20C34.6569 20 36 18.6569 36 17C36 15.3431 34.6569 14 33 14C31.3431 14 30 15.3431 30 17C30 18.6569 31.3431 20 33 20ZM15 17C15 18.6569 13.6569 20 12 20C10.3431 20 9 18.6569 9 17C9 15.3431 10.3431 14 12 14C13.6569 14 15 15.3431 15 17ZM38.0612 30.9454C38.4228 30.5279 38.3177 29.9022 37.8682 29.5812C37.4188 29.2602 36.7958 29.3636 36.4279 29.7755C34.3944 32.052 29.6449 35.5812 22.8682 35.5812C16.1805 35.5812 12.0018 32.1443 10.2939 29.9128C9.95824 29.4742 9.34776 29.3072 8.86824 29.5812C8.38873 29.8552 8.22035 30.4668 8.54579 30.9131C10.5075 33.6029 15.2953 37.5812 22.8682 37.5812C30.4574 37.5812 35.7745 33.5862 38.0612 30.9454Z" fill="#90B515"/>
</svg>
