<svg width="58" height="53" viewBox="0 0 58 53" fill="none" xmlns="http://www.w3.org/2000/svg">
<path fill-rule="evenodd" clip-rule="evenodd" d="M33.8546 9.58165C33.8546 13.2609 35.6432 16.31 36.5374 17.3746C35.866 18.2379 35.444 19.0992 35.2068 19.9297H32.1938C30.7894 19.9297 29.7528 20.3173 29 20.8766C28.2472 20.3173 27.2105 19.9297 25.8062 19.9297H22.7932C22.556 19.0993 22.134 18.2379 21.4626 17.3746C22.3568 16.31 24.1454 13.261 24.1454 9.58167C24.1454 4.98256 20.4405 0.638943 14.8194 0.638943C9.19824 0.638943 0 6.89886 0 22.4848C0 38.0707 9.5815 42.6698 14.8194 42.6698C20.0573 42.6698 24.1454 37.5596 24.1454 34.4936C24.1454 31.4275 23.7621 28.6169 21.4626 26.0618C21.9169 25.5426 22.4404 24.6921 22.7562 23.6346H25.5507C26.0617 23.6346 27.0837 23.9923 27.0837 25.4231V39.4378C23.1111 39.9951 20.1389 42.2489 20.1389 44.9445C20.1389 47.7086 23.2643 50.0083 27.3889 50.4904V53H30.6111V50.4904C34.7357 50.0083 37.8611 47.7086 37.8611 44.9445C37.8611 42.2489 34.8889 39.9951 30.9163 39.4378V25.4231C30.9163 23.9922 31.9383 23.6345 32.4493 23.6345H35.2438C35.5596 24.6921 36.0831 25.5426 36.5374 26.0618C34.2379 28.6169 33.8546 31.4275 33.8546 34.4935C33.8546 37.5596 37.9427 42.6698 43.1806 42.6698C48.4185 42.6698 58 38.0706 58 22.4847C58 6.89883 48.8018 0.638916 43.1806 0.638916C37.5595 0.638916 33.8546 4.98253 33.8546 9.58165Z" fill="#9DC41A"/>
</svg>
