<svg width="65" height="75" viewBox="0 0 65 75" fill="none" xmlns="http://www.w3.org/2000/svg">
<path d="M58.0032 11.3978C57.9278 10.8334 57.757 10.2929 57.5011 9.80898L53.2319 1.84457C52.9288 1.27915 52.5105 0.813699 52.0158 0.491284C51.5212 0.168868 50.9661 -0.000103166 50.4019 4.72571e-08H41.7623L47.605 11.3982L58.0032 11.3978Z" fill="#9DC41A"/>
<path d="M11.6006 13.6778C11.6859 13.8134 11.7802 13.9438 11.8828 14.0683L30.1617 34.1945L22.3399 13.6778H11.6006Z" fill="#9DC41A"/>
<path d="M58.0032 13.6778C57.9286 13.8134 57.8462 13.9438 57.7564 14.0683L41.7623 34.1945L48.6064 13.6778H58.0032Z" fill="#9DC41A"/>
<path d="M38.7041 0H30.8616L25.7261 9.99416H37.0739C37.4509 9.99416 37.8124 10.1295 38.079 10.3704C38.3455 10.6113 38.4953 10.938 38.4953 11.2787C38.4953 11.6194 38.3455 11.9461 38.079 12.187C37.8124 12.4279 37.4509 12.5633 37.0739 12.5633H25.5214L34.8253 35.8967C34.8927 36.0658 35.0162 36.212 35.1789 36.3154C35.3416 36.4187 35.5357 36.4742 35.7346 36.4742C35.9335 36.4742 36.1275 36.4187 36.2903 36.3154C36.453 36.212 36.5765 36.0658 36.6439 35.8967L46.4026 11.4219L38.7041 0Z" fill="#9DC41A"/>
<path d="M27.8415 0H20.0136C19.3892 1.37834e-05 18.7749 0.169034 18.2275 0.491437C17.6801 0.81384 17.2172 1.27922 16.8816 1.84455L12.1566 9.80934C11.8732 10.2932 11.6841 10.8337 11.6006 11.3982H22.9109L27.8415 0Z" fill="#9DC41A"/>
<path d="M64.8476 42.1733C64.3836 41.4894 63.6875 41.0334 62.7595 41.0334C57.6552 41.0334 52.7829 43.3131 49.7668 47.4164L47.6786 50.152C45.1265 53.1155 41.1823 54.7112 37.2381 54.7112H30.2777C28.8856 54.7112 27.9576 53.7994 27.9576 52.4316C27.9576 51.0638 28.8856 50.152 30.2777 50.152H34.6859C38.3981 50.152 41.8783 47.1884 41.8783 43.541V43.3131C41.8783 42.1733 40.7183 41.0334 39.5582 41.0334H25.4054C17.0529 41.0334 10.3246 44.6809 6.61237 50.6079L0.348019 60.1824C-0.116006 60.8663 -0.116006 61.7781 0.348019 62.462L7.30841 73.8602C7.54042 74.3161 8.23646 74.772 8.70048 75C8.9325 75 8.9325 75 9.16451 75C9.62854 75 10.0926 74.772 10.5566 74.5441C19.3731 68.845 29.5816 65.8815 40.0222 65.8815C47.6786 65.8815 54.639 61.7781 58.3512 55.1672L64.6156 44.2249C65.0796 43.769 65.0796 42.8571 64.8476 42.1733Z" fill="#9DC41A"/>
</svg>
