<svg width="120" height="75" viewBox="0 0 120 75" fill="none" xmlns="http://www.w3.org/2000/svg">
<path d="M60 0C26.865 0 0 37.5 0 37.5C0 37.5 26.865 75 60 75C93.135 75 120 37.5 120 37.5C120 37.5 93.135 0 60 0ZM60 60C47.5725 60 37.5 49.9275 37.5 37.5C37.5 25.0725 47.5725 15 60 15C72.4275 15 82.5 25.0725 82.5 37.5C82.5 49.9275 72.4275 60 60 60Z" fill="#9DC41A"/>
<path d="M60 54.7881C69.548 54.7881 77.2881 47.048 77.2881 37.5C77.2881 33.1928 75.713 29.2535 73.1073 26.2267L63.0508 32.4153L66.6736 21.547C64.6202 20.687 62.3656 20.2119 60 20.2119C50.452 20.2119 42.7119 27.952 42.7119 37.5C42.7119 47.048 50.452 54.7881 60 54.7881Z" fill="#9DC41A"/>
</svg>
