<svg width="9" height="9" viewBox="0 0 9 9" fill="none" xmlns="http://www.w3.org/2000/svg">
<path fill-rule="evenodd" clip-rule="evenodd" d="M4.5 9C6.98528 9 9 6.98528 9 4.5C9 2.01472 6.98528 0 4.5 0C2.01472 0 0 2.01472 0 4.5C0 6.98528 2.01472 9 4.5 9ZM6.96115 2.8054C7.12022 2.97349 7.11327 3.23859 6.94561 3.39811L4.29297 5.92198C4.12411 6.08264 3.87328 6.12167 3.66359 6.01991L2.05468 5.23911C1.84651 5.13808 1.75928 4.8877 1.85962 4.6792C1.9602 4.47022 2.21115 4.38234 2.42013 4.48291L3.50342 5.00426C3.71235 5.10481 3.96166 5.06595 4.13007 4.90657L6.36767 2.78904C6.53607 2.62967 6.80179 2.637 6.96115 2.8054Z" fill="#9DC41A"/>
</svg>
