<svg width="158" height="44" viewBox="0 0 158 44" fill="none" xmlns="http://www.w3.org/2000/svg">
<rect x="0.5" y="0.5" width="157" height="43" fill="#587008" stroke="black"/>
<path d="M16.1582 17.0469V27H13.7588V17.0469H16.1582ZM20.0273 21.1895V23.0352H15.4746V21.1895H20.0273ZM20.417 17.0469V18.8994H15.4746V17.0469H20.417ZM24.3203 19.1387L21.8936 27H19.3164L22.9736 17.0469H24.6074L24.3203 19.1387ZM26.3301 27L23.8965 19.1387L23.582 17.0469H25.2363L28.9141 27H26.3301ZM26.2344 23.2881V25.1406H21.1279V23.2881H26.2344ZM36.2217 25.1543V27H31.1904V25.1543H36.2217ZM32.0449 17.0469V27H29.6455V17.0469H32.0449ZM44.083 25.1543V27H38.7783V25.1543H44.083ZM39.6328 17.0469V27H37.2334V17.0469H39.6328ZM43.3994 20.998V22.7822H38.7783V20.998H43.3994ZM44.1035 17.0469V18.8994H38.7783V17.0469H44.1035ZM54.2139 23.6299H56.6064C56.5745 24.3226 56.3877 24.9333 56.0459 25.4619C55.7041 25.9906 55.2301 26.403 54.624 26.6992C54.0225 26.9909 53.3115 27.1367 52.4912 27.1367C51.8258 27.1367 51.2311 27.0251 50.707 26.8018C50.1875 26.5785 49.7454 26.2572 49.3809 25.8379C49.0208 25.4186 48.7451 24.9105 48.5537 24.3135C48.3669 23.7165 48.2734 23.0443 48.2734 22.2969V21.7568C48.2734 21.0094 48.3714 20.3372 48.5674 19.7402C48.7679 19.1387 49.0505 18.6283 49.415 18.209C49.7842 17.7852 50.2262 17.4616 50.7412 17.2383C51.2562 17.015 51.8281 16.9033 52.457 16.9033C53.3229 16.9033 54.0544 17.0583 54.6514 17.3682C55.2484 17.6781 55.7109 18.1042 56.0391 18.6465C56.3672 19.1842 56.5609 19.7972 56.6201 20.4854H54.2275C54.2184 20.1117 54.1546 19.7995 54.0361 19.5488C53.9176 19.2936 53.7308 19.1022 53.4756 18.9746C53.2204 18.847 52.8809 18.7832 52.457 18.7832C52.1608 18.7832 51.9033 18.8379 51.6846 18.9473C51.4658 19.0566 51.2835 19.2298 51.1377 19.4668C50.9919 19.7038 50.8825 20.0114 50.8096 20.3896C50.7412 20.7633 50.707 21.2145 50.707 21.7432V22.2969C50.707 22.8255 50.7389 23.2767 50.8027 23.6504C50.8665 24.0241 50.9691 24.3294 51.1104 24.5664C51.2516 24.8034 51.4339 24.9788 51.6572 25.0928C51.8851 25.2021 52.1631 25.2568 52.4912 25.2568C52.8558 25.2568 53.1634 25.1999 53.4141 25.0859C53.6647 24.9674 53.8584 24.7897 53.9951 24.5527C54.1318 24.3112 54.2048 24.0036 54.2139 23.6299ZM66.1631 21.8252V22.2285C66.1631 22.9896 66.056 23.6732 65.8418 24.2793C65.6322 24.8809 65.3337 25.3958 64.9463 25.8242C64.5589 26.248 64.1009 26.5739 63.5723 26.8018C63.0436 27.0251 62.4603 27.1367 61.8223 27.1367C61.1797 27.1367 60.5918 27.0251 60.0586 26.8018C59.5299 26.5739 59.0697 26.248 58.6777 25.8242C58.2904 25.3958 57.9896 24.8809 57.7754 24.2793C57.5658 23.6732 57.4609 22.9896 57.4609 22.2285V21.8252C57.4609 21.0641 57.5658 20.3805 57.7754 19.7744C57.9896 19.1683 58.2881 18.6533 58.6709 18.2295C59.0583 17.8011 59.5163 17.4753 60.0449 17.252C60.5781 17.0241 61.166 16.9102 61.8086 16.9102C62.4466 16.9102 63.0299 17.0241 63.5586 17.252C64.0918 17.4753 64.5521 17.8011 64.9395 18.2295C65.3268 18.6533 65.6276 19.1683 65.8418 19.7744C66.056 20.3805 66.1631 21.0641 66.1631 21.8252ZM63.7295 22.2285V21.8115C63.7295 21.3193 63.6862 20.8864 63.5996 20.5127C63.5176 20.1344 63.3945 19.8177 63.2305 19.5625C63.0664 19.3073 62.8636 19.1159 62.6221 18.9883C62.3851 18.8561 62.1139 18.79 61.8086 18.79C61.4896 18.79 61.2116 18.8561 60.9746 18.9883C60.7376 19.1159 60.5394 19.3073 60.3799 19.5625C60.2204 19.8177 60.0996 20.1344 60.0176 20.5127C59.9401 20.8864 59.9014 21.3193 59.9014 21.8115V22.2285C59.9014 22.7161 59.9401 23.1491 60.0176 23.5273C60.0996 23.901 60.2204 24.2178 60.3799 24.4775C60.5439 24.7373 60.7445 24.9333 60.9814 25.0654C61.223 25.1976 61.5033 25.2637 61.8223 25.2637C62.1276 25.2637 62.3988 25.1976 62.6357 25.0654C62.8727 24.9333 63.071 24.7373 63.2305 24.4775C63.3945 24.2178 63.5176 23.901 63.5996 23.5273C63.6862 23.1491 63.7295 22.7161 63.7295 22.2285ZM75.7197 17.0469V27H73.3271L69.8066 20.8066V27H67.4072V17.0469H69.8066L73.3271 23.2402V17.0469H75.7197ZM85.6592 21.8252V22.2285C85.6592 22.9896 85.5521 23.6732 85.3379 24.2793C85.1283 24.8809 84.8298 25.3958 84.4424 25.8242C84.055 26.248 83.597 26.5739 83.0684 26.8018C82.5397 27.0251 81.9564 27.1367 81.3184 27.1367C80.6758 27.1367 80.0879 27.0251 79.5547 26.8018C79.026 26.5739 78.5658 26.248 78.1738 25.8242C77.7865 25.3958 77.4857 24.8809 77.2715 24.2793C77.0618 23.6732 76.957 22.9896 76.957 22.2285V21.8252C76.957 21.0641 77.0618 20.3805 77.2715 19.7744C77.4857 19.1683 77.7842 18.6533 78.167 18.2295C78.5544 17.8011 79.0124 17.4753 79.541 17.252C80.0742 17.0241 80.6621 16.9102 81.3047 16.9102C81.9427 16.9102 82.526 17.0241 83.0547 17.252C83.5879 17.4753 84.0482 17.8011 84.4355 18.2295C84.8229 18.6533 85.1237 19.1683 85.3379 19.7744C85.5521 20.3805 85.6592 21.0641 85.6592 21.8252ZM83.2256 22.2285V21.8115C83.2256 21.3193 83.1823 20.8864 83.0957 20.5127C83.0137 20.1344 82.8906 19.8177 82.7266 19.5625C82.5625 19.3073 82.3597 19.1159 82.1182 18.9883C81.8812 18.8561 81.61 18.79 81.3047 18.79C80.9857 18.79 80.7077 18.8561 80.4707 18.9883C80.2337 19.1159 80.0355 19.3073 79.876 19.5625C79.7165 19.8177 79.5957 20.1344 79.5137 20.5127C79.4362 20.8864 79.3975 21.3193 79.3975 21.8115V22.2285C79.3975 22.7161 79.4362 23.1491 79.5137 23.5273C79.5957 23.901 79.7165 24.2178 79.876 24.4775C80.04 24.7373 80.2406 24.9333 80.4775 25.0654C80.7191 25.1976 80.9993 25.2637 81.3184 25.2637C81.6237 25.2637 81.8949 25.1976 82.1318 25.0654C82.3688 24.9333 82.5671 24.7373 82.7266 24.4775C82.8906 24.2178 83.0137 23.901 83.0957 23.5273C83.1823 23.1491 83.2256 22.7161 83.2256 22.2285ZM92.0303 24.3545C92.0303 24.1995 92.0075 24.0605 91.9619 23.9375C91.9163 23.8099 91.832 23.6914 91.709 23.582C91.5859 23.4727 91.4082 23.3633 91.1758 23.2539C90.9479 23.14 90.6471 23.0215 90.2734 22.8984C89.8359 22.7526 89.4144 22.5885 89.0088 22.4062C88.6032 22.2194 88.2409 22.0029 87.9219 21.7568C87.6029 21.5062 87.3499 21.2145 87.1631 20.8818C86.9762 20.5446 86.8828 20.1527 86.8828 19.7061C86.8828 19.2777 86.9785 18.8926 87.1699 18.5508C87.3613 18.2044 87.6279 17.9105 87.9697 17.6689C88.3161 17.4229 88.7217 17.236 89.1865 17.1084C89.6514 16.9762 90.1595 16.9102 90.7109 16.9102C91.4401 16.9102 92.0827 17.0378 92.6387 17.293C93.1992 17.5436 93.6367 17.9014 93.9512 18.3662C94.2702 18.8265 94.4297 19.3711 94.4297 20H92.0439C92.0439 19.7493 91.9915 19.5283 91.8867 19.3369C91.7865 19.1455 91.6338 18.9951 91.4287 18.8857C91.2236 18.7764 90.9661 18.7217 90.6562 18.7217C90.3555 18.7217 90.1025 18.7673 89.8975 18.8584C89.6924 18.9495 89.5374 19.0726 89.4326 19.2275C89.3278 19.3779 89.2754 19.5443 89.2754 19.7266C89.2754 19.877 89.3164 20.0137 89.3984 20.1367C89.485 20.2552 89.6058 20.3669 89.7607 20.4717C89.9202 20.5765 90.1117 20.6768 90.335 20.7725C90.5628 20.8682 90.818 20.9616 91.1006 21.0527C91.6292 21.2214 92.0986 21.4105 92.5088 21.6201C92.9235 21.8252 93.2721 22.0599 93.5547 22.3242C93.8418 22.584 94.0583 22.8802 94.2041 23.2129C94.3545 23.5456 94.4297 23.9215 94.4297 24.3408C94.4297 24.7874 94.3431 25.1839 94.1699 25.5303C93.9967 25.8766 93.7484 26.1706 93.4248 26.4121C93.1012 26.6491 92.7139 26.8291 92.2627 26.9521C91.8115 27.0752 91.3079 27.1367 90.752 27.1367C90.2415 27.1367 89.738 27.0729 89.2412 26.9453C88.749 26.8132 88.3024 26.6126 87.9014 26.3438C87.5003 26.0703 87.179 25.7217 86.9375 25.2979C86.7005 24.8695 86.582 24.3613 86.582 23.7734H88.9883C88.9883 24.0651 89.027 24.3112 89.1045 24.5117C89.182 24.7122 89.2959 24.874 89.4463 24.9971C89.5967 25.1156 89.7812 25.2021 90 25.2568C90.2188 25.307 90.4694 25.332 90.752 25.332C91.0573 25.332 91.3034 25.2887 91.4902 25.2021C91.6771 25.111 91.8138 24.9925 91.9004 24.8467C91.987 24.6963 92.0303 24.5322 92.0303 24.3545ZM101.327 23.6299H103.72C103.688 24.3226 103.501 24.9333 103.159 25.4619C102.817 25.9906 102.343 26.403 101.737 26.6992C101.136 26.9909 100.425 27.1367 99.6045 27.1367C98.9391 27.1367 98.3444 27.0251 97.8203 26.8018C97.3008 26.5785 96.8587 26.2572 96.4941 25.8379C96.1341 25.4186 95.8584 24.9105 95.667 24.3135C95.4801 23.7165 95.3867 23.0443 95.3867 22.2969V21.7568C95.3867 21.0094 95.4847 20.3372 95.6807 19.7402C95.8812 19.1387 96.1637 18.6283 96.5283 18.209C96.8975 17.7852 97.3395 17.4616 97.8545 17.2383C98.3695 17.015 98.9414 16.9033 99.5703 16.9033C100.436 16.9033 101.168 17.0583 101.765 17.3682C102.362 17.6781 102.824 18.1042 103.152 18.6465C103.48 19.1842 103.674 19.7972 103.733 20.4854H101.341C101.332 20.1117 101.268 19.7995 101.149 19.5488C101.031 19.2936 100.844 19.1022 100.589 18.9746C100.334 18.847 99.9941 18.7832 99.5703 18.7832C99.2741 18.7832 99.0166 18.8379 98.7979 18.9473C98.5791 19.0566 98.3968 19.2298 98.251 19.4668C98.1051 19.7038 97.9958 20.0114 97.9229 20.3896C97.8545 20.7633 97.8203 21.2145 97.8203 21.7432V22.2969C97.8203 22.8255 97.8522 23.2767 97.916 23.6504C97.9798 24.0241 98.0824 24.3294 98.2236 24.5664C98.3649 24.8034 98.5472 24.9788 98.7705 25.0928C98.9984 25.2021 99.2764 25.2568 99.6045 25.2568C99.9691 25.2568 100.277 25.1999 100.527 25.0859C100.778 24.9674 100.972 24.7897 101.108 24.5527C101.245 24.3112 101.318 24.0036 101.327 23.6299ZM113.276 21.8252V22.2285C113.276 22.9896 113.169 23.6732 112.955 24.2793C112.745 24.8809 112.447 25.3958 112.06 25.8242C111.672 26.248 111.214 26.5739 110.686 26.8018C110.157 27.0251 109.574 27.1367 108.936 27.1367C108.293 27.1367 107.705 27.0251 107.172 26.8018C106.643 26.5739 106.183 26.248 105.791 25.8242C105.404 25.3958 105.103 24.8809 104.889 24.2793C104.679 23.6732 104.574 22.9896 104.574 22.2285V21.8252C104.574 21.0641 104.679 20.3805 104.889 19.7744C105.103 19.1683 105.401 18.6533 105.784 18.2295C106.172 17.8011 106.63 17.4753 107.158 17.252C107.691 17.0241 108.279 16.9102 108.922 16.9102C109.56 16.9102 110.143 17.0241 110.672 17.252C111.205 17.4753 111.665 17.8011 112.053 18.2295C112.44 18.6533 112.741 19.1683 112.955 19.7744C113.169 20.3805 113.276 21.0641 113.276 21.8252ZM110.843 22.2285V21.8115C110.843 21.3193 110.799 20.8864 110.713 20.5127C110.631 20.1344 110.508 19.8177 110.344 19.5625C110.18 19.3073 109.977 19.1159 109.735 18.9883C109.498 18.8561 109.227 18.79 108.922 18.79C108.603 18.79 108.325 18.8561 108.088 18.9883C107.851 19.1159 107.653 19.3073 107.493 19.5625C107.334 19.8177 107.213 20.1344 107.131 20.5127C107.053 20.8864 107.015 21.3193 107.015 21.8115V22.2285C107.015 22.7161 107.053 23.1491 107.131 23.5273C107.213 23.901 107.334 24.2178 107.493 24.4775C107.657 24.7373 107.858 24.9333 108.095 25.0654C108.336 25.1976 108.617 25.2637 108.936 25.2637C109.241 25.2637 109.512 25.1976 109.749 25.0654C109.986 24.9333 110.184 24.7373 110.344 24.4775C110.508 24.2178 110.631 23.901 110.713 23.5273C110.799 23.1491 110.843 22.7161 110.843 22.2285Z" fill="white"/>
<rect x="121" y="1" width="1" height="42" fill="white"/>
<path fill-rule="evenodd" clip-rule="evenodd" d="M149.738 20.0538C148.631 15.3222 144.503 12.1007 139.57 12C138.866 12 138.161 12.1007 137.557 12.2013C130.51 13.5101 126.987 21.1612 130.309 27.4028C130.409 27.6042 130.409 27.7048 130.409 27.9062C129.906 29.5169 129.503 31.1277 129 32.7384C129 33.0405 129 33.0405 129.201 32.9398C130.913 32.4364 132.624 32.0337 134.235 31.6311C134.336 31.6311 134.537 31.6311 134.638 31.6311C136.852 32.7384 139.067 33.0405 141.483 32.6378C147.322 31.5304 151.047 25.6914 149.738 20.0538ZM140.98 30.9263C140.476 31.027 139.973 31.027 139.772 31.027C137.96 31.027 136.45 30.6243 135.04 29.819C134.839 29.7183 134.738 29.6176 134.537 29.7183C133.631 29.9196 132.624 30.2216 131.718 30.423C131.517 30.5237 131.517 30.423 131.517 30.2216C131.819 29.3156 132.02 28.5102 132.221 27.6042C132.322 27.4028 132.221 27.2015 132.121 27.0001C130.208 23.8793 130.309 20.1544 132.423 17.2349C134.638 14.3155 137.658 13.1074 141.282 13.8121C144.805 14.5168 147.121 16.8323 147.926 20.3558C149.134 25.3894 145.913 30.121 140.98 30.9263Z" fill="white"/>
<path fill-rule="evenodd" clip-rule="evenodd" d="M142.188 27.4028C141.785 27.4028 141.483 27.4028 141.08 27.2015C138.664 26.4968 136.852 25.0874 135.443 23.0739C134.94 22.3692 134.336 21.5638 134.235 20.6578C134.033 19.5504 134.336 18.5437 135.242 17.839C135.544 17.537 136.349 17.4363 136.651 17.6376C136.752 17.7383 136.752 17.839 136.852 17.9397C137.154 18.6444 137.456 19.3491 137.758 20.0538C137.758 20.1544 137.758 20.3558 137.758 20.4565C137.557 20.7585 137.356 21.0605 137.154 21.3625C136.953 21.5638 136.953 21.7652 137.054 21.9665C137.96 23.3759 139.067 24.3827 140.577 24.9867C140.778 25.0874 140.98 25.0874 141.08 24.886C141.382 24.584 141.584 24.282 141.886 23.8793C142.087 23.678 142.288 23.678 142.49 23.678C142.993 23.8793 143.496 24.1813 144 24.3827C144.1 24.4833 144.201 24.4833 144.402 24.584C144.906 24.886 144.906 24.886 144.805 25.3894C144.705 26.4968 143.899 27.0001 142.892 27.3022C142.691 27.4028 142.49 27.4028 142.188 27.4028Z" fill="white"/>
</svg>
