<svg width="164" height="27" viewBox="0 0 164 27" fill="none" xmlns="http://www.w3.org/2000/svg">
<rect width="164" height="27" fill="#9DC41A"/>
<path fill-rule="evenodd" clip-rule="evenodd" d="M159.738 11.0538C158.631 6.32218 154.503 3.10067 149.57 3C148.866 3 148.161 3.10067 147.557 3.20134C140.51 4.51008 136.987 12.1612 140.309 18.4028C140.409 18.6042 140.409 18.7048 140.409 18.9062C139.906 20.5169 139.503 22.1277 139 23.7384C139 24.0405 139 24.0405 139.201 23.9398C140.913 23.4364 142.624 23.0337 144.235 22.6311C144.336 22.6311 144.537 22.6311 144.638 22.6311C146.852 23.7384 149.067 24.0405 151.483 23.6378C157.322 22.5304 161.047 16.6914 159.738 11.0538ZM150.98 21.9263C150.476 22.027 149.973 22.027 149.772 22.027C147.96 22.027 146.45 21.6243 145.04 20.819C144.839 20.7183 144.738 20.6176 144.537 20.7183C143.631 20.9196 142.624 21.2216 141.718 21.423C141.517 21.5237 141.517 21.423 141.517 21.2216C141.819 20.3156 142.02 19.5102 142.221 18.6042C142.322 18.4028 142.221 18.2015 142.121 18.0001C140.208 14.8793 140.309 11.1544 142.423 8.23495C144.638 5.31546 147.658 4.10739 151.282 4.8121C154.805 5.5168 157.121 7.83226 157.926 11.3558C159.134 16.3894 155.913 21.121 150.98 21.9263Z" fill="white"/>
<path fill-rule="evenodd" clip-rule="evenodd" d="M152.188 18.4028C151.785 18.4028 151.483 18.4028 151.08 18.2015C148.664 17.4968 146.852 16.0874 145.443 14.0739C144.94 13.3692 144.336 12.5638 144.235 11.6578C144.033 10.5504 144.336 9.54368 145.242 8.83898C145.544 8.53696 146.349 8.43629 146.651 8.63764C146.752 8.73831 146.752 8.83898 146.852 8.93965C147.154 9.64436 147.456 10.3491 147.758 11.0538C147.758 11.1544 147.758 11.3558 147.758 11.4565C147.557 11.7585 147.356 12.0605 147.154 12.3625C146.953 12.5638 146.953 12.7652 147.054 12.9665C147.96 14.3759 149.067 15.3827 150.577 15.9867C150.778 16.0874 150.98 16.0874 151.08 15.886C151.382 15.584 151.584 15.282 151.886 14.8793C152.087 14.678 152.288 14.678 152.49 14.678C152.993 14.8793 153.496 15.1813 154 15.3827C154.1 15.4833 154.201 15.4833 154.402 15.584C154.906 15.886 154.906 15.886 154.805 16.3894C154.705 17.4968 153.899 18.0001 152.892 18.3022C152.691 18.4028 152.49 18.4028 152.188 18.4028Z" fill="white"/>
<path d="M18.4746 9.04688V19H17.1553V9.04688H18.4746ZM22.6445 13.5244V14.6045H18.1875V13.5244H22.6445ZM23.3213 9.04688V10.127H18.1875V9.04688H23.3213ZM27.416 9.92871L24.1211 19H22.7744L26.5684 9.04688H27.4365L27.416 9.92871ZM30.1777 19L26.876 9.92871L26.8555 9.04688H27.7236L31.5312 19H30.1777ZM30.0068 15.3154V16.3955H24.415V15.3154H30.0068ZM38.9004 17.9268V19H33.9238V17.9268H38.9004ZM34.1836 9.04688V19H32.8643V9.04688H34.1836ZM46.7344 17.9268V19H41.4639V17.9268H46.7344ZM41.7305 9.04688V19H40.4111V9.04688H41.7305ZM46.0371 13.3262V14.3994H41.4639V13.3262H46.0371ZM46.666 9.04688V10.127H41.4639V9.04688H46.666ZM57.8496 15.835H59.1621C59.0938 16.4639 58.9137 17.0267 58.6221 17.5234C58.3304 18.0202 57.918 18.4144 57.3848 18.7061C56.8516 18.9932 56.1862 19.1367 55.3887 19.1367C54.8053 19.1367 54.2744 19.0273 53.7959 18.8086C53.3219 18.5898 52.9141 18.2799 52.5723 17.8789C52.2305 17.4733 51.9661 16.988 51.7793 16.4229C51.597 15.8532 51.5059 15.2197 51.5059 14.5225V13.5312C51.5059 12.834 51.597 12.2028 51.7793 11.6377C51.9661 11.068 52.2327 10.5804 52.5791 10.1748C52.93 9.76921 53.3516 9.45703 53.8438 9.23828C54.3359 9.01953 54.8896 8.91016 55.5049 8.91016C56.2568 8.91016 56.8926 9.05143 57.4121 9.33398C57.9316 9.61654 58.335 10.0085 58.6221 10.5098C58.9137 11.0065 59.0938 11.583 59.1621 12.2393H57.8496C57.7858 11.7744 57.6673 11.3757 57.4941 11.043C57.321 10.7057 57.0749 10.446 56.7559 10.2637C56.4368 10.0814 56.0199 9.99023 55.5049 9.99023C55.0628 9.99023 54.6732 10.0745 54.3359 10.2432C54.0033 10.4118 53.723 10.651 53.4951 10.9609C53.2718 11.2708 53.1032 11.6423 52.9893 12.0752C52.8753 12.5081 52.8184 12.9889 52.8184 13.5176V14.5225C52.8184 15.0101 52.8685 15.4681 52.9688 15.8965C53.0736 16.3249 53.2308 16.7008 53.4404 17.0244C53.6501 17.348 53.9167 17.6032 54.2402 17.79C54.5638 17.9723 54.9466 18.0635 55.3887 18.0635C55.9492 18.0635 56.3958 17.9746 56.7285 17.7969C57.0612 17.6191 57.3118 17.3639 57.4805 17.0312C57.6536 16.6986 57.7767 16.2998 57.8496 15.835ZM68.623 13.709V14.3379C68.623 15.0853 68.5296 15.7552 68.3428 16.3477C68.1559 16.9401 67.887 17.4437 67.5361 17.8584C67.1852 18.2731 66.7637 18.5898 66.2715 18.8086C65.7839 19.0273 65.237 19.1367 64.6309 19.1367C64.043 19.1367 63.5029 19.0273 63.0107 18.8086C62.5231 18.5898 62.0993 18.2731 61.7393 17.8584C61.3838 17.4437 61.1081 16.9401 60.9121 16.3477C60.7161 15.7552 60.6182 15.0853 60.6182 14.3379V13.709C60.6182 12.9616 60.7139 12.2939 60.9053 11.7061C61.1012 11.1136 61.377 10.61 61.7324 10.1953C62.0879 9.77604 62.5094 9.45703 62.9971 9.23828C63.4893 9.01953 64.0293 8.91016 64.6172 8.91016C65.2233 8.91016 65.7702 9.01953 66.2578 9.23828C66.75 9.45703 67.1715 9.77604 67.5225 10.1953C67.8779 10.61 68.1491 11.1136 68.3359 11.7061C68.5273 12.2939 68.623 12.9616 68.623 13.709ZM67.3174 14.3379V13.6953C67.3174 13.1029 67.2559 12.5788 67.1328 12.123C67.0143 11.6673 66.8389 11.2845 66.6064 10.9746C66.374 10.6647 66.0892 10.43 65.752 10.2705C65.4193 10.111 65.041 10.0312 64.6172 10.0312C64.207 10.0312 63.8356 10.111 63.5029 10.2705C63.1748 10.43 62.8923 10.6647 62.6553 10.9746C62.4229 11.2845 62.2428 11.6673 62.1152 12.123C61.9876 12.5788 61.9238 13.1029 61.9238 13.6953V14.3379C61.9238 14.9349 61.9876 15.4635 62.1152 15.9238C62.2428 16.3796 62.4251 16.7646 62.6621 17.0791C62.9036 17.389 63.1885 17.6237 63.5166 17.7832C63.8493 17.9427 64.2207 18.0225 64.6309 18.0225C65.0592 18.0225 65.4398 17.9427 65.7725 17.7832C66.1051 17.6237 66.3854 17.389 66.6133 17.0791C66.8457 16.7646 67.0212 16.3796 67.1396 15.9238C67.2581 15.4635 67.3174 14.9349 67.3174 14.3379ZM78.2549 9.04688V19H76.9287L71.918 11.3232V19H70.5986V9.04688H71.918L76.9492 16.7441V9.04688H78.2549ZM88.2559 13.709V14.3379C88.2559 15.0853 88.1624 15.7552 87.9756 16.3477C87.7887 16.9401 87.5199 17.4437 87.1689 17.8584C86.818 18.2731 86.3965 18.5898 85.9043 18.8086C85.4167 19.0273 84.8698 19.1367 84.2637 19.1367C83.6758 19.1367 83.1357 19.0273 82.6436 18.8086C82.1559 18.5898 81.7321 18.2731 81.3721 17.8584C81.0166 17.4437 80.7409 16.9401 80.5449 16.3477C80.349 15.7552 80.251 15.0853 80.251 14.3379V13.709C80.251 12.9616 80.3467 12.2939 80.5381 11.7061C80.734 11.1136 81.0098 10.61 81.3652 10.1953C81.7207 9.77604 82.1423 9.45703 82.6299 9.23828C83.1221 9.01953 83.6621 8.91016 84.25 8.91016C84.8561 8.91016 85.403 9.01953 85.8906 9.23828C86.3828 9.45703 86.8044 9.77604 87.1553 10.1953C87.5107 10.61 87.7819 11.1136 87.9688 11.7061C88.1602 12.2939 88.2559 12.9616 88.2559 13.709ZM86.9502 14.3379V13.6953C86.9502 13.1029 86.8887 12.5788 86.7656 12.123C86.6471 11.6673 86.4717 11.2845 86.2393 10.9746C86.0068 10.6647 85.722 10.43 85.3848 10.2705C85.0521 10.111 84.6738 10.0312 84.25 10.0312C83.8398 10.0312 83.4684 10.111 83.1357 10.2705C82.8076 10.43 82.5251 10.6647 82.2881 10.9746C82.0557 11.2845 81.8757 11.6673 81.748 12.123C81.6204 12.5788 81.5566 13.1029 81.5566 13.6953V14.3379C81.5566 14.9349 81.6204 15.4635 81.748 15.9238C81.8757 16.3796 82.0579 16.7646 82.2949 17.0791C82.5365 17.389 82.8213 17.6237 83.1494 17.7832C83.4821 17.9427 83.8535 18.0225 84.2637 18.0225C84.6921 18.0225 85.0726 17.9427 85.4053 17.7832C85.738 17.6237 86.0182 17.389 86.2461 17.0791C86.4785 16.7646 86.654 16.3796 86.7725 15.9238C86.891 15.4635 86.9502 14.9349 86.9502 14.3379ZM95.5361 16.4844C95.5361 16.252 95.4997 16.0469 95.4268 15.8691C95.3584 15.6868 95.2354 15.5228 95.0576 15.377C94.8844 15.2311 94.6429 15.0921 94.333 14.96C94.0277 14.8278 93.6403 14.6934 93.1709 14.5566C92.6787 14.4108 92.2344 14.249 91.8379 14.0713C91.4414 13.889 91.1019 13.6816 90.8193 13.4492C90.5368 13.2168 90.3203 12.9502 90.1699 12.6494C90.0195 12.3486 89.9443 12.0046 89.9443 11.6172C89.9443 11.2298 90.0241 10.8721 90.1836 10.5439C90.3431 10.2158 90.571 9.93099 90.8672 9.68945C91.168 9.44336 91.5257 9.25195 91.9404 9.11523C92.3551 8.97852 92.8177 8.91016 93.3281 8.91016C94.0755 8.91016 94.709 9.05371 95.2285 9.34082C95.7526 9.62337 96.1514 9.99479 96.4248 10.4551C96.6982 10.9108 96.835 11.3984 96.835 11.918H95.5225C95.5225 11.5443 95.4427 11.2139 95.2832 10.9268C95.1237 10.6351 94.8822 10.4072 94.5586 10.2432C94.235 10.0745 93.8249 9.99023 93.3281 9.99023C92.8587 9.99023 92.4714 10.0609 92.166 10.2021C91.8607 10.3434 91.6328 10.5348 91.4824 10.7764C91.3366 11.0179 91.2637 11.2936 91.2637 11.6035C91.2637 11.8132 91.307 12.0046 91.3936 12.1777C91.4847 12.3464 91.6237 12.5036 91.8105 12.6494C92.002 12.7952 92.2435 12.9297 92.5352 13.0527C92.8314 13.1758 93.1846 13.2943 93.5947 13.4082C94.1598 13.5677 94.6475 13.7454 95.0576 13.9414C95.4678 14.1374 95.805 14.3584 96.0693 14.6045C96.3382 14.846 96.5365 15.1217 96.6641 15.4316C96.7962 15.737 96.8623 16.0833 96.8623 16.4707C96.8623 16.8763 96.7803 17.2432 96.6162 17.5713C96.4521 17.8994 96.2174 18.1797 95.9121 18.4121C95.6068 18.6445 95.2399 18.8245 94.8115 18.9521C94.3877 19.0752 93.9137 19.1367 93.3896 19.1367C92.9294 19.1367 92.4759 19.0729 92.0293 18.9453C91.5872 18.8177 91.1839 18.6263 90.8193 18.3711C90.4593 18.1159 90.1699 17.8014 89.9512 17.4277C89.737 17.0495 89.6299 16.612 89.6299 16.1152H90.9424C90.9424 16.457 91.0085 16.751 91.1406 16.9971C91.2728 17.2386 91.4528 17.4391 91.6807 17.5986C91.9131 17.7581 92.1751 17.8766 92.4668 17.9541C92.763 18.027 93.0706 18.0635 93.3896 18.0635C93.8499 18.0635 94.2396 17.9997 94.5586 17.8721C94.8776 17.7445 95.1191 17.5622 95.2832 17.3252C95.4518 17.0882 95.5361 16.8079 95.5361 16.4844ZM104.553 15.835H105.865C105.797 16.4639 105.617 17.0267 105.325 17.5234C105.034 18.0202 104.621 18.4144 104.088 18.7061C103.555 18.9932 102.889 19.1367 102.092 19.1367C101.508 19.1367 100.978 19.0273 100.499 18.8086C100.025 18.5898 99.6172 18.2799 99.2754 17.8789C98.9336 17.4733 98.6693 16.988 98.4824 16.4229C98.3001 15.8532 98.209 15.2197 98.209 14.5225V13.5312C98.209 12.834 98.3001 12.2028 98.4824 11.6377C98.6693 11.068 98.9359 10.5804 99.2822 10.1748C99.6331 9.76921 100.055 9.45703 100.547 9.23828C101.039 9.01953 101.593 8.91016 102.208 8.91016C102.96 8.91016 103.596 9.05143 104.115 9.33398C104.635 9.61654 105.038 10.0085 105.325 10.5098C105.617 11.0065 105.797 11.583 105.865 12.2393H104.553C104.489 11.7744 104.37 11.3757 104.197 11.043C104.024 10.7057 103.778 10.446 103.459 10.2637C103.14 10.0814 102.723 9.99023 102.208 9.99023C101.766 9.99023 101.376 10.0745 101.039 10.2432C100.706 10.4118 100.426 10.651 100.198 10.9609C99.9749 11.2708 99.8063 11.6423 99.6924 12.0752C99.5785 12.5081 99.5215 12.9889 99.5215 13.5176V14.5225C99.5215 15.0101 99.5716 15.4681 99.6719 15.8965C99.7767 16.3249 99.9339 16.7008 100.144 17.0244C100.353 17.348 100.62 17.6032 100.943 17.79C101.267 17.9723 101.65 18.0635 102.092 18.0635C102.652 18.0635 103.099 17.9746 103.432 17.7969C103.764 17.6191 104.015 17.3639 104.184 17.0312C104.357 16.6986 104.48 16.2998 104.553 15.835ZM115.326 13.709V14.3379C115.326 15.0853 115.233 15.7552 115.046 16.3477C114.859 16.9401 114.59 17.4437 114.239 17.8584C113.888 18.2731 113.467 18.5898 112.975 18.8086C112.487 19.0273 111.94 19.1367 111.334 19.1367C110.746 19.1367 110.206 19.0273 109.714 18.8086C109.226 18.5898 108.802 18.2731 108.442 17.8584C108.087 17.4437 107.811 16.9401 107.615 16.3477C107.419 15.7552 107.321 15.0853 107.321 14.3379V13.709C107.321 12.9616 107.417 12.2939 107.608 11.7061C107.804 11.1136 108.08 10.61 108.436 10.1953C108.791 9.77604 109.213 9.45703 109.7 9.23828C110.192 9.01953 110.732 8.91016 111.32 8.91016C111.926 8.91016 112.473 9.01953 112.961 9.23828C113.453 9.45703 113.875 9.77604 114.226 10.1953C114.581 10.61 114.852 11.1136 115.039 11.7061C115.23 12.2939 115.326 12.9616 115.326 13.709ZM114.021 14.3379V13.6953C114.021 13.1029 113.959 12.5788 113.836 12.123C113.717 11.6673 113.542 11.2845 113.31 10.9746C113.077 10.6647 112.792 10.43 112.455 10.2705C112.122 10.111 111.744 10.0312 111.32 10.0312C110.91 10.0312 110.539 10.111 110.206 10.2705C109.878 10.43 109.595 10.6647 109.358 10.9746C109.126 11.2845 108.946 11.6673 108.818 12.123C108.691 12.5788 108.627 13.1029 108.627 13.6953V14.3379C108.627 14.9349 108.691 15.4635 108.818 15.9238C108.946 16.3796 109.128 16.7646 109.365 17.0791C109.607 17.389 109.892 17.6237 110.22 17.7832C110.552 17.9427 110.924 18.0225 111.334 18.0225C111.762 18.0225 112.143 17.9427 112.476 17.7832C112.808 17.6237 113.089 17.389 113.316 17.0791C113.549 16.7646 113.724 16.3796 113.843 15.9238C113.961 15.4635 114.021 14.9349 114.021 14.3379Z" fill="white"/>
<rect x="133" width="1" height="27" fill="white"/>
</svg>
