<svg width="239" height="163" viewBox="0 0 239 163" fill="none" xmlns="http://www.w3.org/2000/svg">
<path d="M0.0899658 134.79C0.639966 132.98 1.92997 131.78 3.96997 131.2C6.00997 130.62 8.50997 130.45 11.49 130.69C13.34 128.4 15.21 125.75 17.11 122.76C19.01 119.76 20.94 116.64 22.91 113.39C24.88 110.14 26.86 106.87 28.84 103.58C30.83 100.29 32.82 97.2 34.82 94.31C36.82 91.42 38.83 88.81 40.83 86.48C42.83 84.15 44.81 82.34 46.76 81.04C48.71 79.74 50.65 79.05 52.56 78.96C54.48 78.88 56.36 79.62 58.21 81.19C57.59 80.81 56.75 81.01 55.67 81.78C54.59 82.55 53.32 83.75 51.84 85.38C50.37 87.01 48.73 88.98 46.94 91.31C45.14 93.64 43.23 96.16 41.21 98.86C39.19 101.57 37.09 104.38 34.92 107.31C32.75 110.24 30.55 113.13 28.32 115.99C26.09 118.85 23.86 121.58 21.62 124.18C19.38 126.78 17.19 129.11 15.07 131.16C17.98 131.61 21.09 132.26 24.39 133.14C27.69 134.01 31.02 134.95 34.35 135.94C37.69 136.93 40.92 137.92 44.06 138.89C47.19 139.87 50.04 140.69 52.61 141.36C55.18 142.03 57.35 142.46 59.13 142.67C60.91 142.88 62.11 142.7 62.73 142.16C62.35 144.08 61.59 145.49 60.44 146.4C59.29 147.31 57.84 147.85 56.07 148.02C54.31 148.19 52.31 148.05 50.09 147.58C47.86 147.12 45.49 146.47 42.98 145.63C40.46 144.79 37.86 143.82 35.17 142.73C32.48 141.63 29.8 140.53 27.13 139.42C24.46 138.31 21.86 137.25 19.32 136.24C16.79 135.23 14.42 134.38 12.23 133.7C9.96996 135.65 7.83997 137.09 5.83997 138.01C3.83997 138.93 2.00997 139.17 0.369966 138.73C1.80997 138.8 3.28997 138.32 4.80997 137.29C6.32997 136.26 7.91997 134.82 9.55997 132.98C7.15997 132.4 5.12997 132.21 3.46997 132.42C1.83997 132.59 0.699966 133.39 0.0899658 134.79Z" fill="#9DC41A"/>
<path d="M61.97 104.75C63.85 104.75 65.23 105.12 66.1 105.85C66.97 106.58 67.45 107.56 67.54 108.78C67.62 110 67.35 111.38 66.72 112.94C66.09 114.5 65.22 116.08 64.13 117.69C63.03 119.3 61.74 120.88 60.25 122.44C58.76 124 57.19 125.39 55.55 126.6C53.91 127.82 52.23 128.79 50.52 129.53C48.81 130.27 47.16 130.63 45.59 130.63C43.95 130.63 42.69 130.26 41.82 129.53C40.95 128.8 40.39 127.82 40.15 126.6C39.91 125.39 39.98 124 40.36 122.44C40.74 120.88 41.37 119.3 42.26 117.69C43.15 116.08 44.26 114.5 45.6 112.94C46.94 111.38 48.45 110 50.15 108.78C51.85 107.56 53.69 106.59 55.7 105.85C57.69 105.12 59.78 104.75 61.97 104.75ZM44.82 129.5C45.61 129.5 46.57 129.17 47.7 128.5C48.83 127.83 50.03 126.94 51.3 125.83C52.57 124.72 53.84 123.46 55.13 122.06C56.41 120.66 57.63 119.21 58.78 117.72C59.93 116.23 60.95 114.78 61.86 113.38C62.77 111.98 63.45 110.72 63.91 109.6C64.37 108.49 64.56 107.6 64.47 106.93C64.38 106.26 63.95 105.93 63.16 105.93C62.41 105.93 61.47 106.26 60.36 106.93C59.25 107.6 58.07 108.49 56.82 109.6C55.57 110.71 54.29 111.97 52.97 113.38C51.65 114.78 50.42 116.23 49.27 117.72C48.12 119.21 47.1 120.66 46.19 122.06C45.28 123.46 44.59 124.72 44.11 125.83C43.63 126.94 43.42 127.83 43.49 128.5C43.55 129.17 44 129.5 44.82 129.5Z" fill="#9DC41A"/>
<path d="M66.24 130.63C65.08 129.74 64.34 128.74 64.03 127.63C63.72 126.52 63.7 125.35 63.98 124.14C64.25 122.92 64.73 121.67 65.42 120.39C66.1 119.11 66.87 117.84 67.73 116.59C68.59 115.34 69.46 114.12 70.35 112.94C71.24 111.76 72 110.65 72.64 109.63C73.27 108.6 73.72 107.69 73.98 106.88C74.24 106.07 74.16 105.42 73.75 104.9C74.67 104.69 75.6 104.51 76.52 104.36C77.44 104.21 78.26 104.17 78.96 104.26C79.66 104.35 80.17 104.59 80.48 105.01C80.79 105.43 80.76 106.08 80.4 106.99C80.04 107.9 79.3 109.1 78.17 110.58C77.04 112.06 75.38 113.94 73.19 116.2C74.83 114.63 76.57 113.07 78.4 111.53C80.23 109.99 82.01 108.66 83.74 107.55C85.47 106.44 87.07 105.65 88.54 105.19C90.01 104.73 91.21 104.79 92.14 105.37C93 105.92 93.42 106.59 93.42 107.4C93.42 108.21 93.15 109.12 92.6 110.15C92.05 111.18 91.3 112.27 90.34 113.44C89.38 114.61 88.37 115.8 87.31 117.04C86.25 118.27 85.21 119.51 84.2 120.76C83.19 122.01 82.35 123.23 81.68 124.41C81.01 125.59 80.61 126.71 80.47 127.77C80.33 128.83 80.59 129.79 81.24 130.65C79.08 129.52 77.59 128.35 76.77 127.13C75.95 125.92 75.61 124.7 75.74 123.48C75.88 122.27 76.38 121.05 77.26 119.83C78.13 118.62 79.17 117.43 80.37 116.29C81.57 115.14 82.82 114.06 84.12 113.03C85.42 112 86.57 111.06 87.56 110.21C88.55 109.35 89.29 108.6 89.77 107.95C90.25 107.3 90.27 106.79 89.82 106.41C89.48 106.14 88.72 106.27 87.56 106.82C86.4 107.37 85 108.19 83.37 109.28C81.74 110.38 80.01 111.67 78.16 113.16C76.31 114.65 74.55 116.18 72.87 117.76C71.98 118.75 71.09 119.71 70.2 120.64C69.31 121.56 68.51 122.47 67.79 123.36C66.66 124.8 65.91 126.12 65.53 127.32C65.21 128.53 65.45 129.64 66.24 130.63Z" fill="#9DC41A"/>
<path d="M115.59 111.68C114.87 111.58 114 112.15 112.97 113.4C111.94 114.65 110.77 116.31 109.45 118.38C108.13 120.45 106.68 122.79 105.11 125.39C103.53 127.99 101.85 130.61 100.05 133.25C98.25 135.89 96.36 138.39 94.38 140.77C92.39 143.15 90.32 145.14 88.17 146.75C86.01 148.36 83.8 149.44 81.52 149.99C79.24 150.54 76.92 150.31 74.56 149.32C72.99 148.67 71.91 147.83 71.32 146.8C70.74 145.77 70.52 144.74 70.68 143.69C70.83 142.65 71.29 141.67 72.04 140.76C72.79 139.85 73.73 139.17 74.86 138.71C75.99 138.25 77.24 138.09 78.61 138.25C79.98 138.4 81.35 139.03 82.72 140.13C82.04 139.82 81.27 139.76 80.43 139.95C79.59 140.14 78.78 140.47 77.99 140.95C77.2 141.43 76.49 142.01 75.86 142.7C75.23 143.38 74.75 144.08 74.42 144.78C74.09 145.48 73.98 146.14 74.06 146.76C74.15 147.38 74.55 147.87 75.27 148.25C76.67 149 78.08 149.23 79.48 148.92C80.88 148.61 82.27 147.92 83.64 146.84C85.01 145.76 86.36 144.37 87.7 142.65C89.03 140.94 90.38 139.07 91.73 137.05C93.08 135.03 94.43 132.93 95.79 130.76C97.14 128.59 98.49 126.47 99.82 124.42C98.96 125.24 98.13 125.97 97.3 126.6C96.48 127.23 95.68 127.72 94.91 128.06C94.14 128.4 93.41 128.59 92.73 128.62C92.04 128.66 91.39 128.48 90.78 128.11C89.86 127.53 89.28 126.65 89.06 125.47C88.84 124.29 88.91 122.96 89.29 121.49C89.67 120.02 90.31 118.46 91.22 116.82C92.13 115.18 93.26 113.59 94.61 112.07C95.96 110.55 97.49 109.16 99.21 107.91C100.92 106.66 102.77 105.68 104.76 104.96C106.51 104.34 108.12 104.02 109.61 103.98C111.1 103.95 112.35 104.16 113.36 104.62C114.37 105.08 115.09 105.78 115.52 106.7C115.95 107.62 115.97 108.72 115.6 109.99C115.6 109.34 115.48 108.76 115.24 108.24C115.03 107.8 114.68 107.41 114.16 107.08C113.65 106.75 112.89 106.61 111.9 106.64C110.7 106.71 109.34 107.18 107.82 108.05C106.3 108.92 104.76 110.03 103.2 111.36C101.64 112.7 100.14 114.16 98.71 115.75C97.28 117.34 96.06 118.89 95.06 120.4C94.07 121.91 93.37 123.27 92.98 124.48C92.59 125.7 92.66 126.58 93.21 127.12C93.45 127.39 93.96 127.33 94.73 126.94C95.5 126.55 96.39 125.94 97.4 125.12C98.41 124.3 99.47 123.34 100.58 122.24C101.69 121.14 102.75 120.01 103.74 118.85C104.7 117.62 105.67 116.5 106.64 115.49C107.62 114.48 108.6 113.65 109.59 113C110.58 112.35 111.58 111.91 112.57 111.67C113.56 111.44 114.57 111.44 115.59 111.68Z" fill="#9DC41A"/>
<path d="M135.68 134.79C136.23 132.98 137.52 131.78 139.56 131.2C141.6 130.62 144.11 130.45 147.08 130.69C148.93 128.4 150.8 125.75 152.7 122.76C154.6 119.76 156.53 116.64 158.5 113.39C160.47 110.14 162.45 106.87 164.43 103.58C166.42 100.29 168.41 97.2 170.41 94.31C172.41 91.42 174.42 88.81 176.42 86.48C178.42 84.15 180.4 82.34 182.35 81.04C184.3 79.74 186.24 79.05 188.15 78.96C190.07 78.88 191.95 79.62 193.8 81.19C193.18 80.81 192.34 81.01 191.26 81.78C190.18 82.55 188.91 83.75 187.43 85.38C185.96 87.01 184.32 88.98 182.53 91.31C180.73 93.64 178.82 96.16 176.8 98.86C174.78 101.57 172.68 104.38 170.51 107.31C168.34 110.24 166.14 113.13 163.91 115.99C161.68 118.85 159.45 121.58 157.21 124.18C154.97 126.78 152.78 129.11 150.66 131.16C153.57 131.61 156.68 132.26 159.98 133.14C163.28 134.01 166.61 134.95 169.94 135.94C173.28 136.93 176.51 137.92 179.65 138.89C182.78 139.87 185.63 140.69 188.2 141.36C190.77 142.03 192.94 142.46 194.72 142.67C196.5 142.88 197.7 142.7 198.32 142.16C197.94 144.08 197.18 145.49 196.03 146.4C194.88 147.31 193.43 147.85 191.66 148.02C189.9 148.19 187.9 148.05 185.68 147.58C183.45 147.12 181.08 146.47 178.57 145.63C176.05 144.79 173.45 143.82 170.76 142.73C168.07 141.63 165.39 140.53 162.72 139.42C160.05 138.31 157.45 137.25 154.91 136.24C152.38 135.23 150.01 134.38 147.82 133.7C145.56 135.65 143.43 137.09 141.43 138.01C139.43 138.93 137.6 139.17 135.96 138.73C137.4 138.8 138.88 138.32 140.4 137.29C141.92 136.26 143.51 134.82 145.15 132.98C142.75 132.4 140.72 132.21 139.06 132.42C137.43 132.59 136.29 133.39 135.68 134.79Z" fill="#555555"/>
<path d="M188.73 104.8C190.99 104.8 192.63 105.03 193.66 105.49C194.69 105.95 195.27 106.58 195.41 107.36C195.55 108.15 195.31 109.06 194.69 110.11C194.07 111.15 193.25 112.27 192.23 113.45C191.2 114.63 190.04 115.85 188.74 117.1C187.44 118.35 186.16 119.57 184.91 120.75C183.66 121.93 182.52 123.04 181.49 124.09C180.46 125.13 179.69 126.05 179.18 126.84C178.67 127.63 178.5 128.25 178.67 128.71C178.84 129.17 179.51 129.4 180.67 129.4C181.35 129.4 182.1 129.29 182.9 129.07C183.7 128.85 184.53 128.56 185.37 128.2C186.21 127.84 187.05 127.42 187.89 126.94C188.73 126.46 189.54 125.98 190.33 125.5C192.14 124.37 193.98 123.07 195.83 121.6C194.15 123.28 192.42 124.77 190.64 126.07C189.85 126.65 189.03 127.21 188.18 127.74C187.32 128.27 186.43 128.74 185.51 129.15C184.59 129.56 183.65 129.9 182.71 130.15C181.77 130.41 180.83 130.53 179.91 130.53C178.2 130.53 176.96 130.29 176.19 129.81C175.42 129.33 175.01 128.68 174.96 127.86C174.91 127.04 175.14 126.08 175.65 124.98C176.16 123.89 176.85 122.72 177.7 121.49C178.56 120.26 179.51 118.98 180.58 117.66C181.64 116.34 182.7 115.07 183.76 113.83C184.82 112.6 185.81 111.43 186.71 110.34C187.61 109.25 188.34 108.29 188.87 107.46C189.4 106.64 189.69 105.99 189.74 105.51C189.79 105.03 189.45 104.8 188.73 104.8ZM203.67 85.1299C205.52 85.6799 206.86 86.2499 207.7 86.8499C208.54 87.4499 209.01 88.0699 209.11 88.7199C209.21 89.3699 209.02 90.0299 208.52 90.6999C208.02 91.3699 207.37 92.0299 206.57 92.6799C205.77 93.3299 204.88 93.9599 203.93 94.5599C202.97 95.1599 202.07 95.7299 201.23 96.2799C200.39 96.8299 199.69 97.3299 199.12 97.7999C198.56 98.2599 198.27 98.6699 198.27 99.0099C197.52 98.5699 197.16 97.9499 197.19 97.1599C197.22 96.3699 197.46 95.5299 197.91 94.6199C198.36 93.7099 198.94 92.7699 199.66 91.7999C200.38 90.8199 201.06 89.8999 201.71 89.0299C202.36 88.1599 202.89 87.3799 203.3 86.6899C203.73 85.9899 203.85 85.4699 203.67 85.1299Z" fill="#555555"/>
<path d="M201.88 100.28C202.53 99.1802 203.54 98.3102 204.91 97.6602C206.28 97.0102 207.85 96.4802 209.63 96.0702C212.13 92.5402 214.61 89.3402 217.08 86.4702C219.55 83.5902 221.99 81.2802 224.4 79.5102C226.81 77.7502 229.17 76.6602 231.46 76.2502C233.75 75.8402 235.96 76.3502 238.09 77.7902C237.2 77.3802 236.09 77.5302 234.78 78.2302C233.46 78.9302 231.99 80.0502 230.36 81.5902C228.73 83.1302 226.96 85.0402 225.04 87.3202C223.12 89.6002 221.12 92.0902 219.03 94.7902C220.54 94.6502 221.99 94.5302 223.4 94.4102C224.8 94.2902 226.05 94.1402 227.15 93.9502C228.25 93.7602 229.16 93.5202 229.9 93.2302C230.64 92.9402 231.09 92.5502 231.26 92.0702C230.78 93.8902 230.05 95.2602 229.08 96.2002C228.1 97.1402 226.96 97.7902 225.64 98.1502C224.32 98.5102 222.87 98.6602 221.3 98.5902C219.72 98.5202 218.12 98.3802 216.47 98.1802C214.28 101.06 212.04 104.07 209.74 107.22C207.44 110.37 205.13 113.51 202.81 116.64C200.48 119.77 198.16 122.83 195.85 125.81C193.54 128.79 191.28 131.57 189.07 134.16C186.86 136.74 184.73 139.06 182.68 141.09C180.63 143.13 178.7 144.75 176.9 145.97C175.1 147.18 173.46 147.93 171.97 148.2C170.48 148.47 169.17 148.15 168.04 147.22C169.55 148.21 171.22 148.2 173.07 147.19C174.92 146.18 176.9 144.48 179.03 142.08C181.16 139.68 183.39 136.73 185.73 133.22C188.08 129.71 190.51 125.95 193.02 121.95C195.54 117.94 198.1 113.83 200.72 109.6C203.34 105.37 205.98 101.34 208.65 97.5102C207.21 97.5402 205.92 97.7602 204.77 98.1502C203.63 98.5402 202.66 99.2502 201.88 100.28Z" fill="#555555"/>
<path d="M213.12 122.37C212.74 122.37 212.31 122.31 211.81 122.19C211.31 122.07 210.83 121.93 210.35 121.75C209.77 122.81 209.34 123.8 209.07 124.73C208.8 125.65 208.72 126.47 208.84 127.17C208.96 127.87 209.31 128.42 209.89 128.81C210.47 129.2 211.33 129.4 212.46 129.4C213.86 129.4 215.35 129 216.93 128.19C218.51 127.39 219.96 126.49 221.3 125.49C222.87 124.36 224.43 123.06 225.97 121.59C224.63 123.27 223.21 124.76 221.71 126.06C220.41 127.19 218.92 128.22 217.24 129.14C215.56 130.06 213.8 130.53 211.95 130.53C210.17 130.53 208.77 130.15 207.74 129.37C206.71 128.6 206.01 127.59 205.63 126.34C205.25 125.09 205.17 123.66 205.37 122.05C205.58 120.44 206.04 118.81 206.76 117.14C207.48 115.48 208.43 113.85 209.61 112.24C210.79 110.63 212.14 109.2 213.67 107.95C215.19 106.7 216.88 105.69 218.73 104.92C220.58 104.15 222.53 103.76 224.59 103.76C226.37 103.76 227.68 104.22 228.52 105.15C229.36 106.07 229.79 107.22 229.8 108.59C229.82 109.96 229.44 111.45 228.67 113.06C227.9 114.67 226.79 116.16 225.36 117.53C223.92 118.9 222.17 120.05 220.1 120.97C218.01 121.9 215.69 122.37 213.12 122.37ZM226.68 105.42C225.93 105.42 224.87 105.9 223.52 106.86C222.17 107.82 220.73 109.04 219.21 110.53C217.69 112.02 216.18 113.66 214.69 115.46C213.2 117.26 211.94 119.01 210.91 120.72C211.29 120.89 211.63 121 211.94 121.05C212.25 121.1 212.57 121.13 212.92 121.13C213.91 121.13 215.02 120.74 216.23 119.97C217.44 119.2 218.64 118.23 219.8 117.07C220.96 115.91 222.06 114.64 223.09 113.27C224.12 111.9 224.97 110.63 225.66 109.47C226.34 108.31 226.8 107.34 227.02 106.57C227.24 105.8 227.13 105.42 226.68 105.42Z" fill="#555555"/>
<path fill-rule="evenodd" clip-rule="evenodd" d="M152.65 28.5205C156.25 44.7905 152.42 73.3105 123.9 77.8905C123 77.9505 132.77 59.5505 136.82 52.2505C131.43 58.6405 119 76.4405 118.69 75.2405C117.81 73.6705 117.11 72.1005 116.57 70.5105C116.98 70.6805 117.43 70.7705 117.9 70.7705C119.87 70.7705 121.46 69.1805 121.46 67.2105C121.46 65.2405 119.87 63.6505 117.9 63.6505C116.9 63.6505 116 64.0605 115.35 64.7305C113.9 48.1005 129.96 32.3605 152.65 28.5205Z" fill="#9DC41A"/>
<path fill-rule="evenodd" clip-rule="evenodd" d="M87.14 46.8203C87.05 59.1003 94.2 79.0503 115.46 77.9603C116.11 77.8703 106.25 66.1103 102.21 61.4803C107.08 65.2503 118.77 76.1603 118.81 75.2503C119.34 73.5603 119.63 71.9003 119.71 70.2903C119.18 70.6003 118.56 70.7803 117.9 70.7803C115.93 70.7803 114.34 69.1903 114.34 67.2203C114.34 65.2503 115.93 63.6603 117.9 63.6603C118.22 63.6603 118.53 63.7003 118.83 63.7803C115.39 53.3503 102.48 46.1603 87.14 46.8203Z" fill="#9DC41A"/>
<path fill-rule="evenodd" clip-rule="evenodd" d="M107.66 25.8203C104.23 31.3603 101.96 42.3903 111.91 47.7603C112.23 47.9003 111 39.8403 110.45 36.6303C111.62 39.6903 113.91 47.8603 114.18 47.4603C120.91 41.5203 117.2 31.0803 107.66 25.8203Z" fill="#9DC41A"/>
<path fill-rule="evenodd" clip-rule="evenodd" d="M80.24 69.9504C90.24 86.3404 109.87 95.3604 129.66 90.9804C154.56 85.4604 170.28 60.8004 164.77 35.9004C160.8 17.9804 146.92 4.82039 130.17 0.900391C142.65 6.25039 152.46 17.3304 155.62 31.6104C160.84 55.1604 145.97 78.4804 122.43 83.6904C106.37 87.2404 90.42 81.4604 80.24 69.9504Z" fill="#555555"/>
<path fill-rule="evenodd" clip-rule="evenodd" d="M134.03 77.4106C120.46 85.5406 102.78 85.2306 89.27 75.2506C71.33 62.0006 67.53 36.7206 80.78 18.7806C88.66 8.12062 100.78 2.45062 113.09 2.39062C111.93 2.54063 110.77 2.74062 109.6 3.00062C88.39 7.70062 75 28.7106 79.7 49.9306C84.4 71.1506 105.41 84.5406 126.63 79.8406C129.22 79.2606 131.69 78.4406 134.03 77.4106Z" fill="#9DC41A"/>
<path d="M34.02 162.92L32.2 158.72L31.47 162.69H30.79L31.98 156.61L34.02 161.44L36.06 156.61L37.25 162.69H36.57L35.83 158.72L34.02 162.92Z" fill="#555555"/>
<path d="M41.5701 162.691V156.851H44.6501V157.481H42.2601V159.161H44.6501V159.811H42.2601V162.051H44.6501V162.701H41.5701V162.691Z" fill="#555555"/>
<path d="M49.26 162.691V156.851H50.38C51.21 156.851 51.8 156.891 52.13 156.981C52.46 157.071 52.77 157.201 53.02 157.401C53.36 157.661 53.61 157.991 53.78 158.391C53.95 158.791 54.04 159.261 54.04 159.781C54.04 160.301 53.95 160.761 53.78 161.161C53.61 161.561 53.35 161.891 53.02 162.151C52.76 162.351 52.47 162.491 52.15 162.571C51.82 162.651 51.32 162.701 50.63 162.701H50.38H49.26V162.691ZM49.96 162.041H50.4C51.12 162.041 51.62 162.011 51.89 161.951C52.16 161.891 52.4 161.781 52.58 161.631C52.82 161.431 53 161.171 53.13 160.861C53.26 160.541 53.32 160.181 53.32 159.781C53.32 159.371 53.26 159.011 53.13 158.701C53.01 158.391 52.82 158.131 52.58 157.931C52.4 157.781 52.16 157.671 51.88 157.601C51.6 157.541 51.1 157.501 50.4 157.501H49.96V162.041Z" fill="#555555"/>
<path d="M58.62 162.691V156.851H59.31V162.691H58.62Z" fill="#555555"/>
<path d="M68.9 158.241C68.62 157.941 68.32 157.711 68.01 157.571C67.69 157.431 67.34 157.351 66.96 157.351C66.65 157.351 66.35 157.411 66.06 157.541C65.77 157.671 65.51 157.841 65.3 158.061C65.08 158.291 64.91 158.551 64.8 158.841C64.69 159.131 64.63 159.441 64.63 159.791C64.63 160.061 64.66 160.311 64.73 160.541C64.8 160.771 64.9 160.981 65.03 161.171C65.26 161.501 65.55 161.761 65.89 161.941C66.23 162.121 66.6 162.211 67 162.211C67.37 162.211 67.72 162.131 68.04 161.981C68.36 161.831 68.65 161.601 68.91 161.291V162.211C68.62 162.421 68.31 162.581 67.97 162.691C67.64 162.801 67.29 162.851 66.93 162.851C66.62 162.851 66.32 162.801 66.03 162.711C65.74 162.621 65.46 162.481 65.21 162.311C64.78 162.011 64.46 161.651 64.23 161.221C64 160.791 63.89 160.311 63.89 159.801C63.89 159.351 63.97 158.941 64.12 158.571C64.27 158.201 64.5 157.871 64.81 157.571C65.11 157.281 65.44 157.071 65.8 156.931C66.16 156.791 66.56 156.721 66.99 156.721C67.33 156.721 67.66 156.771 67.97 156.871C68.29 156.971 68.6 157.131 68.91 157.351V158.241H68.9Z" fill="#555555"/>
<path d="M73.52 162.691V156.851H74.21V162.691H73.52Z" fill="#555555"/>
<path d="M79.0601 162.69V156.61L83.3401 161.28V156.84H84.0001V162.91L79.7201 158.29V162.68H79.0601V162.69Z" fill="#555555"/>
<path d="M90.67 156.61L93.33 162.69H92.58L91.82 160.9H89.54L88.78 162.69H88.03L90.67 156.61ZM90.67 158.15L89.74 160.3H91.6L90.67 158.15Z" fill="#555555"/>
<path d="M112.13 160.071V162.691H111.45V156.851H112.68C113.11 156.851 113.42 156.871 113.63 156.921C113.83 156.961 114.01 157.041 114.16 157.141C114.35 157.271 114.49 157.461 114.6 157.691C114.7 157.921 114.76 158.181 114.76 158.461C114.76 158.741 114.71 159.001 114.6 159.231C114.49 159.461 114.35 159.641 114.16 159.781C114.01 159.891 113.84 159.961 113.64 160.011C113.44 160.051 113.12 160.081 112.69 160.081H112.49H112.13V160.071ZM112.13 159.441H112.48C113.08 159.441 113.48 159.371 113.68 159.231C113.89 159.091 113.99 158.851 113.99 158.501C113.99 158.131 113.88 157.871 113.67 157.711C113.46 157.561 113.06 157.481 112.47 157.481H112.12V159.441H112.13Z" fill="#555555"/>
<path d="M119.03 162.691V156.851H122.11V157.481H119.72V159.161H122.11V159.811H119.72V162.051H122.11V162.701H119.03V162.691Z" fill="#555555"/>
<path d="M126.72 162.691V156.851H128.09C128.48 156.851 128.77 156.871 128.95 156.921C129.13 156.961 129.29 157.041 129.43 157.141C129.6 157.281 129.74 157.461 129.83 157.691C129.93 157.921 129.97 158.171 129.97 158.451C129.97 158.931 129.84 159.291 129.57 159.541C129.3 159.791 128.91 159.911 128.39 159.911H128.27L130.5 162.701H129.62L127.49 159.911H127.39V162.701H126.72V162.691ZM127.4 157.431V159.391H127.93C128.47 159.391 128.84 159.321 129.02 159.181C129.2 159.041 129.3 158.801 129.3 158.451C129.3 158.071 129.21 157.811 129.02 157.661C128.83 157.511 128.47 157.431 127.94 157.431H127.4Z" fill="#555555"/>
<path d="M136.65 159.44C137.03 159.6 137.32 159.82 137.51 160.09C137.7 160.36 137.8 160.68 137.8 161.04C137.8 161.58 137.63 162.01 137.29 162.34C136.95 162.67 136.49 162.83 135.93 162.83C135.47 162.83 135.08 162.71 134.77 162.48C134.46 162.24 134.25 161.91 134.14 161.48L134.77 161.17C134.85 161.52 135 161.79 135.19 161.97C135.39 162.15 135.63 162.24 135.93 162.24C136.28 162.24 136.56 162.14 136.78 161.94C137 161.74 137.1 161.48 137.1 161.15C137.1 160.89 137.02 160.66 136.87 160.47C136.72 160.28 136.49 160.11 136.19 159.98L135.48 159.68C135.09 159.52 134.8 159.31 134.61 159.05C134.42 158.79 134.32 158.49 134.32 158.13C134.32 157.71 134.47 157.37 134.78 157.1C135.09 156.83 135.48 156.69 135.96 156.69C136.31 156.69 136.62 156.76 136.87 156.91C137.12 157.06 137.33 157.28 137.47 157.57L136.89 157.94C136.76 157.71 136.61 157.55 136.45 157.43C136.29 157.32 136.1 157.26 135.9 157.26C135.64 157.26 135.43 157.34 135.26 157.5C135.09 157.66 135.01 157.86 135.01 158.11C135.01 158.32 135.07 158.5 135.2 158.65C135.33 158.8 135.53 158.94 135.79 159.05L136.65 159.44Z" fill="#555555"/>
<path d="M148.14 159.781C148.14 160.201 148.06 160.591 147.91 160.961C147.76 161.331 147.53 161.661 147.23 161.951C146.93 162.241 146.59 162.461 146.21 162.621C145.83 162.781 145.43 162.851 145.01 162.851C144.6 162.851 144.2 162.771 143.82 162.621C143.44 162.461 143.1 162.241 142.8 161.951C142.5 161.661 142.27 161.331 142.12 160.961C141.96 160.591 141.89 160.201 141.89 159.781C141.89 159.361 141.97 158.971 142.12 158.601C142.28 158.231 142.5 157.901 142.8 157.611C143.09 157.321 143.43 157.111 143.82 156.951C144.2 156.801 144.6 156.721 145.01 156.721C145.43 156.721 145.83 156.801 146.21 156.951C146.59 157.101 146.93 157.321 147.23 157.611C147.53 157.901 147.75 158.231 147.91 158.601C148.06 158.961 148.14 159.361 148.14 159.781ZM145.01 162.191C145.33 162.191 145.63 162.131 145.92 162.011C146.21 161.891 146.47 161.711 146.7 161.481C146.93 161.251 147.1 160.991 147.22 160.701C147.34 160.411 147.4 160.101 147.4 159.781C147.4 159.451 147.34 159.141 147.22 158.851C147.1 158.561 146.93 158.291 146.7 158.071C146.47 157.841 146.21 157.671 145.92 157.551C145.63 157.431 145.33 157.371 145 157.371C144.67 157.371 144.37 157.431 144.08 157.551C143.79 157.671 143.53 157.841 143.31 158.071C143.08 158.301 142.91 158.561 142.79 158.861C142.67 159.151 142.61 159.461 142.61 159.791C142.61 160.111 142.67 160.421 142.79 160.711C142.91 161.001 143.08 161.261 143.32 161.491C143.55 161.721 143.81 161.901 144.1 162.021C144.39 162.131 144.69 162.191 145.01 162.191Z" fill="#555555"/>
<path d="M152.7 162.69V156.61L156.98 161.28V156.84H157.64V162.91L153.36 158.29V162.68H152.7V162.69Z" fill="#555555"/>
<path d="M164.31 156.61L166.97 162.69H166.22L165.46 160.9H163.18L162.42 162.69H161.67L164.31 156.61ZM164.31 158.15L163.38 160.3H165.24L164.31 158.15Z" fill="#555555"/>
<path d="M171 162.691V156.851H171.69V162.031H173.9V162.691H171Z" fill="#555555"/>
<path d="M178.16 162.691V156.851H178.85V162.691H178.16Z" fill="#555555"/>
<path d="M182.96 162.691L186.25 157.481H183.58V156.851H187.42L184.17 162.031H187.29V162.691H182.96Z" fill="#555555"/>
<path d="M193.6 156.61L196.26 162.69H195.51L194.75 160.9H192.47L191.71 162.69H190.96L193.6 156.61ZM193.6 158.15L192.67 160.3H194.53L193.6 158.15Z" fill="#555555"/>
<path d="M200.29 162.691V156.851H201.41C202.24 156.851 202.83 156.891 203.16 156.981C203.5 157.061 203.8 157.201 204.05 157.401C204.38 157.661 204.64 157.991 204.81 158.391C204.98 158.791 205.07 159.261 205.07 159.781C205.07 160.301 204.99 160.761 204.81 161.161C204.64 161.561 204.38 161.891 204.05 162.151C203.79 162.351 203.5 162.491 203.18 162.571C202.85 162.651 202.35 162.701 201.66 162.701H201.41H200.29V162.691ZM201 162.041H201.44C202.16 162.041 202.66 162.011 202.93 161.951C203.21 161.891 203.44 161.781 203.62 161.631C203.86 161.431 204.04 161.171 204.17 160.861C204.3 160.541 204.36 160.181 204.36 159.781C204.36 159.371 204.3 159.011 204.17 158.701C204.05 158.391 203.86 158.131 203.62 157.931C203.44 157.781 203.2 157.671 202.92 157.601C202.64 157.541 202.14 157.501 201.44 157.501H201V162.041Z" fill="#555555"/>
<path d="M211.36 156.61L214.02 162.69H213.27L212.51 160.9H210.23L209.47 162.69H208.72L211.36 156.61ZM211.36 158.15L210.43 160.3H212.29L211.36 158.15Z" fill="#555555"/>
</svg>
