<svg width="264" height="80" viewBox="0 0 264 80" fill="none" xmlns="http://www.w3.org/2000/svg">
<path d="M81.0248 50.1327C81.4361 48.7717 82.4009 47.8818 83.9265 47.4406C85.4522 47.0069 87.3219 46.8798 89.5506 47.0592C90.9341 45.3468 92.3327 43.3651 93.7536 41.1217C95.1746 38.8783 96.618 36.5451 98.0913 34.1148C99.5646 31.6844 101.045 29.2391 102.526 26.7788C104.014 24.3185 105.503 22.0078 106.998 19.8467C108.494 17.6855 109.997 15.7338 111.493 13.9914C112.989 12.249 114.47 10.8955 115.928 9.92333C117.386 8.95119 118.837 8.4352 120.266 8.3679C121.702 8.30808 123.108 8.86145 124.491 10.0355C124.028 9.75134 123.399 9.9009 122.592 10.4767C121.784 11.0525 120.834 11.9499 119.727 13.1688C118.628 14.3877 117.401 15.8609 116.063 17.6033C114.717 19.3457 113.288 21.2301 111.777 23.2492C110.267 25.2757 108.696 27.3771 107.073 29.5681C105.45 31.7592 103.805 33.9203 102.137 36.0591C100.47 38.1978 98.8018 40.2393 97.1265 42.1836C95.4513 44.1279 93.8135 45.8702 92.228 47.4107C94.4043 47.7397 96.7302 48.2333 99.1982 48.8914C101.666 49.542 104.157 50.2449 106.647 50.9852C109.145 51.7255 111.561 52.4659 113.909 53.1912C116.257 53.9166 118.381 54.5373 120.303 55.0308C122.225 55.5319 123.848 55.8534 125.179 56.0105C126.511 56.1675 127.408 56.0329 127.872 55.6291C127.587 57.0649 127.019 58.1193 126.159 58.7998C125.299 59.4803 124.215 59.8841 122.891 60.0112C121.575 60.1383 120.079 60.0336 118.419 59.6822C116.751 59.3382 114.978 58.8521 113.101 58.2239C111.224 57.5958 109.272 56.8704 107.26 56.0553C105.248 55.2402 103.244 54.4102 101.247 53.5801C99.2505 52.75 97.306 51.9574 95.4064 51.2021C93.5143 50.4468 91.7418 49.8112 90.104 49.3027C88.4138 50.7609 86.8208 51.8377 85.3251 52.5257C83.8293 53.2137 82.4607 53.3931 81.2342 53.0641C82.3111 53.1165 83.418 52.7575 84.5548 51.9873C85.6915 51.217 86.8806 50.1477 88.1072 48.7642C86.3123 48.3305 84.7941 48.1884 83.5526 48.338C82.3336 48.4801 81.481 49.0858 81.0248 50.1327Z" fill="#9DC41A"/>
<path d="M127.303 27.6687C128.709 27.6687 129.741 27.9454 130.392 28.4913C131.043 29.0447 131.402 29.77 131.469 30.6823C131.529 31.5947 131.327 32.6266 130.856 33.7932C130.385 34.9598 129.734 36.1413 128.919 37.3453C128.096 38.5492 127.131 39.7308 126.017 40.8973C124.903 42.0639 123.728 43.0959 122.502 44.0082C121.275 44.9205 120.019 45.6459 118.74 46.1993C117.461 46.7526 116.227 47.0219 115.053 47.0219C113.827 47.0219 112.884 46.7452 112.234 46.1993C111.583 45.6459 111.164 44.9205 110.985 44.0082C110.805 43.1034 110.858 42.0639 111.142 40.8973C111.426 39.7308 111.897 38.5492 112.563 37.3453C113.228 36.1413 114.058 34.9598 115.061 33.7932C116.063 32.6266 117.192 31.5947 118.463 30.6823C119.727 29.77 121.111 29.0447 122.614 28.4913C124.102 27.9454 125.665 27.6687 127.303 27.6687ZM114.477 46.1768C115.068 46.1768 115.786 45.9301 116.631 45.429C117.476 44.928 118.374 44.2625 119.323 43.4324C120.273 42.6023 121.223 41.6601 122.188 40.6057C123.145 39.5588 124.058 38.4745 124.918 37.3602C125.778 36.246 126.54 35.1617 127.221 34.1148C127.902 33.0678 128.41 32.1256 128.754 31.2955C129.098 30.4655 129.24 29.7999 129.173 29.2989C129.106 28.7979 128.784 28.5511 128.193 28.5511C127.632 28.5511 126.929 28.7979 126.099 29.2989C125.269 29.7999 124.387 30.4655 123.452 31.2955C122.517 32.1256 121.56 33.0678 120.572 34.1148C119.585 35.1617 118.665 36.246 117.805 37.3602C116.945 38.4745 116.182 39.5588 115.502 40.6057C114.821 41.6526 114.305 42.5949 113.946 43.4324C113.587 44.2625 113.43 44.928 113.483 45.429C113.527 45.9301 113.864 46.1768 114.477 46.1768Z" fill="#9DC41A"/>
<path d="M130.497 47.0218C129.629 46.3563 129.076 45.6085 128.844 44.7784C128.612 43.9484 128.597 43.0734 128.807 42.1686C129.008 41.2637 129.367 40.329 129.883 39.3643C130.392 38.4071 130.968 37.4574 131.611 36.5227C132.254 35.5879 132.905 34.6756 133.571 33.7932C134.236 32.9108 134.804 32.0807 135.283 31.318C135.754 30.5477 136.091 29.8672 136.285 29.2615C136.48 28.6633 136.42 28.1697 136.113 27.7809C136.801 27.6238 137.497 27.4892 138.185 27.377C138.873 27.2649 139.486 27.235 140.01 27.3023C140.533 27.3696 140.915 27.549 141.146 27.8631C141.378 28.1697 141.356 28.6633 141.087 29.3438C140.817 30.0243 140.264 30.9216 139.419 32.0359C138.574 33.1501 137.332 34.5485 135.694 36.2385C136.921 35.0645 138.222 33.8979 139.591 32.7463C140.96 31.5946 142.291 30.6001 143.585 29.77C144.878 28.9399 146.075 28.3492 147.174 28.0052C148.274 27.6612 149.171 27.7061 149.867 28.1398C150.51 28.5511 150.824 29.0521 150.824 29.6578C150.824 30.2561 150.622 30.9441 150.211 31.7143C149.799 32.4845 149.238 33.2996 148.521 34.1746C147.803 35.042 147.047 35.9394 146.254 36.8667C145.462 37.7865 144.684 38.7137 143.929 39.6485C143.173 40.5832 142.545 41.4881 142.044 42.378C141.543 43.2604 141.244 44.0979 141.139 44.8906C141.034 45.6833 141.229 46.4012 141.715 47.0443C140.099 46.1992 138.985 45.3243 138.372 44.412C137.759 43.5072 137.504 42.5948 137.602 41.6825C137.706 40.7777 138.08 39.8654 138.738 38.953C139.389 38.0482 140.167 37.1583 141.064 36.3058C141.962 35.4458 142.897 34.6382 143.869 33.868C144.841 33.0977 145.701 32.3948 146.441 31.7592C147.182 31.1161 147.735 30.5552 148.094 30.0691C148.453 29.5831 148.468 29.2017 148.132 28.9175C147.877 28.7156 147.309 28.8128 146.441 29.2241C145.574 29.6354 144.527 30.2486 143.308 31.0712C142.089 31.8938 140.795 32.8584 139.411 33.9727C138.028 35.0869 136.712 36.231 135.455 37.4126C134.79 38.1529 134.124 38.8708 133.458 39.5662C132.793 40.2542 132.194 40.9347 131.656 41.6003C130.811 42.6771 130.25 43.6642 129.966 44.5541C129.726 45.4514 129.906 46.2815 130.497 47.0218Z" fill="#9DC41A"/>
<path d="M167.404 32.851C166.866 32.7762 166.215 33.2024 165.445 34.1372C164.675 35.072 163.8 36.3133 162.812 37.8613C161.825 39.4092 160.741 41.1591 159.567 43.1034C158.385 45.0476 157.129 47.0069 155.782 48.9811C154.436 50.9553 153.023 52.8248 151.542 54.6046C150.054 56.3843 148.506 57.8725 146.898 59.0764C145.282 60.2804 143.629 61.088 141.924 61.4993C140.219 61.9106 138.484 61.7461 136.719 60.9983C135.545 60.5122 134.737 59.8841 134.296 59.1138C133.862 58.3436 133.698 57.5734 133.817 56.7882C133.929 56.0104 134.273 55.2776 134.834 54.5971C135.395 53.9166 136.098 53.4081 136.943 53.0641C137.789 52.7201 138.723 52.6005 139.748 52.7201C140.773 52.8323 141.797 53.3034 142.822 54.1185C142.313 53.8867 141.737 53.8418 141.109 53.9839C140.481 54.126 139.875 54.3728 139.284 54.7317C138.693 55.0907 138.162 55.5244 137.691 56.0404C137.22 56.5489 136.861 57.0723 136.614 57.5958C136.368 58.1192 136.285 58.6128 136.345 59.0764C136.412 59.5401 136.712 59.9065 137.25 60.1907C138.297 60.7515 139.352 60.9235 140.399 60.6917C141.446 60.4599 142.485 59.9439 143.51 59.1363C144.534 58.3286 145.544 57.2892 146.546 56.003C147.541 54.7242 148.55 53.3258 149.56 51.8153C150.57 50.3047 151.579 48.7343 152.596 47.1116C153.606 45.4889 154.616 43.9035 155.61 42.3705C154.967 42.9837 154.346 43.5296 153.726 44.0007C153.112 44.4718 152.514 44.8383 151.938 45.0925C151.362 45.3468 150.816 45.4889 150.308 45.5188C149.792 45.5412 149.306 45.4141 148.85 45.1374C148.162 44.7037 147.728 44.0456 147.563 43.1557C147.399 42.2733 147.451 41.2787 147.735 40.1794C148.019 39.0802 148.498 37.9136 149.179 36.6872C149.859 35.4608 150.704 34.2718 151.714 33.1351C152.724 31.9985 153.868 30.959 155.154 30.0243C156.433 29.0895 157.817 28.3567 159.305 27.8183C160.614 27.3546 161.818 27.1153 162.932 27.0854C164.046 27.063 164.981 27.22 165.737 27.564C166.492 27.908 167.03 28.4315 167.352 29.1194C167.674 29.8074 167.689 30.63 167.412 31.5797C167.412 31.0936 167.322 30.6599 167.143 30.2711C166.986 29.942 166.724 29.6504 166.335 29.4036C165.953 29.1568 165.385 29.0521 164.645 29.0746C163.747 29.1269 162.73 29.4784 161.593 30.129C160.457 30.7796 159.305 31.6096 158.138 32.6042C156.972 33.6063 155.85 34.6981 154.78 35.8871C153.703 37.0761 152.798 38.2352 152.05 39.3643C151.31 40.4935 150.787 41.5105 150.495 42.4154C150.203 43.3277 150.256 43.9858 150.667 44.3971C150.846 44.599 151.228 44.5541 151.804 44.2625C152.38 43.9708 153.045 43.5147 153.801 42.9015C154.556 42.2883 155.349 41.5704 156.179 40.7478C157.009 39.9327 157.802 39.0877 158.542 38.2127C159.26 37.2929 159.985 36.4554 160.711 35.7001C161.444 34.9448 162.177 34.3242 162.917 33.8381C163.658 33.352 164.405 33.0155 165.146 32.8435C165.886 32.6715 166.642 32.6715 167.404 32.851Z" fill="#9DC41A"/>
<path d="M182.422 50.1327C182.833 48.7717 183.798 47.8818 185.324 47.4406C186.849 47.0069 188.726 46.8798 190.948 47.0592C192.331 45.3468 193.73 43.3651 195.151 41.1217C196.572 38.8783 198.015 36.5451 199.488 34.1148C200.962 31.6844 202.442 29.2391 203.923 26.7788C205.411 24.3185 206.9 22.0078 208.395 19.8467C209.891 17.6855 211.394 15.7338 212.89 13.9914C214.386 12.249 215.867 10.8955 217.325 9.92333C218.783 8.95119 220.234 8.4352 221.663 8.3679C223.099 8.30808 224.505 8.86145 225.888 10.0355C225.425 9.75134 224.796 9.9009 223.989 10.4767C223.181 11.0525 222.231 11.9499 221.124 13.1688C220.025 14.3877 218.798 15.8609 217.46 17.6033C216.114 19.3457 214.685 21.2301 213.174 23.2492C211.664 25.2757 210.093 27.3771 208.47 29.5681C206.847 31.7592 205.202 33.9203 203.534 36.0591C201.867 38.1978 200.199 40.2393 198.524 42.1836C196.848 44.1279 195.21 45.8702 193.625 47.4107C195.801 47.7397 198.127 48.2333 200.595 48.8914C203.063 49.542 205.554 50.2449 208.044 50.9852C210.542 51.7255 212.958 52.4659 215.306 53.1912C217.654 53.9166 219.778 54.5373 221.7 55.0308C223.622 55.5319 225.245 55.8534 226.576 56.0105C227.908 56.1675 228.805 56.0329 229.269 55.6291C228.984 57.0649 228.416 58.1193 227.556 58.7998C226.696 59.4803 225.612 59.8841 224.288 60.0112C222.972 60.1383 221.476 60.0336 219.816 59.6822C218.155 59.3307 216.375 58.8521 214.498 58.2239C212.621 57.5958 210.669 56.8704 208.657 56.0553C206.645 55.2327 204.641 54.4102 202.644 53.5801C200.647 52.75 198.703 51.9574 196.803 51.2021C194.911 50.4468 193.139 49.8112 191.501 49.3027C189.811 50.7609 188.218 51.8377 186.722 52.5257C185.226 53.2137 183.858 53.3931 182.631 53.0641C183.708 53.1165 184.815 52.7575 185.952 51.9873C187.088 51.217 188.278 50.1477 189.504 48.7642C187.709 48.3305 186.191 48.1884 184.95 48.338C183.738 48.4801 182.885 49.0858 182.422 50.1327Z" fill="#555555"/>
<path d="M222.104 27.7061C223.794 27.7061 225.021 27.8781 225.791 28.222C226.561 28.566 226.995 29.0371 227.1 29.6204C227.205 30.2112 227.025 30.8917 226.561 31.6769C226.098 32.4546 225.484 33.2921 224.722 34.1746C223.951 35.057 223.084 35.9693 222.112 36.904C221.139 37.8388 220.182 38.7511 219.247 39.6335C218.312 40.5159 217.46 41.346 216.689 42.1312C215.919 42.9089 215.343 43.5969 214.962 44.1876C214.58 44.7784 214.453 45.242 214.58 45.5935C214.708 45.9375 215.209 46.1095 216.076 46.1095C216.585 46.1095 217.146 46.0272 217.744 45.8627C218.342 45.6982 218.963 45.4813 219.591 45.2121C220.219 44.9429 220.848 44.6288 221.476 44.2699C222.104 43.911 222.71 43.552 223.301 43.1931C224.654 42.348 226.03 41.3759 227.414 40.2766C226.158 41.5329 224.864 42.6472 223.532 43.6193C222.942 44.053 222.328 44.4718 221.693 44.8681C221.05 45.2645 220.384 45.6159 219.696 45.9225C219.008 46.2291 218.305 46.4759 217.602 46.6703C216.899 46.8648 216.196 46.962 215.508 46.962C214.229 46.962 213.302 46.7825 212.726 46.4236C212.15 46.0646 211.843 45.5786 211.806 44.9654C211.768 44.3522 211.94 43.6343 212.322 42.8117C212.703 41.9891 213.219 41.1216 213.855 40.2018C214.498 39.2821 215.209 38.3249 216.009 37.3378C216.802 36.3507 217.594 35.401 218.387 34.4737C219.18 33.5539 219.92 32.6789 220.593 31.8638C221.274 31.0413 221.812 30.3308 222.209 29.7102C222.605 29.097 222.822 28.6109 222.859 28.252C222.889 27.8855 222.643 27.7061 222.104 27.7061ZM233.277 12.9968C234.661 13.4081 235.663 13.8343 236.291 14.283C236.919 14.7317 237.271 15.1953 237.346 15.6814C237.421 16.1675 237.278 16.661 236.904 17.162C236.531 17.6631 236.044 18.1566 235.446 18.6427C234.848 19.1288 234.182 19.5999 233.472 20.0411C232.754 20.4898 232.081 20.916 231.452 21.3273C230.824 21.7386 230.301 22.1125 229.874 22.464C229.456 22.8079 229.239 23.1145 229.239 23.3688C228.678 23.0398 228.409 22.5761 228.431 21.9854C228.454 21.3946 228.633 20.7664 228.97 20.0859C229.306 19.4054 229.74 18.7025 230.278 17.9771C230.817 17.2443 231.325 16.5563 231.811 15.9057C232.298 15.2551 232.694 14.6718 233.001 14.1559C233.315 13.6324 233.404 13.251 233.277 12.9968Z" fill="#555555"/>
<path d="M231.939 24.326C232.425 23.5034 233.18 22.8528 234.205 22.3668C235.229 21.8807 236.403 21.4844 237.735 21.1778C239.604 18.538 241.459 16.145 243.306 13.9988C245.153 11.8452 246.978 10.1103 248.781 8.79414C250.583 7.47801 252.348 6.6629 254.061 6.3563C255.773 6.0497 257.426 6.43108 259.019 7.50792C258.353 7.20132 257.523 7.31349 256.544 7.83695C255.556 8.36041 254.457 9.19795 253.238 10.3496C252.019 11.5012 250.695 12.9295 249.259 14.6345C247.823 16.3395 246.328 18.2015 244.765 20.2206C245.894 20.1159 246.978 20.0261 248.033 19.9289C249.08 19.8392 250.015 19.727 250.837 19.5849C251.66 19.4429 252.341 19.2634 252.894 19.0465C253.447 18.8297 253.784 18.538 253.911 18.1791C253.552 19.5401 253.006 20.5646 252.281 21.2675C251.548 21.9704 250.695 22.4565 249.708 22.7257C248.721 22.9949 247.636 23.1071 246.462 23.0547C245.281 23.0024 244.084 22.8977 242.85 22.7481C241.212 24.9018 239.537 27.1527 237.817 29.5083C236.104 31.8639 234.369 34.212 232.634 36.5526C230.892 38.8932 229.156 41.1815 227.429 43.41C225.701 45.6384 224.011 47.7173 222.358 49.6541C220.705 51.5834 219.112 53.3183 217.579 54.8364C216.046 56.3619 214.603 57.5733 213.257 58.4857C211.91 59.3905 210.684 59.9514 209.57 60.1533C208.455 60.3552 207.476 60.1159 206.63 59.4204C207.76 60.1607 209.009 60.1533 210.392 59.398C211.776 58.6427 213.257 57.3714 214.85 55.5767C216.435 53.782 218.11 51.576 219.86 48.9512C221.618 46.3264 223.435 43.5146 225.312 40.5234C227.19 37.5322 229.112 34.4513 231.071 31.2881C233.03 28.1249 235.005 25.1112 237.002 22.2396C235.925 22.2621 234.96 22.4266 234.1 22.7182C233.247 23.0248 232.522 23.5558 231.939 24.326Z" fill="#555555"/>
<path d="M240.345 40.8375C240.06 40.8375 239.739 40.7926 239.365 40.7029C238.991 40.6131 238.632 40.501 238.273 40.3738C237.839 41.1665 237.518 41.9068 237.316 42.6023C237.114 43.2903 237.054 43.9035 237.144 44.4269C237.234 44.9504 237.495 45.3617 237.929 45.6533C238.363 45.945 239.006 46.0945 239.851 46.0945C240.898 46.0945 242.012 45.7954 243.194 45.1897C244.376 44.584 245.46 43.9184 246.462 43.1706C247.636 42.3256 248.803 41.3535 249.955 40.2542C248.953 41.5105 247.891 42.6247 246.769 43.5969C245.797 44.4419 244.682 45.2121 243.426 45.9001C242.169 46.5881 240.853 46.9396 239.47 46.9396C238.138 46.9396 237.091 46.6479 236.321 46.0721C235.551 45.4963 235.027 44.741 234.743 43.8063C234.459 42.8715 234.399 41.8022 234.549 40.5982C234.706 39.3942 235.05 38.1753 235.588 36.934C236.127 35.6926 236.837 34.4662 237.72 33.2697C238.602 32.0732 239.612 30.9964 240.756 30.0616C241.893 29.1269 243.157 28.3716 244.54 27.7958C245.924 27.22 247.382 26.9283 248.923 26.9283C250.254 26.9283 251.234 27.2723 251.862 27.9678C252.49 28.6558 252.812 29.5157 252.819 30.5402C252.834 31.5647 252.55 32.679 251.974 33.8829C251.398 35.0869 250.568 36.2011 249.499 37.2256C248.422 38.2501 247.113 39.1101 245.565 39.798C244.002 40.4935 242.267 40.8375 240.345 40.8375ZM250.486 28.1622C249.925 28.1622 249.132 28.5212 248.123 29.2391C247.113 29.9569 246.036 30.8693 244.899 31.9835C243.762 33.0977 242.633 34.3241 241.519 35.6702C240.405 37.0162 239.462 38.3249 238.692 39.6036C238.976 39.7307 239.23 39.813 239.462 39.8504C239.694 39.8878 239.933 39.9102 240.195 39.9102C240.936 39.9102 241.766 39.626 242.671 39.0428C243.576 38.4669 244.473 37.7416 245.34 36.8741C246.208 36.0067 247.031 35.057 247.801 34.0325C248.571 33.008 249.207 32.0583 249.723 31.1908C250.232 30.3234 250.576 29.598 250.74 29.0222C250.905 28.4539 250.822 28.1622 250.486 28.1622Z" fill="#555555"/>
<path fill-rule="evenodd" clip-rule="evenodd" d="M62.1709 27.063C64.8632 39.2297 61.9989 60.5571 40.6695 63.982C39.9964 64.0269 47.3031 50.2673 50.332 44.8084C46.301 49.5868 37.0049 62.8977 36.773 62.0004C36.1149 60.8263 35.5914 59.6523 35.1875 58.4633C35.4942 58.5904 35.8307 58.6577 36.1822 58.6577C37.6555 58.6577 38.8447 57.4687 38.8447 55.9955C38.8447 54.5223 37.6555 53.3333 36.1822 53.3333C35.4343 53.3333 34.7613 53.6399 34.2751 54.1409C33.1832 41.6975 45.1941 29.9346 62.1709 27.063Z" fill="#9DC41A"/>
<path fill-rule="evenodd" clip-rule="evenodd" d="M13.1701 40.7403C13.1028 49.9234 18.4501 64.842 34.35 64.0269C34.8361 63.9596 27.462 55.1655 24.4406 51.7031C28.0828 54.5223 36.8254 62.6809 36.8553 62.0004C37.2517 60.7366 37.4686 59.4952 37.5284 58.2913C37.132 58.5231 36.6684 58.6577 36.1748 58.6577C34.7015 58.6577 33.5123 57.4687 33.5123 55.9955C33.5123 54.5223 34.7015 53.3333 36.1748 53.3333C36.4141 53.3333 36.6459 53.3632 36.8703 53.4231C34.2976 45.631 24.6425 40.2468 13.1701 40.7403Z" fill="#9DC41A"/>
<path fill-rule="evenodd" clip-rule="evenodd" d="M28.5165 25.0365C25.9513 29.1793 24.2536 37.4276 31.695 41.4433C31.9343 41.548 31.0144 35.5207 30.6031 33.1203C31.4781 35.4085 33.1907 41.5181 33.3926 41.219C38.4258 36.7845 35.6512 28.9699 28.5165 25.0365Z" fill="#9DC41A"/>
<path fill-rule="evenodd" clip-rule="evenodd" d="M8.00977 58.0445C15.4885 70.301 30.1693 77.0462 44.9698 73.7708C63.5919 69.6429 75.3485 51.2021 71.2277 32.5818C68.2586 19.1812 57.8781 9.34008 45.3512 6.40869C54.6847 10.4094 62.0213 18.6951 64.3846 29.3663C68.2885 46.977 57.1676 64.4158 39.5626 68.3118C27.5518 70.974 15.6231 66.6517 8.00977 58.0445Z" fill="#555555"/>
<path fill-rule="evenodd" clip-rule="evenodd" d="M48.238 63.6232C38.0893 69.7028 24.8669 69.471 14.7631 62.0079C1.3462 52.0995 -1.49572 33.1876 8.4211 19.7794C14.3144 11.8079 23.3786 7.56782 32.585 7.52295C31.7174 7.63512 30.8499 7.78468 29.9749 7.97911C14.105 11.4938 4.0909 27.2051 7.60592 43.0735C11.1209 58.9344 26.8338 68.9475 42.7037 65.4328C44.6407 65.0066 46.488 64.3934 48.238 63.6232Z" fill="#9DC41A"/>
<path d="M106.393 69.785L105.032 66.6442L104.486 69.613H103.977L104.867 65.0663L106.393 68.6782L107.918 65.0663L108.808 69.613H108.3L107.746 66.6442L106.393 69.785Z" fill="#555555"/>
<path d="M112.047 69.613V65.2458H114.35V65.7169H112.563V66.9732H114.35V67.4593H112.563V69.1344H114.35V69.6204H112.047V69.613Z" fill="#555555"/>
<path d="M117.798 69.613V65.2458H118.635C119.256 65.2458 119.697 65.2757 119.944 65.343C120.191 65.4103 120.423 65.5075 120.61 65.6571C120.864 65.8515 121.051 66.0983 121.178 66.3974C121.305 66.6965 121.373 67.048 121.373 67.4369C121.373 67.8257 121.305 68.1697 121.178 68.4688C121.051 68.7679 120.857 69.0147 120.61 69.2091C120.415 69.3587 120.199 69.4634 119.959 69.5232C119.712 69.583 119.338 69.6204 118.822 69.6204H118.635H117.798V69.613ZM118.321 69.1269H118.65C119.189 69.1269 119.563 69.1045 119.765 69.0596C119.967 69.0147 120.146 68.9325 120.281 68.8203C120.46 68.6707 120.595 68.4763 120.692 68.2445C120.789 68.0052 120.834 67.736 120.834 67.4369C120.834 67.1303 120.789 66.861 120.692 66.6292C120.602 66.3974 120.46 66.203 120.281 66.0534C120.146 65.9412 119.967 65.859 119.757 65.8066C119.548 65.7618 119.174 65.7319 118.65 65.7319H118.321V69.1269Z" fill="#555555"/>
<path d="M124.798 69.613V65.2458H125.314V69.613H124.798Z" fill="#555555"/>
<path d="M132.486 66.2853C132.277 66.0609 132.052 65.8889 131.821 65.7843C131.581 65.6796 131.319 65.6197 131.035 65.6197C130.803 65.6197 130.579 65.6646 130.362 65.7618C130.145 65.859 129.951 65.9862 129.794 66.1507C129.629 66.3227 129.502 66.5171 129.42 66.734C129.338 66.9508 129.293 67.1826 129.293 67.4444C129.293 67.6463 129.315 67.8332 129.367 68.0052C129.42 68.1772 129.495 68.3343 129.592 68.4763C129.764 68.7231 129.981 68.9175 130.235 69.0521C130.489 69.1868 130.766 69.2541 131.065 69.2541C131.342 69.2541 131.604 69.1942 131.843 69.0821C132.082 68.9699 132.299 68.7979 132.494 68.5661V69.2541C132.277 69.4111 132.045 69.5307 131.791 69.613C131.544 69.6953 131.282 69.7327 131.013 69.7327C130.781 69.7327 130.557 69.6953 130.34 69.628C130.123 69.5607 129.913 69.456 129.726 69.3288C129.405 69.1045 129.166 68.8353 128.994 68.5137C128.822 68.1922 128.739 67.8332 128.739 67.4519C128.739 67.1153 128.799 66.8087 128.911 66.5321C129.023 66.2554 129.195 66.0086 129.427 65.7843C129.652 65.5674 129.898 65.4104 130.168 65.3057C130.437 65.201 130.736 65.1486 131.058 65.1486C131.312 65.1486 131.559 65.186 131.791 65.2608C132.03 65.3356 132.262 65.4552 132.494 65.6197V66.2853H132.486Z" fill="#555555"/>
<path d="M135.941 69.613V65.2458H136.457V69.613H135.941Z" fill="#555555"/>
<path d="M140.085 69.613V65.0663L143.285 68.5586V65.2383H143.779V69.7775L140.578 66.3227V69.6055H140.085V69.613Z" fill="#555555"/>
<path d="M148.767 65.0663L150.757 69.613H150.196L149.627 68.2744H147.922L147.354 69.613H146.793L148.767 65.0663ZM148.767 66.218L148.072 67.8257H149.463L148.767 66.218Z" fill="#555555"/>
<path d="M164.817 67.6537V69.613H164.308V65.2458H165.228C165.55 65.2458 165.782 65.2607 165.939 65.2981C166.088 65.328 166.223 65.3879 166.335 65.4627C166.477 65.5599 166.582 65.7019 166.664 65.8739C166.739 66.0459 166.784 66.2404 166.784 66.4498C166.784 66.6591 166.746 66.8536 166.664 67.0256C166.582 67.1976 166.477 67.3322 166.335 67.4369C166.223 67.5191 166.096 67.5715 165.946 67.6089C165.797 67.6388 165.557 67.6612 165.236 67.6612H165.086H164.817V67.6537ZM164.817 67.1826H165.079C165.527 67.1826 165.826 67.1303 165.976 67.0256C166.133 66.9209 166.208 66.7414 166.208 66.4797C166.208 66.203 166.126 66.0085 165.969 65.8889C165.811 65.7767 165.512 65.7169 165.071 65.7169H164.809V67.1826H164.817Z" fill="#555555"/>
<path d="M169.977 69.613V65.2458H172.281V65.7169H170.493V66.9732H172.281V67.4593H170.493V69.1344H172.281V69.6204H169.977V69.613Z" fill="#555555"/>
<path d="M175.728 69.613V65.2458H176.753C177.045 65.2458 177.261 65.2607 177.396 65.2981C177.531 65.328 177.65 65.3879 177.755 65.4627C177.882 65.5673 177.987 65.7019 178.054 65.8739C178.129 66.0459 178.159 66.2329 178.159 66.4423C178.159 66.8012 178.062 67.0704 177.86 67.2574C177.658 67.4443 177.366 67.5341 176.977 67.5341H176.887L178.555 69.6204H177.897L176.304 67.5341H176.229V69.6204H175.728V69.613ZM176.237 65.6795V67.1452H176.633C177.037 67.1452 177.314 67.0929 177.448 66.9882C177.583 66.8835 177.658 66.704 177.658 66.4423C177.658 66.1581 177.59 65.9637 177.448 65.8515C177.306 65.7393 177.037 65.6795 176.641 65.6795H176.237Z" fill="#555555"/>
<path d="M183.155 67.1901C183.439 67.3098 183.656 67.4743 183.798 67.6762C183.94 67.8781 184.015 68.1174 184.015 68.3866C184.015 68.7904 183.888 69.112 183.633 69.3588C183.379 69.6055 183.035 69.7252 182.616 69.7252C182.272 69.7252 181.981 69.6354 181.749 69.4634C181.517 69.284 181.36 69.0372 181.278 68.7156L181.749 68.4838C181.809 68.7456 181.921 68.9475 182.063 69.0821C182.212 69.2167 182.392 69.284 182.616 69.284C182.878 69.284 183.087 69.2092 183.252 69.0596C183.416 68.9101 183.491 68.7156 183.491 68.4689C183.491 68.2744 183.431 68.1024 183.319 67.9604C183.207 67.8183 183.035 67.6912 182.811 67.5939L182.28 67.3696C181.988 67.2499 181.771 67.0929 181.629 66.8985C181.487 66.7041 181.412 66.4797 181.412 66.2105C181.412 65.8964 181.524 65.6422 181.756 65.4403C181.988 65.2384 182.28 65.1337 182.639 65.1337C182.9 65.1337 183.132 65.186 183.319 65.2982C183.506 65.4104 183.663 65.5749 183.768 65.7917L183.334 66.0684C183.237 65.8964 183.125 65.7768 183.005 65.687C182.885 65.6048 182.743 65.5599 182.594 65.5599C182.399 65.5599 182.242 65.6197 182.115 65.7394C181.988 65.859 181.928 66.0086 181.928 66.1955C181.928 66.3526 181.973 66.4872 182.07 66.5994C182.167 66.7115 182.317 66.8162 182.512 66.8985L183.155 67.1901Z" fill="#555555"/>
<path d="M191.74 67.4369C191.74 67.751 191.68 68.0426 191.568 68.3193C191.456 68.596 191.284 68.8428 191.067 69.0596C190.843 69.2765 190.589 69.441 190.304 69.5607C190.02 69.6803 189.721 69.7327 189.407 69.7327C189.1 69.7327 188.801 69.6728 188.517 69.5607C188.233 69.441 187.978 69.2765 187.754 69.0596C187.53 68.8428 187.358 68.596 187.246 68.3193C187.126 68.0426 187.074 67.751 187.074 67.4369C187.074 67.1228 187.133 66.8312 187.246 66.5545C187.365 66.2778 187.53 66.031 187.754 65.8142C187.971 65.5973 188.225 65.4403 188.517 65.3206C188.801 65.2084 189.1 65.1486 189.407 65.1486C189.721 65.1486 190.02 65.2084 190.304 65.3206C190.589 65.4328 190.843 65.5973 191.067 65.8142C191.292 66.031 191.456 66.2778 191.568 66.5545C191.688 66.8237 191.74 67.1228 191.74 67.4369ZM189.407 69.2391C189.646 69.2391 189.871 69.1942 190.087 69.1045C190.304 69.0148 190.499 68.8802 190.671 68.7082C190.843 68.5362 190.97 68.3417 191.06 68.1249C191.149 67.908 191.194 67.6762 191.194 67.4369C191.194 67.1901 191.149 66.9583 191.06 66.7414C190.97 66.5246 190.843 66.3227 190.671 66.1582C190.499 65.9862 190.304 65.859 190.087 65.7693C189.871 65.6796 189.646 65.6347 189.399 65.6347C189.153 65.6347 188.928 65.6796 188.711 65.7693C188.495 65.859 188.3 65.9862 188.136 66.1582C187.964 66.3301 187.836 66.5246 187.747 66.7489C187.657 66.9658 187.612 67.1976 187.612 67.4444C187.612 67.6837 187.657 67.9155 187.747 68.1324C187.836 68.3492 187.964 68.5436 188.143 68.7156C188.315 68.8876 188.509 69.0222 188.726 69.112C188.936 69.1942 189.168 69.2391 189.407 69.2391Z" fill="#555555"/>
<path d="M195.158 69.613V65.0663L198.359 68.5586V65.2383H198.853V69.7775L195.652 66.3227V69.6055H195.158V69.613Z" fill="#555555"/>
<path d="M203.841 65.0663L205.83 69.613H205.269L204.701 68.2744H202.996L202.427 69.613H201.867L203.841 65.0663ZM203.841 66.218L203.145 67.8257H204.536L203.841 66.218Z" fill="#555555"/>
<path d="M208.844 69.613V65.2458H209.36V69.1194H211.013V69.613H208.844Z" fill="#555555"/>
<path d="M214.199 69.613V65.2458H214.715V69.613H214.199Z" fill="#555555"/>
<path d="M217.789 69.613L220.249 65.7169H218.252V65.2458H221.124L218.694 69.1194H221.027V69.613H217.789Z" fill="#555555"/>
<path d="M225.746 65.0663L227.736 69.613H227.175L226.606 68.2744H224.901L224.333 69.613H223.772L225.746 65.0663ZM225.746 66.218L225.051 67.8257H226.442L225.746 66.218Z" fill="#555555"/>
<path d="M230.749 69.613V65.2458H231.587C232.208 65.2458 232.649 65.2757 232.896 65.343C233.15 65.4028 233.374 65.5075 233.561 65.6571C233.808 65.8515 234.003 66.0983 234.13 66.3974C234.257 66.6965 234.324 67.048 234.324 67.4369C234.324 67.8257 234.264 68.1697 234.13 68.4688C234.003 68.7679 233.808 69.0147 233.561 69.2091C233.367 69.3587 233.15 69.4634 232.911 69.5232C232.664 69.583 232.29 69.6204 231.774 69.6204H231.587H230.749V69.613ZM231.28 69.1269H231.61C232.148 69.1269 232.522 69.1045 232.724 69.0596C232.933 69.0147 233.105 68.9325 233.24 68.8203C233.419 68.6707 233.554 68.4763 233.651 68.2445C233.748 68.0052 233.793 67.736 233.793 67.4369C233.793 67.1303 233.748 66.861 233.651 66.6292C233.561 66.3974 233.419 66.203 233.24 66.0534C233.105 65.9412 232.926 65.859 232.716 65.8066C232.507 65.7618 232.133 65.7319 231.61 65.7319H231.28V69.1269Z" fill="#555555"/>
<path d="M239.021 65.0663L241.01 69.613H240.449L239.881 68.2744H238.176L237.607 69.613H237.047L239.021 65.0663ZM239.021 66.218L238.325 67.8257H239.716L239.021 66.218Z" fill="#555555"/>
</svg>
