<svg width="324" height="231" viewBox="0 0 324 231" fill="none" xmlns="http://www.w3.org/2000/svg">
<path d="M9.06073 181.069C9.76361 178.757 11.4122 177.225 14.0192 176.484C16.6262 175.743 19.8211 175.526 23.6294 175.833C25.9936 172.908 28.3834 169.524 30.8115 165.706C33.2396 161.875 35.7061 157.891 38.2237 153.74C40.7412 149.59 43.2716 145.414 45.8019 141.213C48.3451 137.011 50.8882 133.065 53.4441 129.375C56 125.684 58.5687 122.351 61.1246 119.376C63.6805 116.4 66.2109 114.089 68.7029 112.429C71.1949 110.769 73.6741 109.888 76.115 109.773C78.5687 109.67 80.9713 110.615 83.3355 112.62C82.5432 112.135 81.4697 112.39 80.0895 113.374C78.7093 114.357 77.0863 115.89 75.1949 117.971C73.3163 120.053 71.2205 122.568 68.9329 125.544C66.6326 128.519 64.1917 131.737 61.6102 135.185C59.0288 138.646 56.3451 142.234 53.5719 145.976C50.7987 149.718 47.9872 153.408 45.1374 157.061C42.2876 160.713 39.4377 164.199 36.5751 167.519C33.7125 170.84 30.9138 173.815 28.2045 176.433C31.9233 177.008 35.8978 177.838 40.115 178.962C44.3323 180.073 48.5879 181.273 52.8435 182.537C57.1118 183.801 61.2396 185.066 65.2524 186.304C69.2524 187.556 72.8946 188.603 76.1789 189.459C79.4633 190.314 82.2365 190.863 84.5112 191.132C86.786 191.4 88.3195 191.17 89.1119 190.48C88.6262 192.932 87.655 194.733 86.1853 195.895C84.7157 197.057 82.8626 197.746 80.6007 197.964C78.3515 198.181 75.7956 198.002 72.9585 197.402C70.1087 196.814 67.0799 195.984 63.8722 194.911C60.6518 193.839 57.3291 192.6 53.8914 191.208C50.4537 189.803 47.0288 188.399 43.6166 186.981C40.2045 185.564 36.8818 184.21 33.6358 182.92C30.4026 181.63 27.3738 180.545 24.5751 179.677C21.6869 182.167 18.9649 184.006 16.409 185.181C13.8531 186.355 11.5144 186.662 9.41856 186.1C11.2588 186.189 13.1502 185.576 15.0927 184.261C17.0352 182.946 19.0671 181.107 21.163 178.757C18.0959 178.017 15.5016 177.774 13.3802 178.042C11.2972 178.259 9.84028 179.281 9.06073 181.069Z" fill="white"/>
<path d="M88.1406 142.707C90.5431 142.707 92.3067 143.18 93.4185 144.112C94.5304 145.044 95.1438 146.295 95.2588 147.853C95.361 149.411 95.016 151.174 94.2109 153.166C93.4058 155.158 92.2939 157.176 90.901 159.232C89.4952 161.288 87.8467 163.305 85.9425 165.298C84.0383 167.29 82.032 169.065 79.9361 170.61C77.8403 172.168 75.6933 173.407 73.508 174.352C71.3227 175.297 69.2141 175.756 67.2077 175.756C65.1118 175.756 63.5016 175.284 62.3898 174.352C61.278 173.419 60.5623 172.168 60.2556 170.61C59.9489 169.065 60.0384 167.29 60.524 165.298C61.0096 163.305 61.8147 161.288 62.9521 159.232C64.0895 157.176 65.508 155.158 67.2205 153.166C68.9329 151.174 70.8626 149.411 73.0352 147.853C75.2077 146.295 77.5591 145.057 80.1278 144.112C82.6709 143.18 85.3419 142.707 88.1406 142.707ZM66.2237 174.313C67.2332 174.313 68.4601 173.892 69.9042 173.036C71.3483 172.181 72.8818 171.044 74.5048 169.627C76.1278 168.209 77.7508 166.6 79.3994 164.812C81.0352 163.024 82.5943 161.173 84.0639 159.27C85.5336 157.367 86.8371 155.516 88 153.728C89.163 151.94 90.032 150.331 90.6198 148.901C91.2077 147.483 91.4505 146.347 91.3355 145.491C91.2205 144.635 90.6709 144.214 89.6614 144.214C88.7029 144.214 87.5016 144.635 86.0831 145.491C84.6645 146.347 83.1566 147.483 81.5591 148.901C79.9617 150.318 78.3259 151.927 76.639 153.728C74.9521 155.516 73.3802 157.367 71.9106 159.27C70.4409 161.173 69.1374 163.024 67.9745 164.812C66.8115 166.6 65.9297 168.209 65.3163 169.627C64.7029 171.044 64.4345 172.181 64.524 173.036C64.6007 173.892 65.1757 174.313 66.2237 174.313Z" fill="white"/>
<path d="M93.5975 175.756C92.1151 174.62 91.1694 173.343 90.7732 171.925C90.377 170.508 90.3515 169.014 90.7093 167.468C91.0544 165.91 91.6678 164.314 92.5496 162.68C93.4186 161.045 94.4026 159.423 95.5016 157.827C96.6007 156.231 97.7125 154.673 98.8499 153.166C99.9873 151.659 100.959 150.241 101.776 148.939C102.582 147.624 103.157 146.461 103.489 145.427C103.821 144.393 103.719 143.563 103.195 142.899C104.371 142.63 105.559 142.401 106.735 142.209C107.911 142.017 108.959 141.966 109.853 142.081C110.748 142.196 111.399 142.503 111.796 143.039C112.192 143.575 112.153 144.405 111.693 145.568C111.233 146.73 110.288 148.262 108.843 150.152C107.399 152.042 105.278 154.443 102.479 157.329C104.575 155.324 106.799 153.332 109.137 151.365C111.476 149.399 113.751 147.7 115.962 146.283C118.173 144.865 120.217 143.856 122.096 143.269C123.974 142.681 125.508 142.758 126.697 143.499C127.796 144.201 128.332 145.057 128.332 146.091C128.332 147.126 127.987 148.288 127.284 149.603C126.582 150.918 125.623 152.31 124.396 153.804C123.169 155.298 121.879 156.818 120.524 158.402C119.169 159.972 117.84 161.556 116.55 163.152C115.259 164.748 114.185 166.306 113.329 167.813C112.473 169.32 111.962 170.75 111.783 172.104C111.604 173.458 111.936 174.684 112.767 175.782C110.006 174.339 108.102 172.845 107.054 171.287C106.006 169.742 105.572 168.184 105.738 166.626C105.917 165.08 106.556 163.522 107.681 161.964C108.792 160.419 110.121 158.9 111.655 157.444C113.189 155.975 114.786 154.596 116.447 153.281C118.109 151.965 119.578 150.765 120.843 149.68C122.109 148.581 123.054 147.624 123.668 146.793C124.281 145.963 124.307 145.312 123.732 144.827C123.297 144.482 122.326 144.648 120.843 145.35C119.361 146.053 117.572 147.1 115.489 148.492C113.406 149.897 111.195 151.544 108.831 153.447C106.467 155.35 104.217 157.303 102.07 159.321C100.933 160.585 99.7956 161.811 98.6582 162.999C97.5208 164.174 96.4985 165.336 95.5783 166.472C94.1342 168.311 93.1758 169.997 92.6901 171.529C92.2812 173.075 92.5879 174.492 93.5975 175.756Z" fill="white"/>
<path d="M156.665 151.557C155.744 151.429 154.633 152.157 153.316 153.753C152 155.35 150.505 157.469 148.818 160.113C147.131 162.756 145.278 165.745 143.272 169.065C141.252 172.385 139.105 175.731 136.805 179.102C134.505 182.473 132.089 185.666 129.559 188.705C127.016 191.745 124.371 194.286 121.623 196.342C118.863 198.398 116.038 199.777 113.125 200.479C110.211 201.182 107.246 200.888 104.23 199.624C102.224 198.794 100.843 197.721 100.089 196.406C99.3483 195.09 99.0671 193.775 99.2716 192.434C99.4633 191.106 100.051 189.855 101.01 188.693C101.968 187.53 103.169 186.662 104.613 186.075C106.058 185.487 107.655 185.283 109.406 185.487C111.157 185.679 112.907 186.483 114.658 187.888C113.789 187.492 112.805 187.416 111.732 187.658C110.658 187.901 109.623 188.322 108.613 188.935C107.604 189.548 106.697 190.289 105.891 191.17C105.086 192.038 104.473 192.932 104.051 193.826C103.629 194.72 103.489 195.563 103.591 196.355C103.706 197.146 104.217 197.772 105.137 198.257C106.927 199.215 108.728 199.509 110.518 199.113C112.307 198.717 114.083 197.836 115.834 196.457C117.585 195.078 119.31 193.303 121.022 191.106C122.722 188.922 124.447 186.534 126.173 183.955C127.898 181.375 129.623 178.693 131.361 175.922C133.086 173.151 134.812 170.444 136.511 167.826C135.412 168.873 134.351 169.805 133.291 170.61C132.243 171.415 131.22 172.04 130.236 172.474C129.252 172.909 128.32 173.151 127.451 173.19C126.569 173.241 125.738 173.011 124.958 172.538C123.783 171.798 123.042 170.674 122.76 169.167C122.479 167.66 122.569 165.962 123.054 164.084C123.54 162.207 124.358 160.215 125.521 158.121C126.684 156.026 128.128 153.996 129.853 152.055C131.578 150.114 133.534 148.339 135.732 146.742C137.917 145.146 140.281 143.895 142.824 142.975C145.061 142.184 147.118 141.775 149.022 141.724C150.927 141.685 152.524 141.954 153.815 142.541C155.105 143.129 156.026 144.022 156.575 145.197C157.125 146.372 157.15 147.777 156.677 149.399C156.677 148.569 156.524 147.828 156.217 147.164C155.949 146.602 155.502 146.104 154.837 145.683C154.185 145.261 153.214 145.082 151.949 145.121C150.415 145.21 148.677 145.81 146.735 146.921C144.792 148.032 142.824 149.45 140.831 151.148C138.837 152.859 136.92 154.724 135.093 156.754C133.265 158.785 131.706 160.764 130.428 162.692C129.163 164.621 128.268 166.357 127.77 167.903C127.272 169.461 127.361 170.584 128.064 171.274C128.371 171.619 129.022 171.542 130.006 171.044C130.99 170.546 132.128 169.767 133.419 168.72C134.709 167.673 136.064 166.447 137.482 165.042C138.901 163.637 140.256 162.194 141.521 160.713C142.748 159.142 143.987 157.712 145.227 156.422C146.479 155.132 147.732 154.073 148.997 153.243C150.262 152.412 151.54 151.851 152.805 151.544C154.07 151.25 155.361 151.25 156.665 151.557Z" fill="white"/>
<path d="M182.339 181.069C183.041 178.757 184.69 177.225 187.297 176.484C189.904 175.743 193.112 175.526 196.907 175.833C199.272 172.908 201.661 169.524 204.089 165.706C206.518 161.875 208.984 157.891 211.502 153.74C214.019 149.59 216.549 145.414 219.08 141.213C221.623 137.011 224.166 133.065 226.722 129.375C229.278 125.684 231.847 122.351 234.403 119.376C236.958 116.4 239.489 114.089 241.981 112.429C244.473 110.769 246.952 109.888 249.393 109.773C251.847 109.67 254.249 110.615 256.613 112.62C255.821 112.135 254.748 112.39 253.367 113.374C251.987 114.357 250.364 115.89 248.473 117.971C246.594 120.053 244.498 122.568 242.211 125.544C239.911 128.519 237.47 131.737 234.888 135.185C232.307 138.646 229.623 142.234 226.85 145.976C224.077 149.718 221.265 153.408 218.415 157.061C215.565 160.713 212.716 164.199 209.853 167.519C206.99 170.84 204.192 173.815 201.482 176.433C205.201 177.008 209.176 177.838 213.393 178.962C217.61 180.073 221.866 181.273 226.121 182.537C230.39 183.801 234.518 185.066 238.53 186.304C242.53 187.556 246.172 188.603 249.457 189.459C252.741 190.314 255.514 190.863 257.789 191.132C260.064 191.4 261.597 191.17 262.39 190.48C261.904 192.932 260.933 194.733 259.463 195.895C257.994 197.057 256.141 197.746 253.879 197.964C251.629 198.181 249.073 198.002 246.236 197.402C243.387 196.814 240.358 195.984 237.15 194.911C233.93 193.839 230.607 192.6 227.169 191.208C223.732 189.803 220.307 188.399 216.895 186.981C213.482 185.564 210.16 184.21 206.914 182.92C203.68 181.63 200.652 180.545 197.853 179.677C194.965 182.167 192.243 184.006 189.687 185.181C187.131 186.355 184.792 186.662 182.696 186.1C184.537 186.189 186.428 185.576 188.371 184.261C190.313 182.946 192.345 181.107 194.441 178.757C191.374 178.017 188.78 177.774 186.658 178.042C184.575 178.259 183.118 179.281 182.339 181.069Z" fill="white"/>
<path d="M250.134 142.771C253.022 142.771 255.118 143.065 256.435 143.652C257.751 144.239 258.492 145.044 258.671 146.04C258.85 147.049 258.543 148.211 257.751 149.552C256.958 150.88 255.911 152.31 254.607 153.817C253.291 155.324 251.808 156.882 250.147 158.478C248.486 160.074 246.85 161.632 245.252 163.139C243.655 164.646 242.198 166.064 240.882 167.405C239.566 168.733 238.581 169.907 237.93 170.916C237.278 171.925 237.061 172.717 237.278 173.304C237.495 173.892 238.351 174.185 239.834 174.185C240.703 174.185 241.661 174.045 242.684 173.764C243.706 173.483 244.767 173.113 245.84 172.653C246.914 172.193 247.987 171.657 249.061 171.044C250.134 170.431 251.169 169.818 252.179 169.205C254.492 167.762 256.843 166.102 259.208 164.225C257.061 166.37 254.85 168.273 252.575 169.933C251.566 170.674 250.518 171.389 249.431 172.066C248.332 172.742 247.195 173.343 246.019 173.866C244.843 174.39 243.642 174.824 242.441 175.143C241.24 175.475 240.038 175.629 238.863 175.629C236.677 175.629 235.093 175.322 234.109 174.709C233.125 174.096 232.601 173.266 232.537 172.219C232.473 171.172 232.767 169.946 233.419 168.541C234.07 167.149 234.952 165.655 236.038 164.084C237.137 162.514 238.351 160.879 239.719 159.193C241.073 157.508 242.428 155.886 243.783 154.302C245.137 152.732 246.403 151.237 247.553 149.846C248.703 148.454 249.636 147.228 250.313 146.168C250.99 145.121 251.361 144.29 251.425 143.678C251.489 143.065 251.054 142.771 250.134 142.771ZM269.227 117.652C271.591 118.354 273.304 119.082 274.377 119.848C275.45 120.615 276.051 121.406 276.179 122.236C276.307 123.066 276.064 123.909 275.425 124.765C274.786 125.62 273.955 126.463 272.933 127.293C271.911 128.123 270.773 128.928 269.559 129.694C268.332 130.46 267.182 131.188 266.109 131.891C265.035 132.593 264.141 133.231 263.412 133.832C262.696 134.419 262.326 134.943 262.326 135.377C261.367 134.815 260.907 134.023 260.946 133.014C260.984 132.006 261.291 130.933 261.866 129.771C262.441 128.609 263.182 127.408 264.102 126.17C265.022 124.918 265.891 123.743 266.722 122.632C267.553 121.521 268.23 120.525 268.754 119.644C269.304 118.75 269.457 118.086 269.227 117.652Z" fill="white"/>
<path d="M266.939 136.999C267.77 135.594 269.061 134.483 270.812 133.653C272.562 132.823 274.569 132.146 276.844 131.623C280.038 127.115 283.208 123.028 286.364 119.363C289.521 115.685 292.639 112.735 295.719 110.475C298.799 108.228 301.815 106.836 304.741 106.312C307.668 105.788 310.492 106.44 313.214 108.279C312.077 107.755 310.658 107.947 308.984 108.841C307.297 109.734 305.419 111.165 303.336 113.131C301.252 115.098 298.99 117.537 296.537 120.449C294.083 123.36 291.527 126.54 288.856 129.988C290.786 129.809 292.639 129.656 294.441 129.503C296.23 129.349 297.828 129.158 299.233 128.915C300.639 128.673 301.802 128.366 302.748 127.996C303.693 127.626 304.268 127.127 304.486 126.515C303.872 128.839 302.939 130.588 301.7 131.789C300.447 132.989 298.99 133.819 297.304 134.279C295.617 134.739 293.764 134.93 291.757 134.841C289.738 134.751 287.693 134.572 285.585 134.317C282.786 137.995 279.923 141.839 276.984 145.861C274.045 149.884 271.093 153.894 268.128 157.891C265.15 161.888 262.185 165.796 259.233 169.601C256.281 173.407 253.393 176.957 250.569 180.264C247.744 183.559 245.022 186.522 242.403 189.114C239.783 191.719 237.316 193.788 235.016 195.346C232.716 196.891 230.62 197.849 228.716 198.194C226.812 198.538 225.137 198.13 223.693 196.942C225.623 198.206 227.757 198.194 230.121 196.904C232.486 195.614 235.016 193.443 237.738 190.378C240.46 187.313 243.31 183.546 246.3 179.064C249.304 174.582 252.409 169.78 255.617 164.672C258.837 159.551 262.109 154.302 265.457 148.901C268.805 143.499 272.179 138.352 275.591 133.461C273.751 133.5 272.102 133.781 270.633 134.279C269.176 134.777 267.936 135.684 266.939 136.999Z" fill="white"/>
<path d="M281.304 165.208C280.818 165.208 280.268 165.132 279.629 164.978C278.991 164.825 278.377 164.646 277.764 164.416C277.022 165.77 276.473 167.034 276.128 168.222C275.783 169.397 275.681 170.444 275.834 171.338C275.987 172.232 276.435 172.934 277.176 173.432C277.917 173.93 279.016 174.186 280.46 174.186C282.249 174.186 284.153 173.675 286.173 172.64C288.192 171.619 290.045 170.47 291.757 169.193C293.764 167.749 295.757 166.089 297.725 164.212C296.013 166.358 294.198 168.26 292.281 169.92C290.62 171.363 288.716 172.679 286.569 173.854C284.422 175.028 282.173 175.629 279.808 175.629C277.534 175.629 275.745 175.143 274.428 174.147C273.112 173.164 272.217 171.874 271.732 170.278C271.246 168.682 271.144 166.856 271.399 164.8C271.668 162.744 272.256 160.662 273.176 158.529C274.096 156.41 275.31 154.328 276.818 152.272C278.326 150.216 280.051 148.39 282.006 146.794C283.949 145.197 286.109 143.908 288.473 142.924C290.837 141.941 293.329 141.443 295.962 141.443C298.237 141.443 299.911 142.03 300.984 143.218C302.058 144.393 302.607 145.861 302.62 147.611C302.645 149.36 302.16 151.263 301.176 153.319C300.192 155.375 298.773 157.278 296.946 159.027C295.106 160.777 292.869 162.246 290.224 163.42C287.553 164.608 284.588 165.208 281.304 165.208ZM298.633 143.563C297.674 143.563 296.32 144.176 294.594 145.402C292.869 146.628 291.029 148.186 289.086 150.088C287.144 151.991 285.214 154.085 283.31 156.384C281.406 158.683 279.796 160.917 278.479 163.101C278.965 163.318 279.399 163.459 279.796 163.523C280.192 163.586 280.601 163.625 281.048 163.625C282.313 163.625 283.732 163.127 285.278 162.143C286.824 161.16 288.358 159.921 289.84 158.44C291.323 156.959 292.729 155.337 294.045 153.587C295.361 151.838 296.447 150.216 297.329 148.735C298.198 147.253 298.786 146.015 299.067 145.031C299.348 144.048 299.208 143.563 298.633 143.563Z" fill="white"/>
<path fill-rule="evenodd" clip-rule="evenodd" d="M204.026 45.3599C208.626 66.137 203.732 102.558 167.284 108.406C166.134 108.483 178.62 84.9858 183.796 75.6635C176.907 83.8237 161.022 106.555 160.626 105.022C159.502 103.017 158.607 101.012 157.917 98.9819C158.441 99.199 159.016 99.3139 159.617 99.3139C162.134 99.3139 164.166 97.2835 164.166 94.7677C164.166 92.252 162.134 90.2215 159.617 90.2215C158.339 90.2215 157.188 90.7451 156.358 91.6007C154.505 70.3639 175.029 50.2636 204.026 45.3599Z" fill="white"/>
<path fill-rule="evenodd" clip-rule="evenodd" d="M120.307 68.7289C120.192 84.4107 129.329 109.887 156.498 108.495C157.329 108.38 144.728 93.3626 139.566 87.45C145.789 92.2644 160.728 106.197 160.78 105.035C161.457 102.876 161.828 100.757 161.93 98.7005C161.252 99.0964 160.46 99.3263 159.617 99.3263C157.099 99.3263 155.067 97.2958 155.067 94.7801C155.067 92.2644 157.099 90.2339 159.617 90.2339C160.026 90.2339 160.422 90.285 160.805 90.3871C156.409 77.0678 139.911 67.8861 120.307 68.7289Z" fill="white"/>
<path fill-rule="evenodd" clip-rule="evenodd" d="M146.53 41.9116C142.147 48.9863 139.246 63.0718 151.962 69.9294C152.371 70.1082 150.799 59.8154 150.096 55.7162C151.591 59.6239 154.518 70.0571 154.863 69.5463C163.463 61.9608 158.722 48.6287 146.53 41.9116Z" fill="white"/>
<path fill-rule="evenodd" clip-rule="evenodd" d="M111.489 98.2665C124.268 119.197 149.355 130.716 174.645 125.122C206.466 118.073 226.556 86.5818 219.514 54.784C214.441 31.8999 196.703 15.0943 175.297 10.0884C191.246 16.9204 203.783 31.0698 207.821 49.3056C214.492 79.3794 195.489 109.16 165.406 115.813C144.882 120.346 124.498 112.965 111.489 98.2665Z" fill="white"/>
<path fill-rule="evenodd" clip-rule="evenodd" d="M180.23 107.793C162.888 118.175 140.294 117.779 123.029 105.035C100.102 88.1143 95.246 55.8313 112.179 32.9216C122.249 19.3085 137.738 12.0678 153.47 11.9912C151.987 12.1828 150.505 12.4382 149.01 12.7702C121.904 18.7722 104.792 45.6024 110.799 72.7007C116.805 99.7991 143.655 116.898 170.773 110.896C174.083 110.156 177.24 109.109 180.23 107.793Z" fill="white"/>
<path d="M25.1569 227.067L22.2511 220.366L21.0857 226.7H20L21.8999 217L25.1569 224.706L28.4139 217L30.3138 226.7H29.2281L28.0467 220.366L25.1569 227.067Z" fill="white"/>
<path d="M37.2109 226.7V217.383H42.1283V218.388H38.3126V221.068H42.1283V222.105H38.3126V225.679H42.1283V226.716H37.2109V226.7Z" fill="white"/>
<path d="M49.4885 226.7V217.383H51.2767C52.6018 217.383 53.5438 217.447 54.0706 217.59C54.5975 217.734 55.0924 217.941 55.4916 218.26C56.0344 218.675 56.4336 219.202 56.705 219.84C56.9764 220.478 57.1201 221.228 57.1201 222.057C57.1201 222.887 56.9764 223.621 56.705 224.259C56.4336 224.897 56.0184 225.424 55.4916 225.838C55.0765 226.157 54.6135 226.381 54.1026 226.508C53.5757 226.636 52.7774 226.716 51.6758 226.716H51.2767H49.4885V226.7ZM50.6061 225.663H51.3086C52.4581 225.663 53.2564 225.615 53.6875 225.519C54.1185 225.424 54.5017 225.248 54.7891 225.009C55.1723 224.69 55.4597 224.275 55.6672 223.78C55.8748 223.27 55.9706 222.695 55.9706 222.057C55.9706 221.403 55.8748 220.829 55.6672 220.334C55.4756 219.84 55.1723 219.425 54.7891 219.106C54.5017 218.867 54.1185 218.691 53.6715 218.579C53.2245 218.484 52.4262 218.42 51.3086 218.42H50.6061V225.663Z" fill="white"/>
<path d="M64.4323 226.7V217.383H65.5339V226.7H64.4323Z" fill="white"/>
<path d="M80.8448 219.6C80.3978 219.122 79.9188 218.755 79.4239 218.531C78.913 218.308 78.3542 218.18 77.7475 218.18C77.2526 218.18 76.7736 218.276 76.3106 218.483C75.8476 218.691 75.4325 218.962 75.0972 219.313C74.746 219.68 74.4746 220.095 74.2989 220.558C74.1233 221.02 74.0275 221.515 74.0275 222.073C74.0275 222.504 74.0754 222.903 74.1872 223.27C74.2989 223.637 74.4586 223.972 74.6661 224.275C75.0334 224.801 75.4964 225.216 76.0392 225.503C76.582 225.79 77.1727 225.934 77.8114 225.934C78.4021 225.934 78.9609 225.806 79.4718 225.567C79.9827 225.328 80.4457 224.961 80.8608 224.466V225.934C80.3978 226.269 79.9029 226.524 79.36 226.7C78.8332 226.875 78.2744 226.955 77.6996 226.955C77.2047 226.955 76.7257 226.875 76.2627 226.732C75.7997 226.588 75.3527 226.365 74.9535 226.094C74.267 225.615 73.7561 225.041 73.3889 224.355C73.0217 223.669 72.8461 222.903 72.8461 222.089C72.8461 221.371 72.9738 220.717 73.2133 220.127C73.4528 219.536 73.82 219.01 74.3149 218.531C74.7939 218.069 75.3207 217.734 75.8955 217.51C76.4703 217.287 77.1089 217.175 77.7954 217.175C78.3382 217.175 78.8651 217.255 79.36 217.415C79.8709 217.574 80.3659 217.829 80.8608 218.18V219.6H80.8448Z" fill="white"/>
<path d="M88.2209 226.7V217.383H89.3226V226.7H88.2209Z" fill="white"/>
<path d="M97.0658 226.7V217L103.899 224.45V217.367H104.953V227.051L98.1195 219.68V226.684H97.0658V226.7Z" fill="white"/>
<path d="M115.602 217L119.849 226.7H118.651L117.438 223.844H113.798L112.584 226.7H111.387L115.602 217ZM115.602 219.457L114.117 222.887H117.087L115.602 219.457Z" fill="white"/>
<path d="M149.864 222.52V226.7H148.778V217.383H150.742C151.429 217.383 151.924 217.415 152.259 217.494C152.578 217.558 152.866 217.686 153.105 217.845C153.408 218.053 153.632 218.356 153.807 218.723C153.967 219.09 154.063 219.505 154.063 219.951C154.063 220.398 153.983 220.813 153.807 221.18C153.632 221.547 153.408 221.834 153.105 222.057C152.866 222.233 152.594 222.344 152.275 222.424C151.955 222.488 151.445 222.536 150.758 222.536H150.439H149.864V222.52ZM149.864 221.515H150.423C151.381 221.515 152.019 221.403 152.339 221.18C152.674 220.956 152.834 220.574 152.834 220.015C152.834 219.425 152.658 219.01 152.323 218.755C151.987 218.516 151.349 218.388 150.407 218.388H149.848V221.515H149.864Z" fill="white"/>
<path d="M160.88 226.7V217.383H165.798V218.388H161.982V221.068H165.798V222.105H161.982V225.679H165.798V226.716H160.88V226.7Z" fill="white"/>
<path d="M173.158 226.7V217.383H175.345C175.968 217.383 176.431 217.415 176.718 217.494C177.005 217.558 177.261 217.686 177.484 217.845C177.756 218.069 177.979 218.356 178.123 218.723C178.283 219.09 178.347 219.489 178.347 219.935C178.347 220.701 178.139 221.276 177.708 221.674C177.277 222.073 176.654 222.265 175.824 222.265H175.632L179.193 226.716H177.788L174.387 222.265H174.227V226.716H173.158V226.7ZM174.243 218.308V221.435H175.09C175.952 221.435 176.542 221.323 176.83 221.1C177.117 220.877 177.277 220.494 177.277 219.935C177.277 219.329 177.133 218.914 176.83 218.675C176.526 218.436 175.952 218.308 175.106 218.308H174.243Z" fill="white"/>
<path d="M189.012 221.515C189.618 221.77 190.081 222.121 190.385 222.552C190.688 222.983 190.848 223.493 190.848 224.067C190.848 224.929 190.576 225.615 190.033 226.141C189.49 226.668 188.756 226.923 187.862 226.923C187.128 226.923 186.505 226.732 186.01 226.365C185.515 225.982 185.18 225.455 185.004 224.769L186.01 224.275C186.138 224.833 186.377 225.264 186.681 225.551C187 225.838 187.383 225.982 187.862 225.982C188.421 225.982 188.868 225.822 189.219 225.503C189.57 225.184 189.73 224.769 189.73 224.243C189.73 223.828 189.602 223.461 189.363 223.158C189.123 222.855 188.756 222.584 188.277 222.376L187.144 221.898C186.521 221.642 186.058 221.307 185.755 220.893C185.451 220.478 185.292 219.999 185.292 219.425C185.292 218.755 185.531 218.212 186.026 217.782C186.521 217.351 187.144 217.127 187.91 217.127C188.469 217.127 188.964 217.239 189.363 217.478C189.762 217.718 190.097 218.069 190.321 218.531L189.395 219.122C189.187 218.755 188.948 218.499 188.692 218.308C188.437 218.133 188.133 218.037 187.814 218.037C187.399 218.037 187.064 218.164 186.792 218.42C186.521 218.675 186.393 218.994 186.393 219.393C186.393 219.728 186.489 220.015 186.696 220.254C186.904 220.494 187.223 220.717 187.638 220.893L189.012 221.515Z" fill="white"/>
<path d="M207.356 222.057C207.356 222.727 207.228 223.349 206.989 223.94C206.749 224.53 206.382 225.057 205.903 225.519C205.424 225.982 204.881 226.333 204.275 226.588C203.668 226.843 203.029 226.955 202.359 226.955C201.704 226.955 201.066 226.827 200.459 226.588C199.852 226.333 199.309 225.982 198.83 225.519C198.351 225.057 197.984 224.53 197.745 223.94C197.489 223.349 197.378 222.727 197.378 222.057C197.378 221.387 197.505 220.765 197.745 220.175C198 219.584 198.351 219.058 198.83 218.595C199.293 218.133 199.836 217.797 200.459 217.542C201.066 217.303 201.704 217.175 202.359 217.175C203.029 217.175 203.668 217.303 204.275 217.542C204.881 217.782 205.424 218.133 205.903 218.595C206.382 219.058 206.733 219.584 206.989 220.175C207.228 220.749 207.356 221.387 207.356 222.057ZM202.359 225.902C202.87 225.902 203.349 225.806 203.812 225.615C204.275 225.423 204.69 225.136 205.057 224.769C205.424 224.402 205.696 223.988 205.887 223.525C206.079 223.062 206.175 222.568 206.175 222.057C206.175 221.531 206.079 221.036 205.887 220.573C205.696 220.111 205.424 219.68 205.057 219.329C204.69 218.962 204.275 218.691 203.812 218.499C203.349 218.308 202.87 218.212 202.343 218.212C201.816 218.212 201.337 218.308 200.874 218.499C200.411 218.691 199.996 218.962 199.645 219.329C199.277 219.696 199.006 220.111 198.814 220.589C198.623 221.052 198.527 221.547 198.527 222.073C198.527 222.584 198.623 223.078 198.814 223.541C199.006 224.004 199.277 224.418 199.661 224.785C200.028 225.152 200.443 225.439 200.906 225.631C201.369 225.806 201.848 225.902 202.359 225.902Z" fill="white"/>
<path d="M214.636 226.7V217L221.47 224.45V217.367H222.523V227.051L215.69 219.68V226.684H214.636V226.7Z" fill="white"/>
<path d="M233.172 217L237.419 226.7H236.222L235.008 223.844H231.368L230.155 226.7H228.957L233.172 217ZM233.172 219.457L231.688 222.887H234.657L233.172 219.457Z" fill="white"/>
<path d="M243.853 226.7V217.383H244.955V225.647H248.483V226.7H243.853Z" fill="white"/>
<path d="M255.285 226.7V217.383H256.386V226.7H255.285Z" fill="white"/>
<path d="M262.948 226.7L268.201 218.388H263.938V217.383H270.069L264.88 225.647H269.861V226.7H262.948Z" fill="white"/>
<path d="M279.935 217L284.182 226.7H282.985L281.772 223.844H278.131L276.918 226.7H275.721L279.935 217ZM279.935 219.457L278.451 222.887H281.42L279.935 219.457Z" fill="white"/>
<path d="M290.616 226.7V217.383H292.405C293.73 217.383 294.672 217.447 295.199 217.59C295.741 217.718 296.22 217.941 296.62 218.26C297.146 218.675 297.561 219.202 297.833 219.84C298.104 220.478 298.248 221.228 298.248 222.057C298.248 222.887 298.12 223.621 297.833 224.259C297.561 224.897 297.146 225.424 296.62 225.838C296.204 226.157 295.741 226.381 295.231 226.508C294.704 226.636 293.905 226.716 292.804 226.716H292.405H290.616V226.7ZM291.75 225.663H292.453C293.602 225.663 294.4 225.615 294.831 225.519C295.278 225.424 295.646 225.248 295.933 225.009C296.316 224.69 296.604 224.275 296.811 223.78C297.019 223.27 297.114 222.695 297.114 222.057C297.114 221.403 297.019 220.829 296.811 220.334C296.62 219.84 296.316 219.425 295.933 219.106C295.646 218.867 295.262 218.691 294.815 218.579C294.368 218.484 293.57 218.42 292.453 218.42H291.75V225.663Z" fill="white"/>
<path d="M308.29 217L312.537 226.7H311.34L310.126 223.844H306.486L305.273 226.7H304.075L308.29 217ZM308.29 219.457L306.806 222.887H309.775L308.29 219.457Z" fill="white"/>
</svg>
