<svg width="164" height="27" viewBox="0 0 164 27" fill="none" xmlns="http://www.w3.org/2000/svg">
<rect width="164" height="27" fill="#9DC41A"/>
<path fill-rule="evenodd" clip-rule="evenodd" d="M159.738 11.0538C158.631 6.32218 154.503 3.10067 149.57 3C148.866 3 148.161 3.10067 147.557 3.20134C140.51 4.51008 136.987 12.1612 140.309 18.4028C140.409 18.6042 140.409 18.7048 140.409 18.9062C139.906 20.5169 139.503 22.1277 139 23.7384C139 24.0405 139 24.0405 139.201 23.9398C140.913 23.4364 142.624 23.0337 144.235 22.6311C144.336 22.6311 144.537 22.6311 144.638 22.6311C146.852 23.7384 149.067 24.0405 151.483 23.6378C157.322 22.5304 161.047 16.6914 159.738 11.0538ZM150.98 21.9263C150.476 22.027 149.973 22.027 149.772 22.027C147.96 22.027 146.45 21.6243 145.04 20.819C144.839 20.7183 144.738 20.6176 144.537 20.7183C143.631 20.9196 142.624 21.2216 141.718 21.423C141.517 21.5237 141.517 21.423 141.517 21.2216C141.819 20.3156 142.02 19.5102 142.221 18.6042C142.322 18.4028 142.221 18.2015 142.121 18.0001C140.208 14.8793 140.309 11.1544 142.423 8.23495C144.638 5.31546 147.658 4.10739 151.282 4.8121C154.805 5.5168 157.121 7.83226 157.926 11.3558C159.134 16.3894 155.913 21.121 150.98 21.9263Z" fill="white"/>
<path fill-rule="evenodd" clip-rule="evenodd" d="M152.188 18.4028C151.785 18.4028 151.483 18.4028 151.08 18.2015C148.664 17.4968 146.852 16.0874 145.443 14.0739C144.94 13.3692 144.336 12.5638 144.235 11.6578C144.033 10.5504 144.336 9.54368 145.242 8.83898C145.544 8.53696 146.349 8.43629 146.651 8.63764C146.752 8.73831 146.752 8.83898 146.852 8.93965C147.154 9.64436 147.456 10.3491 147.758 11.0538C147.758 11.1544 147.758 11.3558 147.758 11.4565C147.557 11.7585 147.356 12.0605 147.154 12.3625C146.953 12.5638 146.953 12.7652 147.054 12.9665C147.96 14.3759 149.067 15.3827 150.577 15.9867C150.778 16.0874 150.98 16.0874 151.08 15.886C151.382 15.584 151.584 15.282 151.886 14.8793C152.087 14.678 152.288 14.678 152.49 14.678C152.993 14.8793 153.496 15.1813 154 15.3827C154.1 15.4833 154.201 15.4833 154.402 15.584C154.906 15.886 154.906 15.886 154.805 16.3894C154.705 17.4968 153.899 18.0001 152.892 18.3022C152.691 18.4028 152.49 18.4028 152.188 18.4028Z" fill="white"/>
<path d="M18.1055 9.04688V19H17.2646V9.04688H18.1055ZM22.7402 13.627V14.3516H17.8252V13.627H22.7402ZM23.4307 9.04688V9.77148H17.8252V9.04688H23.4307ZM27.2451 9.6416L23.7998 19H22.9248L26.6846 9.04688H27.293L27.2451 9.6416ZM30.376 19L26.9238 9.6416L26.876 9.04688H27.4844L31.251 19H30.376ZM29.7607 15.4863V16.2109H24.4766V15.4863H29.7607ZM38.4834 18.2822V19H33.3223V18.2822H38.4834ZM33.5684 9.04688V19H32.7275V9.04688H33.5684ZM46.2969 18.2822V19H40.6982V18.2822H46.2969ZM40.9512 9.04688V19H40.1104V9.04688H40.9512ZM45.5996 13.5107V14.2285H40.6982V13.5107H45.5996ZM46.2627 9.04688V9.77148H40.6982V9.04688H46.2627ZM57.6992 15.8965H58.54C58.4717 16.5664 58.2871 17.1452 57.9863 17.6328C57.6855 18.1159 57.2754 18.4873 56.7559 18.7471C56.2363 19.0068 55.6097 19.1367 54.876 19.1367C54.3109 19.1367 53.7982 19.0296 53.3379 18.8154C52.8822 18.6012 52.4902 18.2982 52.1621 17.9062C51.834 17.5098 51.5811 17.0358 51.4033 16.4844C51.2256 15.9329 51.1367 15.32 51.1367 14.6455V13.4014C51.1367 12.7269 51.2256 12.1162 51.4033 11.5693C51.5811 11.0179 51.8363 10.5439 52.1689 10.1475C52.5016 9.75098 52.9004 9.44564 53.3652 9.23145C53.8301 9.01725 54.3542 8.91016 54.9375 8.91016C55.6439 8.91016 56.2546 9.04004 56.7695 9.2998C57.2845 9.55501 57.6901 9.92415 57.9863 10.4072C58.2871 10.8903 58.4717 11.4736 58.54 12.1572H57.6992C57.6354 11.6195 57.4941 11.1637 57.2754 10.79C57.0566 10.4163 56.7536 10.1315 56.3662 9.93555C55.9834 9.73503 55.5072 9.63477 54.9375 9.63477C54.4727 9.63477 54.0579 9.72363 53.6934 9.90137C53.3288 10.0791 53.0189 10.3343 52.7637 10.667C52.5085 10.9951 52.3125 11.3893 52.1758 11.8496C52.0436 12.3099 51.9775 12.8226 51.9775 13.3877V14.6455C51.9775 15.1924 52.0413 15.696 52.1689 16.1562C52.2965 16.6165 52.4834 17.0153 52.7295 17.3525C52.9801 17.6898 53.2855 17.9518 53.6455 18.1387C54.0055 18.3255 54.4157 18.4189 54.876 18.4189C55.4639 18.4189 55.9538 18.3255 56.3457 18.1387C56.7422 17.9473 57.0498 17.6647 57.2686 17.291C57.4873 16.9173 57.6309 16.4525 57.6992 15.8965ZM67.9395 13.4902V14.5566C67.9395 15.2539 67.8483 15.8851 67.666 16.4502C67.4883 17.0107 67.2285 17.4915 66.8867 17.8926C66.5495 18.2936 66.1439 18.6012 65.6699 18.8154C65.196 19.0296 64.6628 19.1367 64.0703 19.1367C63.4915 19.1367 62.9629 19.0296 62.4844 18.8154C62.0104 18.6012 61.6025 18.2936 61.2607 17.8926C60.9189 17.4915 60.6546 17.0107 60.4678 16.4502C60.2809 15.8851 60.1875 15.2539 60.1875 14.5566V13.4902C60.1875 12.793 60.2786 12.1641 60.4609 11.6035C60.6478 11.0384 60.9121 10.5553 61.2539 10.1543C61.5957 9.75326 62.0036 9.44564 62.4775 9.23145C62.9515 9.01725 63.4779 8.91016 64.0566 8.91016C64.6491 8.91016 65.1823 9.01725 65.6562 9.23145C66.1302 9.44564 66.5381 9.75326 66.8799 10.1543C67.2217 10.5553 67.4837 11.0384 67.666 11.6035C67.8483 12.1641 67.9395 12.793 67.9395 13.4902ZM67.1055 14.5566V13.4766C67.1055 12.8887 67.0371 12.36 66.9004 11.8906C66.7682 11.4212 66.57 11.0202 66.3057 10.6875C66.0459 10.3548 65.7269 10.0996 65.3486 9.92188C64.9704 9.74414 64.5397 9.65527 64.0566 9.65527C63.5872 9.65527 63.1657 9.74414 62.792 9.92188C62.4183 10.0996 62.0993 10.3548 61.835 10.6875C61.5752 11.0202 61.3747 11.4212 61.2334 11.8906C61.0967 12.36 61.0283 12.8887 61.0283 13.4766V14.5566C61.0283 15.1491 61.0967 15.6823 61.2334 16.1562C61.3747 16.6257 61.5775 17.029 61.8418 17.3662C62.1061 17.6989 62.4251 17.9541 62.7988 18.1318C63.1771 18.3096 63.6009 18.3984 64.0703 18.3984C64.5579 18.3984 64.9886 18.3096 65.3623 18.1318C65.736 17.9541 66.0527 17.6989 66.3125 17.3662C66.5723 17.029 66.7682 16.6257 66.9004 16.1562C67.0371 15.6823 67.1055 15.1491 67.1055 14.5566ZM77.4756 9.04688V19H76.6279L70.9062 10.4961V19H70.0654V9.04688H70.9062L76.6416 17.5508V9.04688H77.4756ZM87.3672 13.4902V14.5566C87.3672 15.2539 87.276 15.8851 87.0938 16.4502C86.916 17.0107 86.6562 17.4915 86.3145 17.8926C85.9772 18.2936 85.5716 18.6012 85.0977 18.8154C84.6237 19.0296 84.0905 19.1367 83.498 19.1367C82.9193 19.1367 82.3906 19.0296 81.9121 18.8154C81.4382 18.6012 81.0303 18.2936 80.6885 17.8926C80.3467 17.4915 80.0824 17.0107 79.8955 16.4502C79.7087 15.8851 79.6152 15.2539 79.6152 14.5566V13.4902C79.6152 12.793 79.7064 12.1641 79.8887 11.6035C80.0755 11.0384 80.3398 10.5553 80.6816 10.1543C81.0234 9.75326 81.4313 9.44564 81.9053 9.23145C82.3792 9.01725 82.9056 8.91016 83.4844 8.91016C84.0768 8.91016 84.61 9.01725 85.084 9.23145C85.5579 9.44564 85.9658 9.75326 86.3076 10.1543C86.6494 10.5553 86.9115 11.0384 87.0938 11.6035C87.276 12.1641 87.3672 12.793 87.3672 13.4902ZM86.5332 14.5566V13.4766C86.5332 12.8887 86.4648 12.36 86.3281 11.8906C86.196 11.4212 85.9977 11.0202 85.7334 10.6875C85.4736 10.3548 85.1546 10.0996 84.7764 9.92188C84.3981 9.74414 83.9674 9.65527 83.4844 9.65527C83.015 9.65527 82.5934 9.74414 82.2197 9.92188C81.846 10.0996 81.527 10.3548 81.2627 10.6875C81.0029 11.0202 80.8024 11.4212 80.6611 11.8906C80.5244 12.36 80.4561 12.8887 80.4561 13.4766V14.5566C80.4561 15.1491 80.5244 15.6823 80.6611 16.1562C80.8024 16.6257 81.0052 17.029 81.2695 17.3662C81.5339 17.6989 81.8529 17.9541 82.2266 18.1318C82.6048 18.3096 83.0286 18.3984 83.498 18.3984C83.9857 18.3984 84.4163 18.3096 84.79 18.1318C85.1637 17.9541 85.4805 17.6989 85.7402 17.3662C86 17.029 86.196 16.6257 86.3281 16.1562C86.4648 15.6823 86.5332 15.1491 86.5332 14.5566ZM95.126 16.5527C95.126 16.2793 95.0804 16.0355 94.9893 15.8213C94.8981 15.6071 94.7477 15.4157 94.5381 15.2471C94.333 15.0739 94.055 14.9144 93.7041 14.7686C93.3577 14.6182 92.9248 14.4701 92.4053 14.3242C91.9085 14.1829 91.4596 14.028 91.0586 13.8594C90.6576 13.6908 90.3135 13.4971 90.0264 13.2783C89.7438 13.0596 89.5273 12.8044 89.377 12.5127C89.2266 12.2165 89.1514 11.8724 89.1514 11.4805C89.1514 11.0977 89.2334 10.749 89.3975 10.4346C89.5615 10.1201 89.7917 9.84896 90.0879 9.62109C90.3887 9.39323 90.7419 9.21777 91.1475 9.09473C91.5576 8.97168 92.0065 8.91016 92.4941 8.91016C93.1914 8.91016 93.793 9.04232 94.2988 9.30664C94.8092 9.57096 95.2035 9.92871 95.4814 10.3799C95.764 10.8265 95.9053 11.3278 95.9053 11.8838H95.0645C95.0645 11.4508 94.9619 11.0658 94.7568 10.7285C94.5563 10.3867 94.2646 10.1201 93.8818 9.92871C93.5036 9.73275 93.041 9.63477 92.4941 9.63477C91.9473 9.63477 91.487 9.71908 91.1133 9.8877C90.7441 10.0518 90.4639 10.2728 90.2725 10.5508C90.0856 10.8242 89.9922 11.1296 89.9922 11.4668C89.9922 11.7038 90.0378 11.9225 90.1289 12.123C90.2201 12.319 90.3682 12.5036 90.5732 12.6768C90.7829 12.8454 91.0586 13.0049 91.4004 13.1553C91.7422 13.3011 92.1637 13.4401 92.665 13.5723C93.1937 13.7181 93.6631 13.8799 94.0732 14.0576C94.4834 14.2354 94.8298 14.4404 95.1123 14.6729C95.3949 14.9007 95.609 15.1673 95.7549 15.4727C95.9007 15.778 95.9736 16.1335 95.9736 16.5391C95.9736 16.9447 95.887 17.3092 95.7139 17.6328C95.5452 17.9518 95.306 18.223 94.9961 18.4463C94.6908 18.6696 94.3285 18.8405 93.9092 18.959C93.4945 19.0775 93.041 19.1367 92.5488 19.1367C92.1068 19.1367 91.667 19.0798 91.2295 18.9658C90.792 18.8519 90.391 18.6764 90.0264 18.4395C89.6663 18.1979 89.377 17.888 89.1582 17.5098C88.944 17.1315 88.8369 16.6803 88.8369 16.1562H89.6709C89.6709 16.5755 89.7552 16.9287 89.9238 17.2158C90.0924 17.5029 90.3158 17.7354 90.5938 17.9131C90.8763 18.0908 91.1862 18.2207 91.5234 18.3027C91.8652 18.3802 92.207 18.4189 92.5488 18.4189C93.0729 18.4189 93.5264 18.3415 93.9092 18.1865C94.2965 18.0316 94.5951 17.8151 94.8047 17.5371C95.0189 17.2546 95.126 16.9264 95.126 16.5527ZM103.992 15.8965H104.833C104.765 16.5664 104.58 17.1452 104.279 17.6328C103.979 18.1159 103.568 18.4873 103.049 18.7471C102.529 19.0068 101.903 19.1367 101.169 19.1367C100.604 19.1367 100.091 19.0296 99.6309 18.8154C99.1751 18.6012 98.7832 18.2982 98.4551 17.9062C98.127 17.5098 97.874 17.0358 97.6963 16.4844C97.5186 15.9329 97.4297 15.32 97.4297 14.6455V13.4014C97.4297 12.7269 97.5186 12.1162 97.6963 11.5693C97.874 11.0179 98.1292 10.5439 98.4619 10.1475C98.7946 9.75098 99.1934 9.44564 99.6582 9.23145C100.123 9.01725 100.647 8.91016 101.23 8.91016C101.937 8.91016 102.548 9.04004 103.062 9.2998C103.577 9.55501 103.983 9.92415 104.279 10.4072C104.58 10.8903 104.765 11.4736 104.833 12.1572H103.992C103.928 11.6195 103.787 11.1637 103.568 10.79C103.35 10.4163 103.047 10.1315 102.659 9.93555C102.276 9.73503 101.8 9.63477 101.23 9.63477C100.766 9.63477 100.351 9.72363 99.9863 9.90137C99.6217 10.0791 99.3118 10.3343 99.0566 10.667C98.8014 10.9951 98.6055 11.3893 98.4688 11.8496C98.3366 12.3099 98.2705 12.8226 98.2705 13.3877V14.6455C98.2705 15.1924 98.3343 15.696 98.4619 16.1562C98.5895 16.6165 98.7764 17.0153 99.0225 17.3525C99.2731 17.6898 99.5785 17.9518 99.9385 18.1387C100.299 18.3255 100.709 18.4189 101.169 18.4189C101.757 18.4189 102.247 18.3255 102.639 18.1387C103.035 17.9473 103.343 17.6647 103.562 17.291C103.78 16.9173 103.924 16.4525 103.992 15.8965ZM114.232 13.4902V14.5566C114.232 15.2539 114.141 15.8851 113.959 16.4502C113.781 17.0107 113.521 17.4915 113.18 17.8926C112.842 18.2936 112.437 18.6012 111.963 18.8154C111.489 19.0296 110.956 19.1367 110.363 19.1367C109.785 19.1367 109.256 19.0296 108.777 18.8154C108.303 18.6012 107.896 18.2936 107.554 17.8926C107.212 17.4915 106.948 17.0107 106.761 16.4502C106.574 15.8851 106.48 15.2539 106.48 14.5566V13.4902C106.48 12.793 106.572 12.1641 106.754 11.6035C106.941 11.0384 107.205 10.5553 107.547 10.1543C107.889 9.75326 108.297 9.44564 108.771 9.23145C109.244 9.01725 109.771 8.91016 110.35 8.91016C110.942 8.91016 111.475 9.01725 111.949 9.23145C112.423 9.44564 112.831 9.75326 113.173 10.1543C113.515 10.5553 113.777 11.0384 113.959 11.6035C114.141 12.1641 114.232 12.793 114.232 13.4902ZM113.398 14.5566V13.4766C113.398 12.8887 113.33 12.36 113.193 11.8906C113.061 11.4212 112.863 11.0202 112.599 10.6875C112.339 10.3548 112.02 10.0996 111.642 9.92188C111.263 9.74414 110.833 9.65527 110.35 9.65527C109.88 9.65527 109.459 9.74414 109.085 9.92188C108.711 10.0996 108.392 10.3548 108.128 10.6875C107.868 11.0202 107.668 11.4212 107.526 11.8906C107.39 12.36 107.321 12.8887 107.321 13.4766V14.5566C107.321 15.1491 107.39 15.6823 107.526 16.1562C107.668 16.6257 107.87 17.029 108.135 17.3662C108.399 17.6989 108.718 17.9541 109.092 18.1318C109.47 18.3096 109.894 18.3984 110.363 18.3984C110.851 18.3984 111.282 18.3096 111.655 18.1318C112.029 17.9541 112.346 17.6989 112.605 17.3662C112.865 17.029 113.061 16.6257 113.193 16.1562C113.33 15.6823 113.398 15.1491 113.398 14.5566Z" fill="white"/>
<rect x="133" width="1" height="27" fill="white"/>
</svg>
