<svg width="13" height="17" viewBox="0 0 13 17" fill="none" xmlns="http://www.w3.org/2000/svg">
<path d="M12.6279 3.05501L6.20855 8.49532L12.6279 13.9531C12.6279 13.9531 13.402 14.5169 12.6279 15.1213C11.8539 15.7258 10.6258 16.7895 10.6258 16.7895C10.6258 16.7895 10.1889 17.2632 9.59032 16.7895C8.99172 16.3158 0.284393 8.96902 0.284393 8.96902C0.284393 8.96902 -0.355491 8.50404 0.284393 7.98965C0.924276 7.47236 9.37346 0.320322 9.37346 0.320322C9.37346 0.320322 10.0408 -0.400403 10.894 0.320322C11.7472 1.04105 12.6417 1.8257 12.6417 1.8257C12.6417 1.8257 13.457 2.48831 12.6279 3.05501Z" fill="#90B515"/>
</svg>
