<svg width="13" height="17" viewBox="0 0 13 17" fill="none" xmlns="http://www.w3.org/2000/svg">
<path d="M0.372093 13.945L6.79145 8.50468L0.372093 3.04694C0.372093 3.04694 -0.401959 2.48315 0.372094 1.87867C1.14615 1.27419 2.37425 0.210534 2.37425 0.210534C2.37425 0.210534 2.81108 -0.263167 3.40968 0.210534C4.00828 0.684236 12.7156 8.03098 12.7156 8.03098C12.7156 8.03098 13.3555 8.49596 12.7156 9.01035C12.0757 9.52764 3.62654 16.6797 3.62654 16.6797C3.62654 16.6797 2.95916 17.4004 2.10598 16.6797C1.25281 15.959 0.358318 15.1743 0.358318 15.1743C0.358318 15.1743 -0.457003 14.5117 0.372093 13.945Z" fill="#90B515"/>
</svg>
