<svg width="44" height="52" viewBox="0 0 44 52" fill="none" xmlns="http://www.w3.org/2000/svg">
<path d="M20 29.5858C20 29.0335 20.4477 28.5858 21 28.5858H23C23.5523 28.5858 24 29.0335 24 29.5858V37.5858C24 38.1381 23.5523 38.5858 23 38.5858H21C20.4477 38.5858 20 38.1381 20 37.5858V29.5858Z" fill="#9DC41A"/>
<path d="M26 31.5858C26.5523 31.5858 27 32.0335 27 32.5858V34.5858C27 35.1381 26.5523 35.5858 26 35.5858H18C17.4477 35.5858 17 35.1381 17 34.5858V32.5858C17 32.0335 17.4477 31.5858 18 31.5858H26Z" fill="#9DC41A"/>
<path d="M21.332 0.292255C21.7229 -0.0979172 22.3561 -0.0973445 22.7463 0.293534L43.7077 21.293C43.8949 21.4805 44 21.7346 44 21.9995V22.2488C44 23.1285 42.9459 23.5796 42.3095 22.9722L22.6988 4.25285C22.309 3.88078 21.6945 3.88447 21.3092 4.2612L1.69912 23.4355C1.06598 24.0546 0 23.606 0 22.7205V22.0005C0 21.735 0.105605 21.4804 0.293533 21.2928L21.332 0.292255Z" fill="#9DC41A"/>
<path fill-rule="evenodd" clip-rule="evenodd" d="M42 25.6435C42 25.3706 41.8885 25.1095 41.6912 24.9209L22.6989 6.75426C22.3092 6.38151 21.6941 6.38489 21.3085 6.7619L2.30088 25.3471C2.10847 25.5353 2 25.793 2 26.0621V46.5858C2 47.1381 2.44772 47.5858 3 47.5858H41C41.5523 47.5858 42 47.1381 42 46.5858V25.6435ZM22 44.5858C28.0752 44.5858 33 39.6609 33 33.5858C33 27.5107 28.0752 22.5858 22 22.5858C15.9248 22.5858 11 27.5107 11 33.5858C11 39.6609 15.9248 44.5858 22 44.5858Z" fill="#9DC41A"/>
<path d="M0 49.5858C0 49.0335 0.447715 48.5858 1 48.5858H43C43.5523 48.5858 44 49.0335 44 49.5858V50.5858C44 51.1381 43.5523 51.5858 43 51.5858H0.999999C0.447714 51.5858 0 51.1381 0 50.5858V49.5858Z" fill="#9DC41A"/>
</svg>
