<svg width="12" height="9" viewBox="0 0 12 9" fill="none" xmlns="http://www.w3.org/2000/svg">
<path d="M0.766115 2.72764e-05H11.2238C11.2238 2.72764e-05 11.3302 -0.00387751 11.4087 0.081753L6.80974 4.38053C6.80974 4.38053 6.01985 5.12906 5.17397 4.38053C4.32841 3.632 0.58769 0.081753 0.58769 0.081753C0.58769 0.081753 0.616343 2.72764e-05 0.766115 2.72764e-05Z" fill="#555555"/>
<path d="M0.0599057 0.53717L4.32841 4.57678L0.139351 7.71125C0.139351 7.71125 0 7.56897 0 7.36026C0 7.15156 0 0.797972 0 0.797972C0 0.797972 -3.09944e-06 0.686291 0.0599057 0.53717Z" fill="#555555"/>
<path d="M4.74614 4.96484L0.58769 8.08921C0.58769 8.08921 0.660298 8.14912 0.925329 8.14912C1.19003 8.14912 11.1342 8.15628 11.1342 8.15628C11.1342 8.15628 11.2948 8.17159 11.4087 8.0967L7.22356 4.96484C7.22356 4.96484 6.80974 5.46235 5.99771 5.46235C5.18667 5.46235 4.74614 4.96484 4.74614 4.96484Z" fill="#555555"/>
<path d="M7.65173 4.57702L11.8606 7.71149C11.8606 7.71149 12 7.66167 12 7.30352C12 6.94537 12 0.885465 12 0.885465C12 0.885465 11.9977 0.641597 11.9202 0.542292L7.65173 4.57702Z" fill="#555555"/>
</svg>
