<svg width="50" height="42" viewBox="0 0 50 42" fill="none" xmlns="http://www.w3.org/2000/svg">
<path fill-rule="evenodd" clip-rule="evenodd" d="M3.90753 6.25C5.20962 4.16667 9.2005 0 14.7474 0C20.1397 0 23.6924 2.83025 24.903 4.36365C26.1136 2.83025 29.7639 0 35.1562 0C40.7031 0 44.694 4.16667 45.9961 6.25C47.5037 8.45761 49.2563 13.6132 46.5027 19.043H35.5469L31.9336 13.4766C31.8685 13.3464 31.582 13.0859 30.957 13.0859C30.332 13.0859 30.1107 13.3464 30.0781 13.4766L24.9023 22.2656L18.75 10.2539C18.6198 9.89583 18.1641 9.17969 17.3828 9.17969C16.6016 9.17969 16.1458 9.89583 16.0156 10.2539L12.207 19.1406H3.45088C0.626321 13.6751 2.39086 8.47084 3.90753 6.25ZM5.34232 21.9727H1.26953C0.846354 21.9401 0 21.6016 0 20.5078C0 19.4141 0.846354 19.1406 1.26953 19.1406H3.45088C3.93713 20.0815 4.55939 21.0302 5.34232 21.9727ZM5.34232 21.9727H13.6719C14.2188 21.9727 14.4857 21.4518 14.5508 21.1914L17.3828 14.3555C19.3359 18.1966 23.3789 26.0156 23.9258 26.5625C24.4939 27.1307 24.7248 27.0917 24.8987 27.0623C24.934 27.0563 24.967 27.0508 25 27.0508C25.1562 27.0508 25.3906 26.7253 25.4883 26.5625L30.957 17.4805L34.2773 21.9727H44.5613C44.4259 22.1356 44.2857 22.2984 44.1406 22.4609C38.2812 29.0234 29.3294 37.3698 25.5859 40.7227C25.4557 40.8203 25.1562 41.0156 25 41.0156C24.8438 41.0156 24.4479 40.8203 24.3177 40.7227C20.5742 37.3698 11.6224 29.0234 5.763 22.4609C5.61789 22.2984 5.4777 22.1356 5.34232 21.9727ZM44.5613 21.9727C45.3713 20.9975 46.0094 20.0159 46.5027 19.043H48.9258C49.2839 19.0755 50 19.4141 50 20.5078C50 21.6016 49.2839 21.9401 48.9258 21.9727H44.5613Z" fill="#90B515"/>
</svg>
