<svg width="62" height="52" viewBox="0 0 62 52" fill="none" xmlns="http://www.w3.org/2000/svg">
<path d="M18.0277 0C14.6452 0 13.1553 1.46125 12.8331 2.19187C13.6062 15.3431 23.7054 18.3062 28.6584 18.1438C29.6248 19.8973 30.9134 21.2286 31.4368 21.6751C30.5671 25.6692 31.4771 28.6972 32.0409 29.712C30.4946 30.2965 29.1416 32.6345 28.6584 33.7304C23.8262 33.7304 20.927 35.1917 20.0813 35.9223C18.6317 35.2728 15.1042 33.9252 12.5915 33.7304C9.45061 33.4869 7.03457 33.8522 3.53128 37.2618C0.0279909 40.6713 -0.0928123 49.9259 0.0279909 51.0218C0.148794 52.1177 1.11522 51.996 4.3769 51.996C6.98625 51.996 7.88019 51.3465 8.001 51.0218V46.5163C8.001 45.5421 8.72582 44.0809 10.1755 44.0809C11.6251 44.0809 11.9875 44.6898 12.5915 45.7857C13.0747 46.6624 13.9204 46.8816 14.2828 46.8816H19.1149C23.5846 50.2912 30.712 53.2137 41.2219 51.0218C51.7317 48.8299 62 41.6455 62 24.4759C62 7.30623 49.7989 0 41.2219 0C34.3602 0 30.712 5.19554 29.7456 7.79331H27.4503C24.1645 7.79331 23.1819 4.05901 23.1014 2.19187C22.8195 1.46125 21.4101 0 18.0277 0Z" fill="#9DC41A"/>
</svg>
