<svg width="41" height="38" viewBox="0 0 41 38" fill="none" xmlns="http://www.w3.org/2000/svg">
<path fill-rule="evenodd" clip-rule="evenodd" d="M26.1552 5.57798C26.1552 8.65862 23.6233 11.156 20.5 11.156C17.3767 11.156 14.8448 8.65862 14.8448 5.57798C14.8448 2.49735 17.3767 0 20.5 0C23.6233 0 26.1552 2.49735 26.1552 5.57798ZM7.77586 17.0826C10.8991 17.0826 13.431 14.5852 13.431 11.5046C13.431 8.42395 10.8991 5.92661 7.77586 5.92661C4.6526 5.92661 2.12069 8.42395 2.12069 11.5046C2.12069 14.5852 4.6526 17.0826 7.77586 17.0826ZM33.2241 17.0826C36.3474 17.0826 38.8793 14.5852 38.8793 11.5046C38.8793 8.42395 36.3474 5.92661 33.2241 5.92661C30.1009 5.92661 27.569 8.42395 27.569 11.5046C27.569 14.5852 30.1009 17.0826 33.2241 17.0826ZM12.7241 18.8257C12.7241 15.6902 14.8224 13.0382 17.7094 12.161L20.4216 14.8362L23.1697 12.1255C26.1188 12.9645 28.2759 15.6466 28.2759 18.8257V19.1738C29.0229 18.6203 29.8848 18.2094 30.82 17.9821L30.3966 18.3997L33.1457 21.1114L35.8948 18.3997L35.4244 17.9357C38.6113 18.6117 41 21.4069 41 24.7523V37.3028C41 37.5381 40.9883 37.7707 40.9651 38H0.0348616C0.0117356 37.7707 0 37.5381 0 37.3028V24.7523C0 21.4786 2.2874 18.7319 5.37171 17.9821L4.94828 18.3997L7.69742 21.1114L10.4466 18.3997L9.97611 17.9357C10.99 18.1508 11.9231 18.5803 12.7241 19.1738V18.8257Z" fill="#90B515"/>
</svg>
