<svg width="34" height="40" viewBox="0 0 34 40" fill="none" xmlns="http://www.w3.org/2000/svg">
<path d="M18.917 9.71654C19.754 9.69445 21.6759 9.46472 22.6667 8.72251C22.208 8.36908 21.2769 7.29112 21.2218 5.80672C21.2134 5.57836 21.2117 5.32741 21.2099 5.06321C21.1972 3.18069 21.18 0.625068 18.6761 0.770345C18.6532 0.416915 18.167 -0.217049 16.4057 0.0745308C14.204 0.439005 13.4128 2.12884 13.3784 3.12286C13.3749 3.2231 13.3735 3.34997 13.3719 3.49809C13.3577 4.81871 13.3252 7.82874 11.6239 8.72251C12.0482 9.05385 13.4403 9.71654 15.6145 9.71654H18.917Z" fill="#90B515"/>
<path d="M10.7521 15.9879C10.7521 13.4337 12.5749 11.2842 15.0511 10.6512L14.8204 10.8715L16.1401 12.1322L17.2707 11.052L18.4139 12.1441L19.746 10.8715L19.6373 10.7677C21.9085 11.5191 23.5385 13.5725 23.5385 15.9879V18.2353H10.7521V15.9879Z" fill="#90B515"/>
<path d="M11.0427 26.4706C11.0427 29.0696 8.96105 31.1765 6.39316 31.1765C3.82527 31.1765 1.74359 29.0696 1.74359 26.4706C1.74359 23.8716 3.82527 21.7647 6.39316 21.7647C8.96105 21.7647 11.0427 23.8716 11.0427 26.4706Z" fill="#90B515"/>
<path d="M4.29775 31.9663C1.82213 32.6406 0 34.9285 0 37.6471V40H12.7863V37.6471C12.7863 35.0768 11.1575 32.8915 8.88758 32.0909L8.99393 32.1985L6.53115 34.6911L4.06838 32.1985L4.29775 31.9663Z" fill="#90B515"/>
<path d="M31.6752 26.4706C31.6752 29.0696 29.5935 31.1765 27.0256 31.1765C24.4578 31.1765 22.3761 29.0696 22.3761 26.4706C22.3761 23.8716 24.4578 21.7647 27.0256 21.7647C29.5935 21.7647 31.6752 23.8716 31.6752 26.4706Z" fill="#90B515"/>
<path d="M24.9302 31.9663C22.4546 32.6406 20.6325 34.9285 20.6325 37.6471V40H33.4188V37.6471C33.4188 35.0768 31.79 32.8915 29.5201 32.0909L29.6264 32.1985L27.1636 34.6911L24.7009 32.1985L24.9302 31.9663Z" fill="#90B515"/>
<path d="M33.1259 21.0154L33.9976 21.0302C33.9992 20.9321 34 20.8338 34 20.7353C34 20.6368 33.9992 20.5385 33.9976 20.4404L33.1259 20.4552C33.1274 20.5484 33.1282 20.6417 33.1282 20.7353C33.1282 20.8288 33.1274 20.9222 33.1259 21.0154Z" fill="#90B515"/>
<path d="M33.1074 19.8986L33.9781 19.8542C33.9683 19.6576 33.9552 19.4618 33.939 19.267L33.0703 19.3413C33.0857 19.5262 33.0981 19.712 33.1074 19.8986Z" fill="#90B515"/>
<path d="M33.0146 18.7866L33.8803 18.6825C33.8574 18.4877 33.8313 18.2938 33.802 18.1011L32.9403 18.2351C32.9681 18.4179 32.9928 18.6018 33.0146 18.7866Z" fill="#90B515"/>
<path d="M32.8473 17.6851L33.7039 17.5213C33.6679 17.3283 33.6287 17.1365 33.5863 16.9458L32.7358 17.1393C32.7759 17.3201 32.8131 17.5021 32.8473 17.6851Z" fill="#90B515"/>
<path d="M32.6059 16.5983L33.4495 16.3754C33.4004 16.1853 33.3483 15.9966 33.293 15.8092L32.4576 16.0614C32.51 16.2391 32.5594 16.4181 32.6059 16.5983Z" fill="#90B515"/>
<path d="M32.2911 15.5302L33.1175 15.249C33.0558 15.0631 32.9909 14.8786 32.9232 14.6956L32.1069 15.0054C32.1711 15.1789 32.2326 15.3539 32.2911 15.5302Z" fill="#90B515"/>
<path d="M32.4784 13.6101C32.5585 13.7882 32.6358 13.9678 32.71 14.1491L31.9047 14.4871C31.8343 14.3152 31.7611 14.1448 31.685 13.9759L32.4784 13.6101Z" fill="#90B515"/>
<path d="M31.4483 13.4729L32.2287 13.0798C32.1425 12.9043 32.0533 12.7305 31.9613 12.5584L31.1946 12.9784C31.2818 13.1416 31.3664 13.3064 31.4483 13.4729Z" fill="#90B515"/>
<path d="M30.9241 12.4926L31.6762 12.0464C31.5783 11.8773 31.4776 11.71 31.3741 11.5446L30.6375 12.0166C30.7357 12.1735 30.8312 12.3322 30.9241 12.4926Z" fill="#90B515"/>
<path d="M30.3351 11.5508L31.0554 11.0537C30.9463 10.8918 30.8345 10.7318 30.7201 10.5739L30.017 11.0955C30.1255 11.2454 30.2316 11.3972 30.3351 11.5508Z" fill="#90B515"/>
<path d="M29.6838 10.6515L30.369 10.106C30.2493 9.95198 30.1271 9.80011 30.0024 9.65043L29.3359 10.2192C29.4542 10.3613 29.5702 10.5054 29.6838 10.6515Z" fill="#90B515"/>
<path d="M28.9736 9.79909L29.6207 9.20773C29.491 9.06234 29.3588 8.9192 29.2243 8.77838L28.5975 9.39162C28.7251 9.52527 28.8505 9.66111 28.9736 9.79909Z" fill="#90B515"/>
<path d="M28.2079 8.99733L28.8138 8.36291C28.6747 8.22679 28.5333 8.09305 28.3896 7.96176L27.8053 8.61662C27.9417 8.74122 28.0759 8.86814 28.2079 8.99733Z" fill="#90B515"/>
<path d="M27.3902 8.25L27.9522 7.57543C27.8043 7.44922 27.6543 7.32552 27.5021 7.20438L26.9631 7.89788C27.1075 8.01283 27.2499 8.13022 27.3902 8.25Z" fill="#90B515"/>
<path d="M26.5657 6.5097C26.7257 6.62013 26.8838 6.73324 27.0398 6.84899L26.5244 7.56064C26.3763 7.45081 26.2264 7.34348 26.0746 7.2387L26.5657 6.5097Z" fill="#90B515"/>
<path d="M25.6144 6.93259L26.0807 6.18707C25.9173 6.08238 25.752 5.98044 25.5849 5.88131L25.1441 6.64251C25.3026 6.73655 25.4594 6.83327 25.6144 6.93259Z" fill="#90B515"/>
<path d="M24.6641 6.36878L25.079 5.59276C24.909 5.49968 24.7373 5.40944 24.5639 5.3221L24.1755 6.11205C24.34 6.19488 24.5029 6.28048 24.6641 6.36878Z" fill="#90B515"/>
<path d="M23.6785 5.87239L24.0399 5.06943C23.864 4.98832 23.6865 4.91015 23.5074 4.83499L23.1734 5.65004C23.3433 5.72132 23.5117 5.79546 23.6785 5.87239Z" fill="#90B515"/>
<path d="M10.8266 5.65004L10.4926 4.83499C10.3135 4.91015 10.136 4.98832 9.96008 5.06943L10.3215 5.87239C10.4883 5.79546 10.6567 5.72132 10.8266 5.65004Z" fill="#90B515"/>
<path d="M9.82448 6.11205L9.43608 5.3221C9.26268 5.40944 9.09098 5.49968 8.92101 5.59276L9.33592 6.36878C9.49714 6.28048 9.66002 6.19488 9.82448 6.11205Z" fill="#90B515"/>
<path d="M8.85594 6.64251L8.41505 5.88131C8.24796 5.98044 8.0827 6.08239 7.91932 6.18707L8.38563 6.93259C8.54064 6.83327 8.69743 6.73656 8.85594 6.64251Z" fill="#90B515"/>
<path d="M7.92543 7.2387L7.43427 6.5097C7.27428 6.62013 7.11624 6.73324 6.96022 6.84899L7.47561 7.56064C7.62366 7.45081 7.77361 7.34348 7.92543 7.2387Z" fill="#90B515"/>
<path d="M7.03688 7.89788L6.49787 7.20438C6.34573 7.32552 6.19568 7.44922 6.04779 7.57544L6.60976 8.25C6.75011 8.13022 6.89251 8.01283 7.03688 7.89788Z" fill="#90B515"/>
<path d="M6.19467 8.61662L5.61039 7.96176C5.46674 8.09305 5.32531 8.22679 5.18617 8.36292L5.79208 8.99733C5.92412 8.86814 6.05834 8.74122 6.19467 8.61662Z" fill="#90B515"/>
<path d="M5.4025 9.39162L4.77568 8.77838C4.64119 8.9192 4.50905 9.06234 4.37932 9.20773L5.02635 9.79909C5.14946 9.66111 5.27486 9.52527 5.4025 9.39162Z" fill="#90B515"/>
<path d="M4.66411 10.2192L3.99762 9.65043C3.87292 9.80011 3.75069 9.95198 3.63101 10.106L4.31621 10.6515C4.42978 10.5054 4.54577 10.3613 4.66411 10.2192Z" fill="#90B515"/>
<path d="M3.983 11.0955L3.27987 10.5739C3.16551 10.7318 3.05375 10.8918 2.94464 11.0537L3.66492 11.5508C3.76844 11.3972 3.87449 11.2454 3.983 11.0955Z" fill="#90B515"/>
<path d="M2.32377 12.0464C2.42172 11.8773 2.52244 11.71 2.62587 11.5446L3.36247 12.0166C3.26434 12.1735 3.16878 12.3322 3.07586 12.4926L2.32377 12.0464Z" fill="#90B515"/>
<path d="M2.80541 12.9784L2.03868 12.5584C1.9467 12.7305 1.85754 12.9043 1.77125 13.0798L2.55174 13.4729C2.63359 13.3064 2.71816 13.1416 2.80541 12.9784Z" fill="#90B515"/>
<path d="M2.31495 13.9759L1.5216 13.6101C1.44146 13.7882 1.36423 13.9678 1.28997 14.1491L2.09527 14.4871C2.16569 14.3152 2.23894 14.1448 2.31495 13.9759Z" fill="#90B515"/>
<path d="M1.89315 15.0054L1.07684 14.6956C1.00905 14.8786 0.944249 15.0631 0.8825 15.249L1.70885 15.5302C1.7674 15.3539 1.82886 15.1789 1.89315 15.0054Z" fill="#90B515"/>
<path d="M1.54239 16.0614L0.706969 15.8092C0.651739 15.9966 0.599578 16.1853 0.550547 16.3754L1.39405 16.5983C1.44055 16.4181 1.49001 16.2391 1.54239 16.0614Z" fill="#90B515"/>
<path d="M1.26422 17.1393L0.413646 16.9458C0.371312 17.1365 0.332105 17.3283 0.29608 17.5213L1.15272 17.6851C1.18689 17.5021 1.22407 17.3201 1.26422 17.1393Z" fill="#90B515"/>
<path d="M1.05967 18.2351L0.197984 18.1011C0.168723 18.2938 0.142623 18.4877 0.119738 18.6825L0.985437 18.7867C1.00715 18.6018 1.03191 18.4179 1.05967 18.2351Z" fill="#90B515"/>
<path d="M0.929731 19.3413L0.0610324 19.267C0.0447639 19.4618 0.0317032 19.6576 0.0219039 19.8542L0.892592 19.8986C0.901894 19.712 0.914291 19.5262 0.929731 19.3413Z" fill="#90B515"/>
<path d="M0 20.7353C0 20.6368 0.000817703 20.5385 0.00244661 20.4404L0.874118 20.4552C0.872572 20.5484 0.871795 20.6417 0.871795 20.7353C0.871795 20.8288 0.872572 20.9222 0.874119 21.0154L0.00244683 21.0302C0.000817775 20.9321 0 20.8338 0 20.7353Z" fill="#90B515"/>
<path d="M0.892592 21.5719L0.0219046 21.6164C0.031704 21.813 0.0447648 22.0088 0.0610334 22.2036L0.929732 22.1293C0.914292 21.9444 0.901895 21.7586 0.892592 21.5719Z" fill="#90B515"/>
<path d="M15.6227 37.0002L15.5493 37.8794C15.7418 37.8959 15.9352 37.9091 16.1295 37.919L16.1734 37.0378C15.989 37.0283 15.8054 37.0158 15.6227 37.0002Z" fill="#90B515"/>
<path d="M16.7233 37.0565L16.7086 37.9387C16.8056 37.9403 16.9027 37.9412 17 37.9412C17.0973 37.9412 17.1944 37.9403 17.2914 37.9387L17.2767 37.0565C17.1847 37.058 17.0924 37.0588 17 37.0588C16.9076 37.0588 16.8153 37.058 16.7233 37.0565Z" fill="#90B515"/>
<path d="M17.8266 37.0378L17.8706 37.919C18.0648 37.9091 18.2582 37.8959 18.4507 37.8794L18.3773 37.0002C18.1946 37.0158 18.0111 37.0283 17.8266 37.0378Z" fill="#90B515"/>
<path d="M33.0703 22.1293L33.939 22.2036C33.9552 22.0087 33.9683 21.813 33.9781 21.6164L33.1074 21.5719C33.0981 21.7586 33.0857 21.9444 33.0703 22.1293Z" fill="#90B515"/>
</svg>
