<svg width="20" height="19" viewBox="0 0 20 19" fill="none" xmlns="http://www.w3.org/2000/svg">
<path fill-rule="evenodd" clip-rule="evenodd" d="M5.79492 0C3.0335 0 0.794922 2.23858 0.794922 5V14C0.794922 16.7614 3.0335 19 5.79493 19H14.8252C17.5866 19 19.8252 16.7614 19.8252 14V5C19.8252 2.23858 17.5866 0 14.8252 0H5.79492ZM7.38069 1.58353C4.61927 1.58353 2.38069 3.8221 2.38069 6.58353V12.4169C2.38069 15.1783 4.61927 17.4169 7.3807 17.4169H13.2392C16.0007 17.4169 18.2392 15.1783 18.2392 12.4169V6.58353C18.2392 3.82211 16.0006 1.58353 13.2392 1.58353H7.38069ZM16.6534 4.35392C16.6534 5.00975 16.1209 5.54142 15.4641 5.54142C14.8072 5.54142 14.2747 5.00975 14.2747 4.35392C14.2747 3.69808 14.8072 3.16641 15.4641 3.16641C16.1209 3.16641 16.6534 3.69808 16.6534 4.35392ZM15.8605 9.49985C15.8605 12.5604 13.3755 15.0415 10.31 15.0415C7.2446 15.0415 4.75956 12.5604 4.75956 9.49985C4.75956 6.43927 7.2446 3.95818 10.31 3.95818C13.3755 3.95818 15.8605 6.43927 15.8605 9.49985ZM13.4817 9.50031C13.4817 11.2492 12.0617 12.667 10.31 12.667C8.55833 12.667 7.13831 11.2492 7.13831 9.50031C7.13831 7.75141 8.55833 6.33365 10.31 6.33365C12.0617 6.33365 13.4817 7.75141 13.4817 9.50031Z" fill="#555555"/>
</svg>
