<svg width="29" height="42" viewBox="0 0 29 42" fill="none" xmlns="http://www.w3.org/2000/svg">
<path fill-rule="evenodd" clip-rule="evenodd" d="M0 2.05674C0 1.45233 0.489928 0.962402 1.09434 0.962402H16.4151C17.0195 0.962402 17.5094 1.45233 17.5094 2.05674C17.5094 2.66115 17.0195 3.15108 16.4151 3.15108V34.3398C16.4151 38.5704 12.9854 42.0001 8.75472 42.0001C4.52404 42.0001 1.09434 38.5704 1.09434 34.3398V3.15108C0.489928 3.15108 0 2.66115 0 2.05674ZM5.19811 10.8115C6.25578 10.8115 7.11321 9.95403 7.11321 8.89636C7.11321 7.83869 6.25578 6.98127 5.19811 6.98127C4.14044 6.98127 3.28302 7.83869 3.28302 8.89636C3.28302 9.95403 4.14044 10.8115 5.19811 10.8115ZM9.84906 16.8303C9.84906 17.4347 9.35913 17.9247 8.75472 17.9247C8.15031 17.9247 7.66038 17.4347 7.66038 16.8303C7.66038 16.2259 8.15031 15.736 8.75472 15.736C9.35913 15.736 9.84906 16.2259 9.84906 16.8303ZM5.74528 22.8492C6.19854 22.8492 6.56604 22.4817 6.56604 22.0284C6.56604 21.5752 6.19854 21.2077 5.74528 21.2077C5.29202 21.2077 4.92453 21.5752 4.92453 22.0284C4.92453 22.4817 5.29202 22.8492 5.74528 22.8492ZM13.1321 24.7643C13.1321 25.2175 12.7646 25.585 12.3113 25.585C11.8581 25.585 11.4906 25.2175 11.4906 24.7643C11.4906 24.311 11.8581 23.9435 12.3113 23.9435C12.7646 23.9435 13.1321 24.311 13.1321 24.7643ZM12.3113 13.0001C12.7646 13.0001 13.1321 12.6326 13.1321 12.1794C13.1321 11.7261 12.7646 11.3586 12.3113 11.3586C11.8581 11.3586 11.4906 11.7261 11.4906 12.1794C11.4906 12.6326 11.8581 13.0001 12.3113 13.0001ZM12.5849 6.16052C12.5849 6.61377 12.2174 6.98127 11.7642 6.98127C11.3109 6.98127 10.9434 6.61377 10.9434 6.16052C10.9434 5.70726 11.3109 5.33976 11.7642 5.33976C12.2174 5.33976 12.5849 5.70726 12.5849 6.16052ZM23.5283 0.962402H24.6226V9.71712H27.9057V36.5284H29V38.1699H26.8113V40.9058H27.3585V42.0001H20.7925V40.9058H21.3396V38.1699H19.1509V36.5284H20.2453V9.71712H23.5283V0.962402Z" fill="#90B515"/>
</svg>
