<svg width="45" height="45" viewBox="0 0 45 45" fill="none" xmlns="http://www.w3.org/2000/svg">
<path fill-rule="evenodd" clip-rule="evenodd" d="M38.6072 13.6311C40.3493 21.6607 38.4959 35.7359 24.6946 37.9962C24.259 38.0258 28.9869 28.9451 30.9468 25.3424C28.3385 28.496 22.3234 37.2806 22.1733 36.6884C21.7475 35.9136 21.4088 35.1388 21.1474 34.3541C21.3458 34.438 21.5636 34.4824 21.791 34.4824C22.7444 34.4824 23.5138 33.6977 23.5138 32.7254C23.5138 31.7532 22.7444 30.9685 21.791 30.9685C21.3071 30.9685 20.8716 31.1709 20.5571 31.5015C19.8505 23.2893 27.6223 15.5263 38.6072 13.6311Z" fill="#9DC41A"/>
<path fill-rule="evenodd" clip-rule="evenodd" d="M6.90086 22.6577C6.8573 28.7181 10.3173 38.5639 20.6054 38.0259C20.92 37.9815 16.1485 32.1777 14.1935 29.8927C16.5502 31.7533 22.2072 37.1376 22.2266 36.6885C22.483 35.8544 22.6234 35.0352 22.6621 34.2406C22.4056 34.3936 22.1056 34.4824 21.7862 34.4824C20.8329 34.4824 20.0634 33.6977 20.0634 32.7255C20.0634 31.7533 20.8329 30.9686 21.7862 30.9686C21.9411 30.9686 22.0911 30.9883 22.2362 31.0278C20.5716 25.8853 14.3242 22.332 6.90086 22.6577Z" fill="#9DC41A"/>
<path fill-rule="evenodd" clip-rule="evenodd" d="M16.8309 12.2935C15.1711 15.0276 14.0726 20.4711 18.8876 23.1213C19.0424 23.1904 18.4472 19.2127 18.181 17.6285C18.7472 19.1386 19.8554 23.1707 19.9861 22.9733C23.2428 20.0467 21.4475 14.8894 16.8309 12.2935Z" fill="#9DC41A"/>
<path fill-rule="evenodd" clip-rule="evenodd" d="M3.56184 34.0776C8.40103 42.1664 17.9003 46.6179 27.4771 44.4563C39.5267 41.7321 47.1339 29.5619 44.4675 17.2732C42.5463 8.42933 35.8295 1.9346 27.7239 0C33.7632 2.64033 38.5104 8.10854 40.0396 15.1511C42.5657 26.7735 35.3698 38.2824 23.9784 40.8536C16.2066 42.6105 8.48813 39.758 3.56184 34.0776Z" fill="#84807F"/>
<path fill-rule="evenodd" clip-rule="evenodd" d="M29.5918 37.7593C23.025 41.7717 14.4694 41.6187 7.93161 36.6933C-0.749892 30.1542 -2.58878 17.6731 3.82798 8.82425C7.64126 3.56332 13.5064 0.765062 19.4634 0.735451C18.902 0.809479 18.3407 0.908183 17.7745 1.0365C7.50576 3.35604 1.02609 13.7249 3.30051 24.1974C5.57493 34.665 15.7421 41.2732 26.0108 38.9537C27.2642 38.6724 28.4594 38.2677 29.5918 37.7593Z" fill="#9DC41A"/>
</svg>
