<svg width="77" height="77" viewBox="0 0 77 77" fill="none" xmlns="http://www.w3.org/2000/svg">
<path d="M76.7238 12.2228C76.4583 11.1609 75.3964 10.63 74.3344 10.63H66.37V2.66556C66.37 1.60364 65.8391 0.541717 64.7772 0.276237C63.7152 -0.254723 62.6533 0.0107567 61.8569 0.807197L51.2377 11.4264C50.7067 11.9574 50.4412 12.4883 50.4412 13.2848V22.8421L35.3089 37.9744C34.2469 39.0363 34.2469 40.6292 35.3089 41.6911C35.8398 42.2221 36.6363 42.4876 37.1672 42.4876C37.6982 42.4876 38.4946 42.2221 39.0256 41.6911L54.158 26.5588H63.7152C64.5117 26.5588 65.0426 26.2933 65.5736 25.7623L76.1928 15.1431C76.9893 14.3467 77.2547 13.2848 76.7238 12.2228Z" fill="#9DC41A"/>
<path d="M42.7423 45.4079C41.4149 47.0007 39.2911 47.7972 37.1672 47.7972C35.0434 47.7972 32.9195 47.0007 31.5921 45.4079C28.4064 42.2221 28.4064 37.178 31.5921 34.2577L39.0256 26.8243C38.4946 26.5588 37.6982 26.5588 37.1672 26.5588C29.7338 26.5588 23.8932 32.3993 23.8932 39.8328C23.8932 47.2662 29.7338 53.1068 37.1672 53.1068C44.6007 53.1068 50.4412 47.2662 50.4412 39.8328C50.4412 39.3018 50.4412 38.5054 50.1758 37.9744L42.7423 45.4079Z" fill="#9DC41A"/>
<path d="M69.2903 29.4791C67.9629 31.0719 65.8391 31.8684 63.7152 31.8684H56.2818L54.4234 33.7267C55.2199 35.5851 55.4854 37.7089 55.4854 39.8328C55.4854 50.1865 47.2555 58.4164 36.9017 58.4164C26.548 58.4164 18.3181 50.1865 18.3181 39.8328C18.3181 29.4791 26.548 21.2492 36.9017 21.2492C39.0256 21.2492 41.1494 21.7801 43.0078 22.3111L45.1316 20.7182V13.2848C45.1316 11.1609 45.9281 9.03708 47.5209 7.70968L50.1758 5.05488C45.9281 3.462 41.6804 2.66556 37.1672 2.66556C16.7253 2.66556 0 19.3908 0 39.8328C0 60.2748 16.7253 77 37.1672 77C57.6092 77 74.3344 60.2748 74.3344 39.8328C74.3344 35.3196 73.538 31.0719 71.9451 26.8243L69.2903 29.4791Z" fill="#9DC41A"/>
</svg>
