<svg width="48" height="52" viewBox="0 0 48 52" fill="none" xmlns="http://www.w3.org/2000/svg">
<path fill-rule="evenodd" clip-rule="evenodd" d="M24.2551 7.02666C24.1344 3.72029 22.0486 -1.40255 14.3698 0.358886C13.9492 0.455371 13.6406 0.817488 13.6471 1.2463C13.692 4.19471 15.4143 8.98075 22.2145 9.30267C22.4678 9.31466 22.7148 9.41156 22.8998 9.58387L23.8557 10.4742C24.1064 10.7077 24.223 11.0502 24.1665 11.387L24.0947 11.8155C23.9753 12.5268 23.1674 12.8992 22.5036 12.6073C18.0002 10.627 10.4087 10.4157 7.81156 22.2848C7.42797 24.9818 7.81185 30.8499 11.7078 35.3488C12.3461 36.0859 11.8588 37.3977 10.8801 37.3977H1.02784C0.460179 37.3977 0 37.8548 0 38.4188V50.9789C0 51.5428 0.460178 52 1.02784 52H46.9722C47.5398 52 48 51.5428 48 50.9789V50.6725C48 50.165 47.5858 49.7535 47.0749 49.7535C46.5641 49.7535 46.1499 49.342 46.1499 48.8345V40.8695C46.1499 40.362 46.5641 39.9505 47.0749 39.9505C47.5858 39.9505 48 39.5391 48 39.0315V38.4188C48 37.8548 47.5398 37.3977 46.9722 37.3977H38.4511C37.473 37.3977 36.9443 36.0472 37.5603 35.2923C39.7594 32.5973 42.1162 28.052 41.6274 22.2848C40.8917 13.6047 33.9842 10.4022 28.4153 12.0189C27.6029 12.2547 26.7719 11.615 27.0762 10.8304C27.458 9.84606 28.0448 8.69941 28.8938 7.65074C29.2577 7.20122 29.2509 6.53875 28.8273 6.14421L28.7985 6.11737C28.3503 5.69995 27.6361 5.76374 27.27 6.25389L26.1858 7.70569C25.8554 8.14815 25.2313 8.25042 24.7753 7.93682L24.7164 7.89628C24.4299 7.69924 24.2677 7.37258 24.2551 7.02666ZM3.70021 40.0288C3.13256 40.0288 2.67238 40.486 2.67238 41.0499V48.4022C2.67238 48.9661 3.13256 49.4233 3.70021 49.4233H41.7302C42.2979 49.4233 42.758 48.9661 42.758 48.4022V41.0499C42.758 40.486 42.2979 40.0288 41.7302 40.0288H3.70021Z" fill="#9DC41A"/>
</svg>
