<svg width="48" height="52" viewBox="0 0 48 52" fill="none" xmlns="http://www.w3.org/2000/svg">
<path fill-rule="evenodd" clip-rule="evenodd" d="M3.58659 5V28.1792C3.58659 28.5325 3.6302 28.8832 3.6738 29.234C3.68458 29.3207 3.69535 29.4073 3.70546 29.494C3.89549 31.1226 3.62864 34.3316 1.41562 38.0437C-0.976198 42.0558 0.164959 46.7997 1.1962 49.0689C1.22532 49.133 1.25344 49.1978 1.28159 49.2627C1.38685 49.5054 1.49253 49.7491 1.65255 49.958C2.31478 50.8228 4.32379 52 8.85896 52H42.6641C44.3527 51.9655 47.7297 50.6974 47.7297 45.9006C47.7297 41.923 45.4077 39.5661 43.6518 38.5234C43.0283 38.1532 42.3539 37.815 41.6496 37.6426C40.554 37.3745 38.5022 37.1133 35.014 37.1133C28.2943 37.1133 22.9186 31.0139 22.9186 28.8429V4.9974C22.9186 2.23597 20.68 0 17.9186 0H8.58659C5.82516 0 3.58659 2.23858 3.58659 5ZM8.96479 4.81442C8.9968 3.91806 9.46354 3.44715 10.1096 3.23859C11.8757 2.66846 13.1904 4.46969 13.4618 6.34356C13.7332 4.46969 15.0479 2.66846 16.814 3.23859C17.4601 3.44715 17.9268 3.91806 17.9588 4.81442C18.0057 6.12596 17.3946 6.63101 16.7122 7.19504C15.8885 7.87584 14.9608 8.64256 14.9608 11.0172V20.2596C14.9608 21.5579 15.7103 22.785 16.4598 24.0122C17.2093 25.2393 17.9588 26.4664 17.9588 27.7647C17.9588 28.7388 17.3365 29.0991 16.5148 29.1377C14.7979 29.2184 13.7052 27.6117 13.4618 25.8932C13.2184 27.6117 12.1257 29.2184 10.4088 29.1377C9.58706 29.0991 8.96479 28.7388 8.96479 27.7647C8.96479 26.4664 9.71429 25.2393 10.4638 24.0122C11.2133 22.785 11.9628 21.5579 11.9628 20.2596V11.0172C11.9628 8.64256 11.0351 7.87584 10.2114 7.19504C9.52902 6.63101 8.91794 6.12596 8.96479 4.81442Z" fill="#9DC41A"/>
</svg>
