<svg width="11" height="11" viewBox="0 0 11 11" fill="none" xmlns="http://www.w3.org/2000/svg">
<path fill-rule="evenodd" clip-rule="evenodd" d="M8.01254 10.4031C7.60986 10.4031 7.30785 10.4031 6.90517 10.2018C4.4891 9.49709 2.67704 8.08769 1.26766 6.07425C0.76431 5.36954 0.16029 4.56416 0.0596198 3.65812C-0.14172 2.55072 0.16029 1.544 1.06632 0.839298C1.36833 0.537282 2.17369 0.43661 2.4757 0.637954C2.57637 0.738626 2.57637 0.839299 2.67704 0.939971C2.97905 1.64468 3.28106 2.34938 3.58307 3.05408C3.58307 3.15476 3.58307 3.3561 3.58307 3.45677C3.38173 3.75879 3.18039 4.0608 2.97905 4.36282C2.77771 4.56416 2.77771 4.76551 2.87838 4.96685C3.78441 6.37626 4.89177 7.38298 6.40182 7.98702C6.60316 8.08769 6.8045 8.08769 6.90517 7.88634C7.20718 7.58433 7.40852 7.28231 7.71053 6.87962C7.91187 6.67828 8.11321 6.67828 8.31455 6.67828C8.8179 6.87962 9.32125 7.18164 9.8246 7.38298C9.92527 7.48365 10.0259 7.48366 10.2273 7.58433C10.7306 7.88634 10.7306 7.88634 10.63 8.3897C10.5293 9.4971 9.72393 10.0005 8.71723 10.3025C8.51589 10.4031 8.31455 10.4031 8.01254 10.4031Z" fill="#555555"/>
</svg>
