<svg width="51" height="53" viewBox="0 0 51 53" fill="none" xmlns="http://www.w3.org/2000/svg">
<path fill-rule="evenodd" clip-rule="evenodd" d="M25.5 1.09278H16.37V2.73196C18.196 2.79267 21.848 3.97045 21.848 8.19588V27.1375C18.9264 26.7732 12.7911 24.0412 11.6225 16.0275C11.4882 15.1065 11.3677 14.2193 11.2521 13.3676C10.1104 4.95588 9.43766 0 0.483946 0C0.118749 0 -0.392527 0.218557 0.483946 1.09278C0.712554 1.32081 1.01271 1.50918 1.34461 1.71747C2.60333 2.5074 4.31853 3.58381 4.31853 8.19588C4.31853 14.0241 5.41412 29.8694 19.109 29.8694H21.848V46.079C22.0306 47.9003 21.1906 51.543 16.37 51.543V53H25.5V1.09278ZM25.5 1.09278H34.63V2.73196C32.804 2.79267 29.152 3.97045 29.152 8.19588V27.1375C32.0736 26.7732 38.2089 24.0412 39.3775 16.0275C39.5118 15.1065 39.6323 14.2193 39.7479 13.3676C40.8896 4.95588 41.5623 0 50.5161 0C50.8813 0 51.3925 0.218557 50.5161 1.09278C50.2874 1.32081 49.9873 1.50918 49.6554 1.71747C48.3967 2.5074 46.6815 3.58381 46.6815 8.19588C46.6815 14.0241 45.5859 29.8694 31.891 29.8694H29.152V46.079C28.9694 47.9003 29.8094 51.543 34.63 51.543V53H25.5V1.09278Z" fill="#9DC41A"/>
</svg>
