<svg width="65" height="53" viewBox="0 0 65 53" fill="none" xmlns="http://www.w3.org/2000/svg">
<path d="M41.7225 31.6761C37.7302 31.6761 36.3329 28.6819 36.3329 25.8873C36.3329 22.2039 38.7118 20.7295 39.5502 20.2098C39.6205 20.1662 39.68 20.1294 39.7263 20.0985C40.1256 19.8989 40.1256 18.7012 40.1256 18.302V16.1062H40.1319V14.11C40.1319 12.8325 39.7326 12.38 39.533 12.3135C38.7386 11.7059 38.1299 11.0494 37.668 10.3979C36.796 9.70497 36.3072 8.91628 36.0508 8.5026C36.0073 8.4323 35.9704 8.37283 35.9395 8.3265C35.7399 7.92727 34.5422 7.92727 34.143 7.92727H31.9472V7.92204H29.9504C28.6729 7.92204 28.2204 8.32126 28.1539 8.52088C26.0779 11.2356 23.4297 11.7812 22.3651 11.7147C19.5705 11.7147 16.5763 10.1178 16.5763 6.12551C16.5763 2.13322 19.5705 0.73592 22.3651 0.73592C26.0485 0.73592 27.5229 3.11483 28.0426 3.95326C28.0861 4.02354 28.123 4.08304 28.1539 4.12936C28.3535 4.52859 29.5512 4.52859 29.9504 4.52859H32.1462V4.53382L34.143 4.53382C35.4205 4.53382 35.873 4.13459 35.9395 3.93498C37.9943 1.248 40.6096 0.686005 41.6952 0.739304C41.772 0.737003 41.8497 0.73584 41.9284 0.73584C43.3844 0.73584 44.4952 1.13407 45.319 1.77561C46.6056 2.65403 47.5171 4.12757 47.5171 6.33035C47.5171 7.54037 47.2421 8.51201 46.7809 9.27861C46.0285 11.0073 44.6874 11.8385 44.1007 12.2021C44.0304 12.2457 43.9709 12.2826 43.9246 12.3135C43.5253 12.5131 43.5253 13.7108 43.5253 14.11V16.3058H43.519V18.302C43.519 19.5795 43.9182 20.032 44.1179 20.0985C46.8326 22.1745 47.3782 24.8227 47.3117 25.8873C47.3117 28.6819 45.7148 31.6761 41.7225 31.6761Z" fill="#9DC41A"/>
<path d="M16.4634 21.3507C17.1109 20.8899 17.763 20.2839 18.3667 19.4944C18.4332 19.2948 18.8857 18.8956 20.1632 18.8956H22.1601V18.9007H24.3558C24.755 18.9007 25.9527 18.9007 26.1523 19.3C26.1832 19.3463 26.2201 19.4058 26.2637 19.4761C26.7833 20.3145 28.2577 22.6934 31.9412 22.6934C34.7358 22.6934 37.73 21.2961 37.73 17.3038C37.73 13.3115 34.7358 11.7146 31.9412 11.7146C30.8766 11.6481 28.2283 12.1937 26.1523 14.9084C26.0858 15.1081 25.6334 15.5073 24.3558 15.5073H22.359V15.5021L20.1632 15.5021C19.764 15.5021 18.5663 15.5021 18.3667 15.1029C18.3358 15.0566 18.2989 14.9971 18.2554 14.9268C17.8901 14.3374 17.0529 12.9868 15.3083 12.2364C14.5456 11.7842 13.582 11.5151 12.3851 11.5151C10.2137 11.5151 8.75094 12.4009 7.86829 13.6586C7.20365 14.4872 6.78905 15.6135 6.78905 17.099C6.78905 17.1857 6.79046 17.2712 6.79325 17.3556C6.74719 18.4521 7.31792 21.0496 9.98977 23.0927C10.1894 23.1593 10.5886 23.6117 10.5886 24.8893V26.8855H10.5824V29.0813C10.5824 29.4805 10.5824 30.6782 10.1831 30.8778C10.1368 30.9087 10.0773 30.9455 10.0071 30.9891C9.16864 31.5087 6.78969 32.9832 6.78969 36.6666C6.78969 39.4612 8.18699 42.4554 12.1793 42.4554C16.1716 42.4554 17.7685 39.4612 17.7685 36.6666C17.835 35.602 17.2894 32.9538 14.5746 30.8778C14.375 30.8112 13.9758 30.3588 13.9758 29.0813V27.085H13.9821V24.8893C13.9821 24.49 13.9821 23.2924 14.3813 23.0927C14.4276 23.0619 14.4871 23.025 14.5574 22.9814C14.9732 22.7237 15.7679 22.2312 16.4634 21.3507Z" fill="#9DC41A"/>
<path d="M52.7011 11.5153C56.6934 11.5153 58.0907 14.5095 58.0907 17.3041C58.0907 20.9876 55.7118 22.462 54.8733 22.9816C54.8031 23.0252 54.7436 23.0621 54.6972 23.093C54.298 23.2926 54.298 24.4903 54.298 24.8895V27.0852H54.2917V29.0814C54.2917 30.359 54.6909 30.8114 54.8906 30.878C57.5793 32.934 58.1403 35.5514 58.0861 36.6357C58.0885 36.7133 58.0897 36.7918 58.0897 36.8712C58.0897 38.3452 57.6815 39.4655 57.0259 40.2923C56.1447 41.5605 54.678 42.4556 52.4952 42.4556C51.2991 42.4556 50.336 42.1868 49.5735 41.7352C47.8268 40.9851 46.9889 39.6332 46.6234 39.0435C46.5798 38.9732 46.5429 38.9137 46.512 38.8674C46.3124 38.4681 45.1147 38.4681 44.7155 38.4681H42.5197V38.4629H40.5229C39.2454 38.4629 38.793 38.8621 38.7264 39.0617C36.6504 41.7765 34.0022 42.3221 32.9376 42.2555C30.143 42.2555 27.1488 40.6586 27.1488 36.6663C27.1488 32.674 30.143 31.2767 32.9376 31.2767C36.621 31.2767 38.0954 33.6557 38.6151 34.4941C38.6587 34.5644 38.6955 34.6239 38.7264 34.6702C38.926 35.0694 40.1237 35.0694 40.5229 35.0694H42.7187V35.0747H44.7155C45.993 35.0747 46.4455 34.6755 46.512 34.4758C47.1171 33.6846 47.7708 33.0776 48.4198 32.6163C49.1146 31.7382 49.9077 31.2466 50.3229 30.9893C50.3932 30.9457 50.4527 30.9088 50.499 30.878C50.8983 30.6783 50.8983 29.4807 50.8983 29.0814V26.8857H50.9046V24.8895C50.9046 23.612 50.5053 23.1595 50.3057 23.093C47.591 21.017 47.0454 18.3688 47.1119 17.3041C47.1119 14.5095 48.7088 11.5153 52.7011 11.5153Z" fill="#9DC41A"/>
<path d="M16.7681 47.0461C16.7681 49.8407 18.1654 52.835 22.1576 52.835C26.1499 52.835 27.7468 49.8407 27.7468 47.0461C27.8134 45.9815 27.2678 43.3333 24.553 41.2573C24.3534 41.1908 23.9542 40.7383 23.9542 39.4608V37.4648H23.9606V35.2691C23.9606 34.8698 23.9606 33.6721 24.3599 33.4725C24.4062 33.4416 24.4657 33.4048 24.536 33.3612C25.3744 32.8416 27.7533 31.3671 27.7533 27.6837C27.7533 24.8891 26.356 21.8949 22.3637 21.8949C18.3714 21.8949 16.7745 24.8891 16.7745 27.6837C16.708 28.7483 17.2536 31.3965 19.9683 33.4725C20.168 33.5391 20.5672 33.9915 20.5672 35.2691V37.265H20.5607V39.4608C20.5607 39.86 20.5607 41.0577 20.1615 41.2573C20.1152 41.2882 20.0557 41.3251 19.9854 41.3687C19.147 41.8883 16.7681 43.3627 16.7681 47.0461Z" fill="#9DC41A"/>
<path d="M7.98457 27.0846C7.98457 29.2895 6.19716 31.0769 3.99229 31.0769C1.78741 31.0769 0 29.2895 0 27.0846C0 24.8797 1.78741 23.0923 3.99229 23.0923C6.19716 23.0923 7.98457 24.8797 7.98457 27.0846Z" fill="#9DC41A"/>
<path d="M64.2753 27.0846C64.2753 29.2895 62.4879 31.0769 60.283 31.0769C58.0781 31.0769 56.2907 29.2895 56.2907 27.0846C56.2907 24.8797 58.0781 23.0923 60.283 23.0923C62.4879 23.0923 64.2753 24.8797 64.2753 27.0846Z" fill="#9DC41A"/>
</svg>
