<svg width="21" height="21" viewBox="0 0 21 21" fill="none" xmlns="http://www.w3.org/2000/svg">
<path fill-rule="evenodd" clip-rule="evenodd" d="M20.738 8.05377C19.6306 3.32218 15.5032 0.100672 10.5703 0C9.86565 0 9.16096 0.100672 8.55694 0.201344C1.51005 1.51008 -2.0134 9.16116 1.30871 15.4028C1.40938 15.6042 1.40938 15.7048 1.40938 15.9062C0.906029 17.5169 0.503349 19.1277 0 20.7384C0 21.0405 0 21.0405 0.20134 20.9398C1.91273 20.4364 3.62412 20.0337 5.23483 19.6311C5.3355 19.6311 5.53684 19.6311 5.63751 19.6311C7.85225 20.7384 10.067 21.0405 12.4831 20.6378C18.3219 19.5304 22.0467 13.6914 20.738 8.05377ZM11.9797 18.9263C11.4764 19.027 10.973 19.027 10.7717 19.027C8.95962 19.027 7.44957 18.6243 6.04019 17.819C5.83885 17.7183 5.73818 17.6176 5.53684 17.7183C4.63081 17.9196 3.62412 18.2216 2.71809 18.423C2.51675 18.5237 2.51675 18.423 2.51675 18.2216C2.81876 17.3156 3.0201 16.5102 3.22144 15.6042C3.32211 15.4028 3.22144 15.2015 3.12077 15.0001C1.20804 11.8793 1.30871 8.15444 3.42278 5.23495C5.63751 2.31546 8.65761 1.10739 12.2817 1.8121C15.8052 2.5168 18.1206 4.83226 18.9259 8.35578C20.134 13.3894 16.9125 18.121 11.9797 18.9263Z" fill="white"/>
<path fill-rule="evenodd" clip-rule="evenodd" d="M13.1878 15.4028C12.7851 15.4028 12.4831 15.4028 12.0804 15.2015C9.66431 14.4968 7.85225 13.0874 6.44287 11.0739C5.93952 10.3692 5.3355 9.56385 5.23483 8.6578C5.03349 7.5504 5.3355 6.54368 6.24153 5.83898C6.54354 5.53696 7.3489 5.43629 7.65091 5.63764C7.75158 5.73831 7.75158 5.83898 7.85225 5.93965C8.15426 6.64436 8.45627 7.34906 8.75828 8.05377C8.75828 8.15444 8.75828 8.35578 8.75828 8.45645C8.55694 8.75847 8.3556 9.06049 8.15426 9.3625C7.95292 9.56385 7.95292 9.76519 8.05359 9.96654C8.95962 11.3759 10.067 12.3827 11.577 12.9867C11.7784 13.0874 11.9797 13.0874 12.0804 12.886C12.3824 12.584 12.5837 12.282 12.8857 11.8793C13.0871 11.678 13.2884 11.678 13.4898 11.678C13.9931 11.8793 14.4965 12.1813 14.9998 12.3827C15.1005 12.4833 15.2012 12.4833 15.4025 12.584C15.9058 12.886 15.9058 12.886 15.8052 13.3894C15.7045 14.4968 14.8991 15.0001 13.8924 15.3022C13.6911 15.4028 13.4898 15.4028 13.1878 15.4028Z" fill="white"/>
</svg>
